ScienceGothic-BlkCndCtrS.ufo
<glyph name="parenleft" format="2">
  <advance width="664"/>
  <unicode hex="0028"/>
  <outline>
    <contour>
      <point x="494" y="-256" type="line"/>
      <point x="434.75" y="-205.75"/>
      <point x="375.188" y="-125.25"/>
      <point x="370.312" y="41.25"/>
      <point x="418" y="346.75"/>
      <point x="466" y="622" type="qcurve" smooth="yes"/>
      <point x="514" y="897.25"/>
      <point x="573" y="1202.75"/>
      <point x="636" y="1369.25"/>
      <point x="723.5" y="1449.75"/>
      <point x="800" y="1500" type="qcurve"/>
      <point x="752" y="1500" type="line"/>
      <point x="614.375" y="1426.12"/>
      <point x="377.562" y="1241.56"/>
      <point x="193.438" y="1021.44"/>
      <point x="69.125" y="766.375"/>
      <point x="44" y="622" type="qcurve" smooth="yes"/>
      <point x="-6.5582" y="331.479"/>
      <point x="220.375" y="-106.589"/>
      <point x="446" y="-256" type="qcurve"/>
    </contour>
  </outline>
</glyph>
<glyph name="one" format="2">
  <advance width="873"/>
  <unicode hex="0031"/>
  <outline>
    <contour>
      <point x="93" y="0" type="line"/>
      <point x="665" y="0" type="line"/>
      <point x="913" y="1418" type="line"/>
      <point x="140" y="1320" type="line"/>
      <point x="133" y="1283" type="line"/>
      <point x="322" y="1307" type="line"/>
    </contour>
  </outline>
  <guideline angle="90" color="0.4,0.4,0.4,1" name="halfwidth" x="436.5" y="0"/>
</glyph>
<glyph name="three" format="2">
  <advance width="1399"/>
  <unicode hex="0033"/>
  <outline>
    <contour>
      <point x="37" y="391" type="line"/>
      <point x="23" y="310" type="line" smooth="yes"/>
      <point x="-9.25" y="122.5"/>
      <point x="190.75" y="-10"/>
      <point x="355" y="-10" type="qcurve" smooth="yes"/>
      <point x="781" y="-10" type="line" smooth="yes"/>
      <point x="873.25" y="-10"/>
      <point x="1027.59" y="9.59375"/>
      <point x="1146.66" y="77.6562"/>
      <point x="1227.88" y="208.625"/>
      <point x="1247" y="320" type="qcurve" smooth="yes"/>
      <point x="1262" y="408" type="line" smooth="yes"/>
      <point x="1290.67" y="569.484"/>
      <point x="1187.21" y="708.681"/>
      <point x="1071" y="720" type="qcurve"/>
      <point x="1192.49" y="741.129"/>
      <point x="1320.08" y="855.534"/>
      <point x="1348" y="1014" type="qcurve" smooth="yes"/>
      <point x="1362" y="1092" type="line" smooth="yes"/>
      <point x="1378.12" y="1185.38"/>
      <point x="1339.69" y="1308.09"/>
      <point x="1247.81" y="1380.66"/>
      <point x="1111.12" y="1410"/>
      <point x="1029" y="1410" type="qcurve" smooth="yes"/>
      <point x="605" y="1410" type="line" smooth="yes"/>
      <point x="518" y="1410"/>
      <point x="371.906" y="1392.22"/>
      <point x="258.844" y="1329.03"/>
      <point x="181.375" y="1206.62"/>
      <point x="163" y="1102" type="qcurve" smooth="yes"/>
      <point x="151" y="1031" type="line"/>
      <point x="667" y="940" type="line"/>
      <point x="743" y="1374" type="line"/>
      <point x="743" y="1374"/>
      <point x="743" y="1374"/>
      <point x="743" y="1374" type="qcurve"/>
      <point x="793" y="1374" type="line" smooth="yes"/>
      <point x="831.485" y="1374"/>
      <point x="872.055" y="1333.56"/>
      <point x="863" y="1283" type="qcurve" smooth="yes"/>
      <point x="781" y="811" type="line" smooth="yes"/>
      <point x="773.454" y="768.742"/>
      <point x="742.939" y="736"/>
      <point x="712" y="736" type="qcurve" smooth="yes"/>
      <point x="639" y="736" type="line"/>
      <point x="633" y="700" type="line"/>
      <point x="706" y="700" type="line" smooth="yes"/>
      <point x="742.975" y="700"/>
      <point x="770.81" y="651.35"/>
      <point x="761" y="594" type="qcurve" smooth="yes"/>
      <point x="677" y="112" type="line" smooth="yes"/>
      <point x="667.19" y="56.1596"/>
      <point x="611.276" y="26"/>
      <point x="566" y="26" type="qcurve" smooth="yes"/>
      <point x="506" y="26" type="line"/>
      <point x="506" y="26"/>
      <point x="506" y="26"/>
      <point x="506" y="26" type="qcurve"/>
      <point x="585" y="482" type="line"/>
    </contour>
  </outline>
</glyph>
<glyph name="eight" format="2">
  <advance width="1452"/>
  <unicode hex="0038"/>
  <outline>
    <contour>
      <point x="538" y="90" type="qcurve" smooth="yes"/>
      <point x="631" y="625" type="line" smooth="yes"/>
      <point x="633.625" y="640"/>
      <point x="648.312" y="663.75"/>
      <point x="669.688" y="680.25"/>
      <point x="696.375" y="689"/>
      <point x="711" y="689" type="qcurve" smooth="yes"/>
      <point x="743" y="689" type="line" smooth="yes"/>
      <point x="761.375" y="689"/>
      <point x="786.062" y="680.25"/>
      <point x="799.938" y="663.75"/>
      <point x="803.625" y="640"/>
      <point x="801" y="625" type="qcurve" smooth="yes"/>
      <point x="708" y="90" type="line" smooth="yes"/>
      <point x="702.718" y="59.816"/>
      <point x="664.975" y="26"/>
      <point x="628" y="26" type="qcurve" smooth="yes"/>
      <point x="596" y="26" type="line" smooth="yes"/>
      <point x="559.025" y="26"/>
      <point x="532.718" y="59.816"/>
    </contour>
    <contour>
      <point x="918" y="1311" type="qcurve" smooth="yes"/>
      <point x="827" y="788" type="line" smooth="yes"/>
      <point x="821.718" y="758.571"/>
      <point x="776.429" y="725"/>
      <point x="747" y="725" type="qcurve" smooth="yes"/>
      <point x="721" y="725" type="line" smooth="yes"/>
      <point x="684.025" y="725"/>
      <point x="657.718" y="758.571"/>
      <point x="663" y="788" type="qcurve" smooth="yes"/>
      <point x="754" y="1311" type="line" smooth="yes"/>
      <point x="759.282" y="1340.43"/>
      <point x="804.571" y="1374"/>
      <point x="834" y="1374" type="qcurve" smooth="yes"/>
      <point x="860" y="1374" type="line" smooth="yes"/>
      <point x="889.429" y="1374"/>
      <point x="923.282" y="1340.43"/>
    </contour>
    <contour>
      <point x="21" y="343" type="line" smooth="yes"/>
      <point x="3.375" y="241.75"/>
      <point x="44.625" y="106.125"/>
      <point x="144.375" y="24.375"/>
      <point x="293.625" y="-10"/>
      <point x="384" y="-10" type="qcurve" smooth="yes"/>
      <point x="825" y="-10" type="line" smooth="yes"/>
      <point x="1008" y="-10"/>
      <point x="1277.75" y="141.5"/>
      <point x="1313" y="344" type="qcurve" smooth="yes"/>
      <point x="1322" y="396" type="line" smooth="yes"/>
      <point x="1352" y="566.25"/>
      <point x="1250.75" y="695.5"/>
      <point x="1181" y="712" type="qcurve"/>
      <point x="1251.93" y="729.356"/>
      <point x="1374.38" y="867.583"/>
      <point x="1394" y="977" type="qcurve" smooth="yes"/>
      <point x="1410" y="1072" type="line" smooth="yes"/>
      <point x="1437.17" y="1228.2"/>
      <point x="1270.23" y="1410"/>
      <point x="1068" y="1410" type="qcurve" smooth="yes"/>
      <point x="639" y="1410" type="line" smooth="yes"/>
      <point x="436.767" y="1410"/>
      <point x="205.166" y="1227.96"/>
      <point x="178" y="1071" type="qcurve" smooth="yes"/>
      <point x="162" y="977" type="line" smooth="yes"/>
      <point x="142.38" y="867.583"/>
      <point x="214.086" y="729.356"/>
      <point x="282" y="712" type="qcurve"/>
      <point x="205.031" y="694.644"/>
      <point x="59.184" y="563.294"/>
      <point x="29" y="392" type="qcurve" smooth="yes"/>
    </contour>
  </outline>
</glyph>
<glyph name="greater" format="2">
  <advance width="626"/>
  <unicode hex="003E"/>
  <outline>
    <contour>
      <point x="114" y="927" type="line"/>
      <point x="108" y="891" type="line"/>
      <point x="504" y="588" type="line"/>
      <point x="2" y="285" type="line"/>
      <point x="-6" y="241" type="line"/>
      <point x="537" y="567" type="line"/>
      <point x="543" y="603" type="line"/>
    </contour>
  </outline>
</glyph>
<glyph name="G" format="2">
  <advance width="1382"/>
  <unicode hex="0047"/>
  <anchor x="849" y="1550" name="top"/>
  <anchor x="552" y="-150" name="bottom"/>
  <outline>
    <contour>
      <point x="142" y="1076" type="qcurve" smooth="yes"/>
      <point x="13" y="336" type="line" smooth="yes"/>
      <point x="-23.2208" y="129.24"/>
      <point x="164.786" y="-10"/>
      <point x="364" y="-10" type="qcurve" smooth="yes"/>
      <point x="784" y="-10" type="line" smooth="yes"/>
      <point x="983.214" y="-10"/>
      <point x="1222.02" y="127.73"/>
      <point x="1259" y="336" type="qcurve" smooth="yes"/>
      <point x="1322" y="700" type="line"/>
      <point x="700" y="700" type="line"/>
      <point x="694" y="664" type="line"/>
      <point x="744" y="664" type="line"/>
      <point x="633" y="26" type="line"/>
      <point x="633" y="26"/>
      <point x="633" y="26"/>
      <point x="633" y="26" type="qcurve"/>
      <point x="531" y="26" type="line"/>
      <point x="531" y="26"/>
      <point x="531" y="26"/>
      <point x="531" y="26" type="qcurve"/>
      <point x="766" y="1374" type="line"/>
      <point x="766" y="1374"/>
      <point x="766" y="1374"/>
      <point x="766" y="1374" type="qcurve"/>
      <point x="862" y="1374" type="line"/>
      <point x="862" y="1374"/>
      <point x="862" y="1374"/>
      <point x="862" y="1374" type="qcurve"/>
      <point x="780" y="906" type="line"/>
      <point x="1370" y="1010" type="line"/>
      <point x="1382" y="1076" type="line" smooth="yes"/>
      <point x="1417.25" y="1277"/>
      <point x="1215" y="1410"/>
      <point x="1026" y="1410" type="qcurve" smooth="yes"/>
      <point x="612" y="1410" type="line" smooth="yes"/>
      <point x="423" y="1410"/>
      <point x="177.25" y="1277"/>
    </contour>
  </outline>
  <guideline angle="0" x="0" y="574"/>
  <guideline angle="0" x="0" y="1036"/>
  <guideline angle="0" x="0" y="980"/>
  <guideline angle="0" x="0" y="806"/>
  <guideline angle="0" x="0" y="700"/>
  <guideline angle="0" x="0" y="906"/>
  <guideline angle="0" x="0" y="494"/>
</glyph>
<glyph name="K" format="2">
  <advance width="1538"/>
  <unicode hex="004B"/>
  <anchor x="911" y="1550" name="top"/>
  <anchor x="673" y="-150" name="bottom"/>
  <outline>
    <contour>
      <point x="1606" y="1400" type="line"/>
      <point x="1548" y="1400" type="line"/>
      <point x="671" y="776" type="line"/>
      <point x="679" y="776" type="line"/>
      <point x="787" y="1400" type="line"/>
      <point x="215" y="1400" type="line"/>
      <point x="-29" y="0" type="line"/>
      <point x="543" y="0" type="line"/>
      <point x="659" y="761" type="line"/>
      <point x="610" y="761" type="line"/>
      <point x="806" y="0" type="line"/>
      <point x="1428" y="0" type="line"/>
      <point x="1109" y="1069" type="line"/>
      <point x="729" y="781" type="line"/>
    </contour>
  </outline>
</glyph>
<glyph name="N" format="2">
  <advance width="1163"/>
  <unicode hex="004E"/>
  <anchor x="734" y="1550" name="top"/>
  <anchor x="437" y="-150" name="bottom"/>
  <outline>
    <contour>
      <point x="-29" y="0" type="line"/>
      <point x="7" y="0" type="line"/>
      <point x="137" y="742" type="line"/>
      <point x="773" y="0" type="line"/>
      <point x="955" y="0" type="line"/>
      <point x="1199" y="1400" type="line"/>
      <point x="1163" y="1400" type="line"/>
      <point x="1032" y="649" type="line"/>
      <point x="393" y="1400" type="line"/>
      <point x="215" y="1400" type="line"/>
    </contour>
  </outline>
</glyph>
<glyph name="U" format="2">
  <advance width="1392"/>
  <unicode hex="0055"/>
  <anchor x="848" y="1550" name="top"/>
  <anchor x="550" y="-150" name="bottom"/>
  <anchor x="597" y="0" name="ogonek"/>
  <anchor x="1435" y="1400" name="horn"/>
  <outline>
    <contour>
      <point x="207" y="1400" type="line"/>
      <point x="21" y="333" type="line" smooth="yes"/>
      <point x="2.625" y="226.875"/>
      <point x="35.9688" y="93.1562"/>
      <point x="128.781" y="17.5938"/>
      <point x="275.75" y="-10"/>
      <point x="371" y="-10" type="qcurve" smooth="yes"/>
      <point x="778" y="-10" type="line" smooth="yes"/>
      <point x="970.75" y="-10"/>
      <point x="1213.25" y="120.75"/>
      <point x="1250" y="333" type="qcurve" smooth="yes"/>
      <point x="1436" y="1400" type="line"/>
      <point x="864" y="1400" type="line"/>
      <point x="625" y="26" type="line"/>
      <point x="625" y="26"/>
      <point x="625" y="26"/>
      <point x="625" y="26" type="qcurve"/>
      <point x="540" y="26" type="line"/>
      <point x="540" y="26"/>
      <point x="540" y="26"/>
      <point x="540" y="26" type="qcurve"/>
      <point x="779" y="1400" type="line"/>
    </contour>
  </outline>
</glyph>
<glyph name="W" format="2">
  <advance width="1811"/>
  <unicode hex="0057"/>
  <anchor x="828" y="-150" name="bottom"/>
  <anchor x="1058" y="1550" name="top"/>
  <outline>
    <contour>
      <point x="287" y="0" type="line"/>
      <point x="561" y="0" type="line"/>
      <point x="972" y="999" type="line"/>
      <point x="1095" y="0" type="line"/>
      <point x="1369" y="0" type="line"/>
      <point x="1947" y="1400" type="line"/>
      <point x="1908" y="1400" type="line"/>
      <point x="1583" y="614" type="line"/>
      <point x="1488" y="1400" type="line"/>
      <point x="1097" y="1400" type="line"/>
      <point x="775" y="616" type="line"/>
      <point x="685" y="1400" type="line"/>
      <point x="117" y="1400" type="line"/>
    </contour>
  </outline>
</glyph>
<glyph name="d" format="2">
  <advance width="1294"/>
  <unicode hex="0064"/>
  <anchor x="799" y="1598" name="top"/>
  <anchor x="492" y="-162" name="bottom"/>
  <anchor x="1351" y="1472" name="right"/>
  <outline>
    <contour>
      <point x="-8" y="264" type="line" smooth="yes"/>
      <point x="-32.1472" y="125.154"/>
      <point x="90.5156" y="0"/>
      <point x="252" y="0" type="qcurve" smooth="yes"/>
      <point x="494" y="0" type="line" smooth="yes"/>
      <point x="521.166" y="0"/>
      <point x="562.172" y="14.4172"/>
      <point x="575" y="28" type="qcurve"/>
      <point x="570" y="0" type="line"/>
      <point x="1094" y="0" type="line"/>
      <point x="1351" y="1472" type="line"/>
      <point x="827" y="1472" type="line"/>
      <point x="746" y="1006" type="line"/>
      <point x="741.472" y="1018.07"/>
      <point x="705.693" y="1030"/>
      <point x="674" y="1030" type="qcurve" smooth="yes"/>
      <point x="432" y="1030" type="line" smooth="yes"/>
      <point x="272.025" y="1030"/>
      <point x="104.393" y="907.3"/>
      <point x="81" y="776" type="qcurve" smooth="yes"/>
    </contour>
    <contour>
      <point x="744" y="998" type="line"/>
      <point x="576" y="32" type="line"/>
      <point x="476" y="32" type="line"/>
      <point x="476" y="32"/>
      <point x="476" y="32"/>
      <point x="476" y="32" type="qcurve"/>
      <point x="644" y="998" type="line"/>
      <point x="644" y="998"/>
      <point x="644" y="998"/>
      <point x="644" y="998" type="qcurve"/>
    </contour>
  </outline>
</glyph>
<glyph name="i" format="2">
  <advance width="713"/>
  <unicode hex="0069"/>
  <anchor x="212" y="-150" name="bottom"/>
  <anchor x="443" y="1174" name="top"/>
  <anchor x="13" y="0" name="ogonek"/>
  <outline>
    <contour>
      <point x="-24" y="0" type="line"/>
      <point x="500" y="0" type="line"/>
      <point x="679" y="1024" type="line"/>
      <point x="155" y="1024" type="line"/>
    </contour>
    <contour>
      <point x="178" y="1232" type="line" smooth="yes"/>
      <point x="163.663" y="1150.5"/>
      <point x="187.503" y="1122"/>
      <point x="269" y="1122" type="qcurve" smooth="yes"/>
      <point x="601" y="1122" type="line" smooth="yes"/>
      <point x="682.497" y="1122"/>
      <point x="715.663" y="1150.5"/>
      <point x="730" y="1232" type="qcurve" smooth="yes"/>
      <point x="753" y="1364" type="line" smooth="yes"/>
      <point x="767.337" y="1443.99"/>
      <point x="743.497" y="1472"/>
      <point x="662" y="1472" type="qcurve" smooth="yes"/>
      <point x="330" y="1472" type="line" smooth="yes"/>
      <point x="248.503" y="1472"/>
      <point x="215.337" y="1443.99"/>
      <point x="201" y="1364" type="qcurve" smooth="yes"/>
    </contour>
  </outline>
</glyph>
<glyph name="s" format="2">
  <advance width="1237"/>
  <unicode hex="0073"/>
  <anchor x="702" y="1174" name="top"/>
  <anchor x="469" y="-150" name="bottom"/>
  <outline>
    <contour>
      <point x="-21" y="254" type="line"/>
      <point x="-25" y="228" type="line" smooth="yes"/>
      <point x="-49.1472" y="90.6628"/>
      <point x="94.1168" y="-14"/>
      <point x="239" y="-14" type="qcurve" smooth="yes"/>
      <point x="753" y="-14" type="line" smooth="yes"/>
      <point x="899.392" y="-14"/>
      <point x="1078.08" y="88.0248"/>
      <point x="1106" y="248" type="qcurve" smooth="yes"/>
      <point x="1112" y="281" type="line" smooth="yes"/>
      <point x="1139.17" y="437.957"/>
      <point x="988.356" y="533"/>
      <point x="848" y="533" type="qcurve" smooth="yes"/>
      <point x="544" y="533" type="line"/>
      <point x="544" y="533"/>
      <point x="544" y="533"/>
      <point x="544" y="533" type="qcurve"/>
      <point x="627" y="1006" type="line"/>
      <point x="627" y="1006"/>
      <point x="627" y="1006"/>
      <point x="627" y="1006" type="qcurve"/>
      <point x="717" y="1006" type="line"/>
      <point x="717" y="1006"/>
      <point x="717" y="1006"/>
      <point x="717" y="1006" type="qcurve"/>
      <point x="662" y="694" type="line"/>
      <point x="1180" y="776" type="line"/>
      <point x="1186" y="806" type="line" smooth="yes"/>
      <point x="1209.39" y="921.454"/>
      <point x="1080.81" y="1038"/>
      <point x="948" y="1038" type="qcurve" smooth="yes"/>
      <point x="480" y="1038" type="line" smooth="yes"/>
      <point x="340.5" y="1038"/>
      <point x="109" y="926.5"/>
      <point x="82" y="772" type="qcurve"/>
      <point x="81" y="767" type="line" smooth="yes"/>
      <point x="56.0982" y="625.135"/>
      <point x="195.117" y="501"/>
      <point x="340" y="501" type="qcurve" smooth="yes"/>
      <point x="626" y="501" type="line"/>
      <point x="626" y="501"/>
      <point x="626" y="501"/>
      <point x="626" y="501" type="qcurve"/>
      <point x="542" y="18" type="line"/>
      <point x="542" y="18"/>
      <point x="542" y="18"/>
      <point x="542" y="18" type="qcurve"/>
      <point x="452" y="18" type="line"/>
      <point x="452" y="18"/>
      <point x="452" y="18"/>
      <point x="452" y="18" type="qcurve"/>
      <point x="508" y="336" type="line"/>
    </contour>
  </outline>
</glyph>
<glyph name="bar" format="2">
  <advance width="581"/>
  <unicode hex="007C"/>
  <outline>
    <contour>
      <point x="237" y="1520" type="line"/>
      <point x="-112" y="-480" type="line"/>
      <point x="288" y="-480" type="line"/>
      <point x="637" y="1520" type="line"/>
    </contour>
  </outline>
</glyph>
<glyph name="ordfeminine" format="2">
  <advance width="867"/>
  <unicode hex="00AA"/>
  <outline>
    <contour>
      <point x="252" y="784" type="qcurve" smooth="yes"/>
      <point x="376" y="784" type="line" smooth="yes"/>
      <point x="413.73" y="784"/>
      <point x="467.153" y="798.417"/>
      <point x="483" y="812" type="qcurve"/>
      <point x="480" y="793" type="line"/>
      <point x="820" y="793" type="line"/>
      <point x="907" y="1292" type="line" smooth="yes"/>
      <point x="925.865" y="1402.17"/>
      <point x="831.779" y="1472"/>
      <point x="745" y="1472" type="qcurve" smooth="yes"/>
      <point x="389" y="1472" type="line" smooth="yes"/>
      <point x="302.221" y="1472"/>
      <point x="183.865" y="1401.15"/>
      <point x="165" y="1294" type="qcurve" smooth="yes"/>
      <point x="162" y="1276" type="line"/>
      <point x="491" y="1215" type="line"/>
      <point x="531" y="1440" type="line"/>
      <point x="531" y="1440"/>
      <point x="531" y="1440"/>
      <point x="531" y="1440" type="qcurve"/>
      <point x="593" y="1440" type="line"/>
      <point x="593" y="1440"/>
      <point x="593" y="1440"/>
      <point x="593" y="1440" type="qcurve"/>
      <point x="542" y="1147" type="line"/>
      <point x="316" y="1147" type="line" smooth="yes"/>
      <point x="235.258" y="1147"/>
      <point x="111.601" y="1083.83"/>
      <point x="95" y="988" type="qcurve" smooth="yes"/>
      <point x="88" y="950" type="line" smooth="yes"/>
      <point x="71.3988" y="852.657"/>
      <point x="171.258" y="784"/>
    </contour>
    <contour>
      <point x="405" y="816" type="qcurve"/>
      <point x="457" y="1115" type="line"/>
      <point x="457" y="1115"/>
      <point x="457" y="1115"/>
      <point x="457" y="1115" type="qcurve"/>
      <point x="536" y="1115" type="line"/>
      <point x="484" y="816" type="line"/>
      <point x="405" y="816" type="line"/>
      <point x="405" y="816"/>
      <point x="405" y="816"/>
    </contour>
  </outline>
  <guideline angle="0" x="0" y="36"/>
  <guideline angle="0" x="0" y="272"/>
  <guideline angle="0" x="0" y="36"/>
  <guideline angle="0" x="0" y="272"/>
</glyph>
<glyph name="guillemotleft" format="2">
  <advance width="884"/>
  <unicode hex="00AB"/>
  <outline>
    <contour>
      <point x="289" y="130" type="line"/>
      <point x="320" y="130" type="line"/>
      <point x="260" y="512" type="line"/>
      <point x="453" y="894" type="line"/>
      <point x="422" y="894" type="line"/>
      <point x="-29" y="512" type="line"/>
    </contour>
    <contour>
      <point x="726" y="130" type="line"/>
      <point x="757" y="130" type="line"/>
      <point x="697" y="512" type="line"/>
      <point x="890" y="894" type="line"/>
      <point x="859" y="894" type="line"/>
      <point x="408" y="512" type="line"/>
    </contour>
  </outline>
</glyph>
<glyph name="threesuperior" format="2">
  <advance width="786"/>
  <unicode hex="00B3"/>
  <outline>
    <contour>
      <point x="158" y="1175" type="line"/>
      <point x="150" y="1130" type="line" smooth="yes"/>
      <point x="131.135" y="1024.36"/>
      <point x="243.184" y="950"/>
      <point x="336" y="950" type="qcurve" smooth="yes"/>
      <point x="535" y="950" type="line" smooth="yes"/>
      <point x="638.38" y="950"/>
      <point x="774.117" y="1009.74"/>
      <point x="796" y="1135" type="qcurve" smooth="yes"/>
      <point x="804" y="1184" type="line" smooth="yes"/>
      <point x="819.847" y="1274.55"/>
      <point x="759.405" y="1352.21"/>
      <point x="693" y="1359" type="qcurve"/>
      <point x="782.797" y="1374.09"/>
      <point x="841.926" y="1453.82"/>
      <point x="854" y="1524" type="qcurve" smooth="yes"/>
      <point x="861" y="1568" type="line" smooth="yes"/>
      <point x="875.337" y="1649.5"/>
      <point x="794.472" y="1746"/>
      <point x="676" y="1746" type="qcurve" smooth="yes"/>
      <point x="481" y="1746" type="line" smooth="yes"/>
      <point x="431.5" y="1746"/>
      <point x="348.25" y="1736.38"/>
      <point x="283.75" y="1701.12"/>
      <point x="239.5" y="1632.25"/>
      <point x="229" y="1573" type="qcurve" smooth="yes"/>
      <point x="222" y="1533" type="line"/>
      <point x="489" y="1482" type="line"/>
      <point x="532" y="1725" type="line"/>
      <point x="532" y="1725"/>
      <point x="532" y="1725"/>
      <point x="532" y="1725" type="qcurve"/>
      <point x="563" y="1725" type="line" smooth="yes"/>
      <point x="584.883" y="1725"/>
      <point x="607.773" y="1695.88"/>
      <point x="604" y="1674" type="qcurve" smooth="yes"/>
      <point x="558" y="1410" type="line" smooth="yes"/>
      <point x="554.982" y="1392.64"/>
      <point x="531.601" y="1368"/>
      <point x="515" y="1368" type="qcurve" smooth="yes"/>
      <point x="473" y="1368" type="line"/>
      <point x="470" y="1348" type="line"/>
      <point x="513" y="1348" type="line" smooth="yes"/>
      <point x="534.883" y="1348"/>
      <point x="550.773" y="1313.15"/>
      <point x="547" y="1289" type="qcurve"/>
      <point x="499" y="1019" type="line" smooth="yes"/>
      <point x="495.227" y="997.117"/>
      <point x="458.393" y="971"/>
      <point x="435" y="971" type="qcurve" smooth="yes"/>
      <point x="398" y="971" type="line"/>
      <point x="398" y="971"/>
      <point x="398" y="971"/>
      <point x="398" y="971" type="qcurve"/>
      <point x="443" y="1226" type="line"/>
    </contour>
  </outline>
</glyph>
<glyph name="uni00B5" format="2">
  <advance width="1328"/>
  <unicode hex="00B5"/>
  <outline>
    <contour>
      <point x="-113" y="-428" type="line"/>
      <point x="418" y="-378" type="line"/>
      <point x="490" y="22" type="line"/>
      <point x="496.037" y="7.6626"/>
      <point x="515.153" y="-6"/>
      <point x="531" y="-6" type="qcurve"/>
      <point x="531" y="-6" type="line"/>
      <point x="546.092" y="-6"/>
      <point x="571.436" y="7.6626"/>
      <point x="582" y="22" type="qcurve"/>
      <point x="578" y="0" type="line"/>
      <point x="1128" y="0" type="line"/>
      <point x="1307" y="1024" type="line"/>
      <point x="757" y="1024" type="line"/>
      <point x="598" y="114" type="line" smooth="yes"/>
      <point x="590.454" y="70.9878"/>
      <point x="561.902" y="26"/>
      <point x="537" y="26" type="qcurve"/>
      <point x="537" y="26" type="line"/>
      <point x="512.098" y="26"/>
      <point x="498.454" y="70.9878"/>
      <point x="506" y="114" type="qcurve" smooth="yes"/>
      <point x="665" y="1024" type="line"/>
      <point x="141" y="1024" type="line"/>
    </contour>
  </outline>
</glyph>
<glyph name="guillemotright" format="2">
  <advance width="915"/>
  <unicode hex="00BB"/>
  <outline>
    <contour>
      <point x="535" y="894" type="line"/>
      <point x="504" y="894" type="line"/>
      <point x="564" y="512" type="line"/>
      <point x="371" y="130" type="line"/>
      <point x="402" y="130" type="line"/>
      <point x="853" y="512" type="line"/>
    </contour>
    <contour>
      <point x="98" y="894" type="line"/>
      <point x="67" y="894" type="line"/>
      <point x="127" y="512" type="line"/>
      <point x="-66" y="130" type="line"/>
      <point x="-35" y="130" type="line"/>
      <point x="416" y="512" type="line"/>
    </contour>
  </outline>
</glyph>
<glyph name="Acircumflex" format="2">
  <advance width="1234"/>
  <unicode hex="00C2"/>
  <anchor x="813" y="1856" name="top"/>
  <anchor x="432" y="-150" name="bottom"/>
  <anchor x="550" y="0" name="ogonek_in"/>
  <anchor x="1202" y="1576" name="topright"/>
  <outline>
    <contour>
      <point x="-130" y="0" type="line"/>
      <point x="-89" y="0" type="line"/>
      <point x="56" y="298" type="line"/>
      <point x="514" y="298" type="line"/>
      <point x="550" y="0" type="line"/>
      <point x="1124" y="0" type="line"/>
      <point x="927" y="1400" type="line"/>
      <point x="554" y="1400" type="line"/>
    </contour>
    <contour>
      <point x="74" y="334" type="line"/>
      <point x="422" y="1047" type="line"/>
      <point x="509" y="334" type="line"/>
    </contour>
    <contour>
      <point x="504" y="1476" type="line"/>
      <point x="548" y="1476" type="line"/>
      <point x="691" y="1700" type="line"/>
      <point x="760" y="1476" type="line"/>
      <point x="1185" y="1476" type="line"/>
      <point x="994" y="1776" type="line"/>
      <point x="702" y="1776" type="line"/>
    </contour>
  </outline>
</glyph>
<glyph name="Atilde" format="2">
  <advance width="1234"/>
  <unicode hex="00C3"/>
  <anchor x="835" y="1982" name="top"/>
  <anchor x="432" y="-150" name="bottom"/>
  <anchor x="550" y="0" name="ogonek_in"/>
  <outline>
    <contour>
      <point x="-130" y="0" type="line"/>
      <point x="-89" y="0" type="line"/>
      <point x="56" y="298" type="line"/>
      <point x="514" y="298" type="line"/>
      <point x="550" y="0" type="line"/>
      <point x="1124" y="0" type="line"/>
      <point x="927" y="1400" type="line"/>
      <point x="554" y="1400" type="line"/>
    </contour>
    <contour>
      <point x="74" y="334" type="line"/>
      <point x="422" y="1047" type="line"/>
      <point x="509" y="334" type="line"/>
    </contour>
    <contour>
      <point x="411" y="1505" type="qcurve"/>
      <point x="440" y="1500" type="line"/>
      <point x="449.055" y="1519.62"/>
      <point x="489.687" y="1571"/>
      <point x="541" y="1571" type="qcurve" smooth="yes"/>
      <point x="574.375" y="1571"/>
      <point x="652.969" y="1544.75"/>
      <point x="742.781" y="1513.25"/>
      <point x="843.5" y="1487"/>
      <point x="899" y="1487" type="qcurve" smooth="yes"/>
      <point x="943.25" y="1487"/>
      <point x="1016.5" y="1547.41"/>
      <point x="1078" y="1648.84"/>
      <point x="1129.5" y="1781.62"/>
      <point x="1152" y="1854" type="qcurve"/>
      <point x="1123" y="1859" type="line"/>
      <point x="1114.7" y="1839.38"/>
      <point x="1074.31" y="1788"/>
      <point x="1023" y="1788" type="qcurve" smooth="yes"/>
      <point x="989.625" y="1788"/>
      <point x="911.031" y="1814.25"/>
      <point x="821.219" y="1845.75"/>
      <point x="720.5" y="1872"/>
      <point x="665" y="1872" type="qcurve" smooth="yes"/>
      <point x="620.75" y="1872"/>
      <point x="548.031" y="1816.09"/>
      <point x="486.719" y="1717.66"/>
      <point x="434.625" y="1583.38"/>
    </contour>
  </outline>
  <guideline angle="90" x="227" y="0"/>
  <guideline angle="90" x="907" y="0"/>
  <guideline angle="90" x="257" y="0"/>
  <guideline angle="90" x="877" y="0"/>
</glyph>
<glyph name="Adieresis" format="2">
  <advance width="1234"/>
  <unicode hex="00C4"/>
  <anchor x="828" y="1938" name="top"/>
  <anchor x="432" y="-150" name="bottom"/>
  <anchor x="550" y="0" name="ogonek_in"/>
  <outline>
    <contour>
      <point x="-130" y="0" type="line"/>
      <point x="-89" y="0" type="line"/>
      <point x="56" y="298" type="line"/>
      <point x="514" y="298" type="line"/>
      <point x="550" y="0" type="line"/>
      <point x="1124" y="0" type="line"/>
      <point x="927" y="1400" type="line"/>
      <point x="554" y="1400" type="line"/>
    </contour>
    <contour>
      <point x="74" y="334" type="line"/>
      <point x="422" y="1047" type="line"/>
      <point x="509" y="334" type="line"/>
    </contour>
    <contour>
      <point x="394" y="1498" type="qcurve" smooth="yes"/>
      <point x="546" y="1498" type="line" smooth="yes"/>
      <point x="627.497" y="1498"/>
      <point x="660.663" y="1526.5"/>
      <point x="675" y="1608" type="qcurve" smooth="yes"/>
      <point x="700" y="1750" type="line" smooth="yes"/>
      <point x="714.337" y="1829.99"/>
      <point x="690.497" y="1858"/>
      <point x="609" y="1858" type="qcurve" smooth="yes"/>
      <point x="457" y="1858" type="line" smooth="yes"/>
      <point x="375.503" y="1858"/>
      <point x="342.337" y="1829.99"/>
      <point x="328" y="1750" type="qcurve" smooth="yes"/>
      <point x="303" y="1608" type="line" smooth="yes"/>
      <point x="288.663" y="1526.5"/>
      <point x="312.503" y="1498"/>
    </contour>
    <contour>
      <point x="954" y="1498" type="qcurve" smooth="yes"/>
      <point x="1106" y="1498" type="line" smooth="yes"/>
      <point x="1187.5" y="1498"/>
      <point x="1220.66" y="1526.5"/>
      <point x="1235" y="1608" type="qcurve" smooth="yes"/>
      <point x="1260" y="1750" type="line" smooth="yes"/>
      <point x="1274.34" y="1829.99"/>
      <point x="1250.5" y="1858"/>
      <point x="1169" y="1858" type="qcurve" smooth="yes"/>
      <point x="1017" y="1858" type="line" smooth="yes"/>
      <point x="935.503" y="1858"/>
      <point x="902.337" y="1829.99"/>
      <point x="888" y="1750" type="qcurve" smooth="yes"/>
      <point x="863" y="1608" type="line" smooth="yes"/>
      <point x="848.663" y="1526.5"/>
      <point x="872.503" y="1498"/>
    </contour>
  </outline>
</glyph>
<glyph name="AE" format="2">
  <advance width="1916"/>
  <unicode hex="00C6"/>
  <anchor x="1431" y="1550" name="top"/>
  <anchor x="675" y="-150" name="bottom"/>
  <outline>
    <contour>
      <point x="-130" y="0" type="line"/>
      <point x="-85" y="0" type="line"/>
      <point x="112" y="298" type="line"/>
      <point x="828" y="298" type="line"/>
      <point x="776" y="0" type="line"/>
      <point x="1786" y="0" type="line"/>
      <point x="1792" y="36" type="line"/>
      <point x="1354" y="36" type="line"/>
      <point x="1470" y="700" type="line"/>
      <point x="1854" y="700" type="line"/>
      <point x="1860" y="736" type="line"/>
      <point x="1476" y="736" type="line"/>
      <point x="1586" y="1364" type="line"/>
      <point x="2010" y="1364" type="line"/>
      <point x="2016" y="1400" type="line"/>
      <point x="791" y="1400" type="line"/>
    </contour>
    <contour>
      <point x="136" y="334" type="line"/>
      <point x="817" y="1364" type="line"/>
      <point x="1014" y="1364" type="line"/>
      <point x="834" y="334" type="line"/>
    </contour>
  </outline>
</glyph>
<glyph name="Ccedilla" format="2">
  <advance width="1337"/>
  <unicode hex="00C7"/>
  <anchor x="844" y="1550" name="top"/>
  <anchor x="547" y="-150" name="bottom"/>
  <outline>
    <contour>
      <point x="142" y="1076" type="qcurve" smooth="yes"/>
      <point x="13" y="336" type="line" smooth="yes"/>
      <point x="-23.2208" y="129.24"/>
      <point x="164.786" y="-10"/>
      <point x="364" y="-10" type="qcurve" smooth="yes"/>
      <point x="782" y="-10" type="line" smooth="yes"/>
      <point x="981.214" y="-10"/>
      <point x="1220.02" y="127.73"/>
      <point x="1257" y="336" type="qcurve" smooth="yes"/>
      <point x="1291" y="530" type="line"/>
      <point x="738" y="640" type="line"/>
      <point x="631" y="26" type="line"/>
      <point x="631" y="26"/>
      <point x="631" y="26"/>
      <point x="631" y="26" type="qcurve"/>
      <point x="531" y="26" type="line"/>
      <point x="531" y="26"/>
      <point x="531" y="26"/>
      <point x="531" y="26" type="qcurve"/>
      <point x="766" y="1374" type="line"/>
      <point x="766" y="1374"/>
      <point x="766" y="1374"/>
      <point x="766" y="1374" type="qcurve"/>
      <point x="860" y="1374" type="line"/>
      <point x="860" y="1374"/>
      <point x="860" y="1374"/>
      <point x="860" y="1374" type="qcurve"/>
      <point x="757" y="786" type="line"/>
      <point x="1347" y="890" type="line"/>
      <point x="1380" y="1076" type="line" smooth="yes"/>
      <point x="1415.25" y="1277"/>
      <point x="1213" y="1410"/>
      <point x="1024" y="1410" type="qcurve" smooth="yes"/>
      <point x="612" y="1410" type="line" smooth="yes"/>
      <point x="423" y="1410"/>
      <point x="177.25" y="1277"/>
    </contour>
    <contour>
      <point x="486" y="-438" type="qcurve" smooth="yes"/>
      <point x="526.125" y="-438"/>
      <point x="617.188" y="-420.219"/>
      <point x="697.812" y="-379.531"/>
      <point x="757.375" y="-313.375"/>
      <point x="766" y="-265" type="qcurve" smooth="yes"/>
      <point x="773.875" y="-220.75"/>
      <point x="756.844" y="-151.938"/>
      <point x="709.406" y="-103.562"/>
      <point x="632.75" y="-76"/>
      <point x="581" y="-73" type="qcurve"/>
      <point x="610" y="0" type="line"/>
      <point x="491" y="0" type="line"/>
      <point x="450" y="-103" type="line"/>
      <point x="457.546" y="-100.736"/>
      <point x="469.288" y="-99"/>
      <point x="473.25" y="-99" type="qcurve" smooth="yes"/>
      <point x="500.982" y="-99"/>
      <point x="521.828" y="-171.804"/>
      <point x="509" y="-245" type="qcurve" smooth="yes"/>
      <point x="496.172" y="-318.951"/>
      <point x="451.166" y="-403"/>
      <point x="424" y="-403" type="qcurve" smooth="yes"/>
      <point x="409.663" y="-403"/>
      <point x="374.564" y="-380.337"/>
      <point x="364" y="-366" type="qcurve"/>
      <point x="336" y="-387" type="line"/>
      <point x="360.147" y="-413.411"/>
      <point x="422.614" y="-438"/>
    </contour>
  </outline>
</glyph>
<glyph name="Ecircumflex" format="2">
  <advance width="1107"/>
  <unicode hex="00CA"/>
  <anchor x="798" y="1856" name="top"/>
  <anchor x="447" y="-150" name="bottom"/>
  <anchor x="599" y="0" name="ogonek"/>
  <anchor x="1187" y="1576" name="topright"/>
  <outline>
    <contour>
      <point x="-29" y="0" type="line"/>
      <point x="981" y="0" type="line"/>
      <point x="987" y="36" type="line"/>
      <point x="549" y="36" type="line"/>
      <point x="665" y="700" type="line"/>
      <point x="1049" y="700" type="line"/>
      <point x="1055" y="736" type="line"/>
      <point x="671" y="736" type="line"/>
      <point x="781" y="1364" type="line"/>
      <point x="1205" y="1364" type="line"/>
      <point x="1211" y="1400" type="line"/>
      <point x="215" y="1400" type="line"/>
    </contour>
    <contour>
      <point x="489" y="1476" type="line"/>
      <point x="533" y="1476" type="line"/>
      <point x="676" y="1700" type="line"/>
      <point x="745" y="1476" type="line"/>
      <point x="1170" y="1476" type="line"/>
      <point x="979" y="1776" type="line"/>
      <point x="687" y="1776" type="line"/>
    </contour>
  </outline>
  <guideline angle="90" x="-127" y="0"/>
</glyph>
<glyph name="Iacute" format="2">
  <advance width="748"/>
  <unicode hex="00CD"/>
  <anchor x="525" y="1550" name="top"/>
  <anchor x="228" y="-150" name="bottom"/>
  <anchor x="9" y="0" name="ogonek"/>
  <anchor x="454" y="1500" name="topright"/>
  <outline>
    <contour>
      <point x="-29" y="0" type="line"/>
      <point x="543" y="0" type="line"/>
      <point x="787" y="1400" type="line"/>
      <point x="215" y="1400" type="line"/>
    </contour>
    <contour>
      <point x="410" y="1500" type="line"/>
      <point x="454" y="1500" type="line"/>
      <point x="1116" y="1800" type="line"/>
      <point x="485" y="1800" type="line"/>
    </contour>
  </outline>
</glyph>
<glyph name="multiply" format="2">
  <advance width="626"/>
  <unicode hex="00D7"/>
  <outline>
    <contour>
      <point x="70" y="297" type="line"/>
      <point x="294" y="555" type="line"/>
      <point x="428" y="297" type="line"/>
      <point x="460" y="317" type="line"/>
      <point x="320" y="586" type="line"/>
      <point x="554" y="854" type="line"/>
      <point x="525" y="878" type="line"/>
      <point x="301" y="620" type="line"/>
      <point x="167" y="878" type="line"/>
      <point x="135" y="858" type="line"/>
      <point x="275" y="589" type="line"/>
      <point x="42" y="320" type="line"/>
    </contour>
  </outline>
  <guideline angle="31.4328" color="1,0,0,1" x="25.631" y="140"/>
  <guideline angle="322.193" color="1,0,0,1" x="155.631" y="1003"/>
</glyph>
<glyph name="Oslash" format="2">
  <advance width="1452"/>
  <unicode hex="00D8"/>
  <anchor x="884" y="1580" name="top"/>
  <outline>
    <contour>
      <point x="174" y="1076" type="qcurve" smooth="yes"/>
      <point x="45" y="336" type="line" smooth="yes"/>
      <point x="8.7792" y="129.24"/>
      <point x="196.786" y="-10"/>
      <point x="396" y="-10" type="qcurve" smooth="yes"/>
      <point x="814" y="-10" type="line" smooth="yes"/>
      <point x="1013.21" y="-10"/>
      <point x="1252.02" y="127.73"/>
      <point x="1289" y="336" type="qcurve" smooth="yes"/>
      <point x="1418" y="1076" type="line" smooth="yes"/>
      <point x="1453.25" y="1277"/>
      <point x="1251" y="1410"/>
      <point x="1062" y="1410" type="qcurve" smooth="yes"/>
      <point x="644" y="1410" type="line" smooth="yes"/>
      <point x="455" y="1410"/>
      <point x="209.25" y="1277"/>
    </contour>
    <contour>
      <point x="798" y="1374" type="line"/>
      <point x="798" y="1374"/>
      <point x="798" y="1374"/>
      <point x="798" y="1374" type="qcurve"/>
      <point x="898" y="1374" type="line"/>
      <point x="898" y="1374"/>
      <point x="898" y="1374"/>
      <point x="898" y="1374" type="qcurve"/>
      <point x="663" y="26" type="line"/>
      <point x="663" y="26"/>
      <point x="663" y="26"/>
      <point x="663" y="26" type="qcurve"/>
      <point x="563" y="26" type="line"/>
      <point x="563" y="26"/>
      <point x="563" y="26"/>
      <point x="563" y="26" type="qcurve"/>
    </contour>
    <contour>
      <point x="-22" y="-30" type="line"/>
      <point x="176" y="159" type="line"/>
      <point x="423" y="313" type="line"/>
      <point x="1080" y="1047" type="line"/>
      <point x="1322" y="1227" type="line"/>
      <point x="1507" y="1403" type="line"/>
      <point x="1483" y="1430" type="line"/>
      <point x="1298" y="1253" type="line"/>
      <point x="1053" y="1071" type="line"/>
      <point x="399" y="341" type="line"/>
      <point x="159" y="192" type="line"/>
      <point x="-48" y="-4" type="line"/>
    </contour>
  </outline>
  <guideline angle="0" x="0" y="-30"/>
  <guideline angle="0" x="0" y="-30"/>
  <guideline angle="0" x="0" y="1430"/>
</glyph>
<glyph name="eth" format="2">
  <advance width="1354"/>
  <unicode hex="00F0"/>
  <outline>
    <contour>
      <point x="251" y="-6" type="qcurve" smooth="yes"/>
      <point x="787" y="-6" type="line" smooth="yes"/>
      <point x="949.994" y="-6"/>
      <point x="1114.85" y="119.154"/>
      <point x="1139" y="258" type="qcurve" smooth="yes"/>
      <point x="1200" y="610" type="line" smooth="yes"/>
      <point x="1242.26" y="852.981"/>
      <point x="1190.08" y="1189.87"/>
      <point x="1095" y="1294" type="qcurve"/>
      <point x="1409" y="1358" type="line"/>
      <point x="1408" y="1390" type="line"/>
      <point x="1068" y="1321" type="line"/>
      <point x="1008.39" y="1375.33"/>
      <point x="847.38" y="1442.91"/>
      <point x="744" y="1458" type="qcurve"/>
      <point x="366" y="1328" type="line"/>
      <point x="445.988" y="1311.4"/>
      <point x="562.742" y="1260.2"/>
      <point x="605" y="1227" type="qcurve"/>
      <point x="312" y="1168" type="line"/>
      <point x="313" y="1136" type="line"/>
      <point x="634" y="1201" type="line"/>
      <point x="671.73" y="1163.27"/>
      <point x="712.699" y="1076.79"/>
      <point x="721" y="1030" type="qcurve"/>
      <point x="432" y="1030" type="line" smooth="yes"/>
      <point x="272.025" y="1030"/>
      <point x="103.638" y="907.3"/>
      <point x="81" y="776" type="qcurve" smooth="yes"/>
      <point x="-9" y="258" type="line" smooth="yes"/>
      <point x="-33.1472" y="119.154"/>
      <point x="89.5156" y="-6"/>
    </contour>
    <contour>
      <point x="726" y="998" type="line"/>
      <point x="729.773" y="960.27"/>
      <point x="724.791" y="883.73"/>
      <point x="718" y="846" type="qcurve" smooth="yes"/>
      <point x="575" y="26" type="line"/>
      <point x="575" y="26"/>
      <point x="575" y="26"/>
      <point x="575" y="26" type="qcurve"/>
      <point x="475" y="26" type="line"/>
      <point x="475" y="26"/>
      <point x="475" y="26"/>
      <point x="475" y="26" type="qcurve"/>
      <point x="644" y="998" type="line"/>
      <point x="644" y="998"/>
      <point x="644" y="998"/>
      <point x="644" y="998" type="qcurve"/>
    </contour>
  </outline>
</glyph>
<glyph name="yacute" format="2">
  <advance width="1060"/>
  <unicode hex="00FD"/>
  <anchor x="617" y="1174" name="top"/>
  <anchor x="735" y="-110" name="bottom"/>
  <outline>
    <contour>
      <point x="-179" y="-428" type="line"/>
      <point x="229" y="-428" type="line" smooth="yes"/>
      <point x="261.625" y="-428"/>
      <point x="305.469" y="-413.469"/>
      <point x="339.781" y="-381.781"/>
      <point x="370.5" y="-331.625"/>
      <point x="390" y="-296" type="qcurve" smooth="yes"/>
      <point x="1121" y="1024" type="line"/>
      <point x="1084" y="1024" type="line"/>
      <point x="766" y="451" type="line"/>
      <point x="597" y="1024" type="line"/>
      <point x="61" y="1024" type="line"/>
      <point x="424" y="-167" type="line"/>
      <point x="348" y="-304" type="line" smooth="yes"/>
      <point x="320.08" y="-354.558"/>
      <point x="278.54" y="-396"/>
      <point x="231" y="-396" type="qcurve" smooth="yes"/>
      <point x="-180" y="-396" type="line"/>
    </contour>
    <contour>
      <point x="482" y="1100" type="line"/>
      <point x="522" y="1100" type="line"/>
      <point x="1232" y="1448" type="line"/>
      <point x="637" y="1448" type="line"/>
    </contour>
  </outline>
</glyph>
<glyph name="thorn" format="2">
  <advance width="1295"/>
  <unicode hex="00FE"/>
  <outline>
    <contour>
      <point x="-112" y="-428" type="line"/>
      <point x="412" y="-428" type="line"/>
      <point x="490" y="20" type="line"/>
      <point x="494.528" y="7.9264"/>
      <point x="530.307" y="-4"/>
      <point x="562" y="-4" type="qcurve" smooth="yes"/>
      <point x="804" y="-4" type="line" smooth="yes"/>
      <point x="963.975" y="-4"/>
      <point x="1131.61" y="118.7"/>
      <point x="1155" y="250" type="qcurve" smooth="yes"/>
      <point x="1244" y="760" type="line" smooth="yes"/>
      <point x="1268.15" y="898.846"/>
      <point x="1145.48" y="1024"/>
      <point x="984" y="1024" type="qcurve" smooth="yes"/>
      <point x="742" y="1024" type="line" smooth="yes"/>
      <point x="714.834" y="1024"/>
      <point x="673.828" y="1009.58"/>
      <point x="661" y="996" type="qcurve"/>
      <point x="744" y="1472" type="line"/>
      <point x="220" y="1472" type="line"/>
    </contour>
    <contour>
      <point x="492" y="28" type="line"/>
      <point x="660" y="992" type="line"/>
      <point x="760" y="992" type="line"/>
      <point x="760" y="992"/>
      <point x="760" y="992"/>
      <point x="760" y="992" type="qcurve"/>
      <point x="592" y="28" type="line"/>
      <point x="592" y="28"/>
      <point x="592" y="28"/>
      <point x="592" y="28" type="qcurve"/>
    </contour>
  </outline>
</glyph>
<glyph name="Amacron" format="2">
  <advance width="1234"/>
  <unicode hex="0100"/>
  <anchor x="786" y="1704" name="top"/>
  <anchor x="432" y="-150" name="bottom"/>
  <anchor x="550" y="0" name="ogonek_in"/>
  <outline>
    <contour>
      <point x="-130" y="0" type="line"/>
      <point x="-89" y="0" type="line"/>
      <point x="56" y="298" type="line"/>
      <point x="514" y="298" type="line"/>
      <point x="550" y="0" type="line"/>
      <point x="1124" y="0" type="line"/>
      <point x="927" y="1400" type="line"/>
      <point x="554" y="1400" type="line"/>
    </contour>
    <contour>
      <point x="74" y="334" type="line"/>
      <point x="422" y="1047" type="line"/>
      <point x="509" y="334" type="line"/>
    </contour>
    <contour>
      <point x="472" y="1568" type="line"/>
      <point x="1052" y="1568" type="line"/>
      <point x="1058" y="1604" type="line"/>
      <point x="478" y="1604" type="line"/>
    </contour>
  </outline>
</glyph>
<glyph name="aogonek" format="2">
  <advance width="1292"/>
  <unicode hex="0105"/>
  <anchor x="720" y="1174" name="top"/>
  <anchor x="490" y="-162" name="bottom"/>
  <anchor x="597" y="0" name="ogonek"/>
  <outline>
    <contour>
      <point x="228" y="0" type="qcurve" smooth="yes"/>
      <point x="484" y="0" type="line" smooth="yes"/>
      <point x="511.166" y="0"/>
      <point x="552.172" y="14.4172"/>
      <point x="565" y="28" type="qcurve"/>
      <point x="560" y="0" type="line"/>
      <point x="1084" y="0" type="line"/>
      <point x="1216" y="754" type="line" smooth="yes"/>
      <point x="1245.43" y="923.03"/>
      <point x="1100.81" y="1030"/>
      <point x="968" y="1030" type="qcurve" smooth="yes"/>
      <point x="442" y="1030" type="line" smooth="yes"/>
      <point x="309.19" y="1030"/>
      <point x="126.411" y="919.411"/>
      <point x="100" y="770" type="qcurve"/>
      <point x="98" y="756" type="line"/>
      <point x="586" y="664" type="line"/>
      <point x="644" y="998" type="line"/>
      <point x="644" y="998"/>
      <point x="644" y="998"/>
      <point x="644" y="998" type="qcurve"/>
      <point x="734" y="998" type="line"/>
      <point x="734" y="998"/>
      <point x="734" y="998"/>
      <point x="734" y="998" type="qcurve"/>
      <point x="659" y="566" type="line"/>
      <point x="327" y="566" type="line" smooth="yes"/>
      <point x="204" y="566"/>
      <point x="13.5" y="467.5"/>
      <point x="-12" y="322" type="qcurve" smooth="yes"/>
      <point x="-24" y="254" type="line" smooth="yes"/>
      <point x="-49.6564" y="104.589"/>
      <point x="104.246" y="0"/>
    </contour>
    <contour>
      <point x="462" y="32" type="qcurve"/>
      <point x="549" y="534" type="line"/>
      <point x="549" y="534"/>
      <point x="549" y="534"/>
      <point x="549" y="534" type="qcurve"/>
      <point x="653" y="534" type="line"/>
      <point x="566" y="32" type="line"/>
      <point x="462" y="32" type="line"/>
      <point x="462" y="32"/>
      <point x="462" y="32"/>
    </contour>
    <contour>
      <point x="650.837" y="-425" type="qcurve" smooth="yes"/>
      <point x="698.406" y="-425"/>
      <point x="785.742" y="-404.129"/>
      <point x="828" y="-383" type="qcurve"/>
      <point x="922" y="-160" type="line"/>
      <point x="889.552" y="-173.583"/>
      <point x="784.949" y="-190"/>
      <point x="738.667" y="-190" type="qcurve" smooth="yes"/>
      <point x="646.102" y="-190"/>
      <point x="553.002" y="-124.551"/>
      <point x="562.233" y="-70.8974" type="qcurve" smooth="yes"/>
      <point x="565.076" y="-54.3736"/>
      <point x="581.908" y="-19.6196"/>
      <point x="597" y="0" type="qcurve"/>
      <point x="560" y="0" type="line"/>
      <point x="524.534" y="-56.595"/>
      <point x="437.466" y="-192.405"/>
      <point x="402" y="-249" type="qcurve"/>
      <point x="389.926" y="-317.669"/>
      <point x="542.959" y="-425"/>
    </contour>
  </outline>
  <guideline angle="260.1" color="1,0,0,1" x="576" y="-0"/>
</glyph>
<glyph name="Cacute" format="2">
  <advance width="1337"/>
  <unicode hex="0106"/>
  <anchor x="844" y="1550" name="top"/>
  <anchor x="547" y="-150" name="bottom"/>
  <anchor x="773" y="1500" name="topright"/>
  <outline>
    <contour>
      <point x="142" y="1076" type="qcurve" smooth="yes"/>
      <point x="13" y="336" type="line" smooth="yes"/>
      <point x="-23.2208" y="129.24"/>
      <point x="164.786" y="-10"/>
      <point x="364" y="-10" type="qcurve" smooth="yes"/>
      <point x="782" y="-10" type="line" smooth="yes"/>
      <point x="981.214" y="-10"/>
      <point x="1220.02" y="127.73"/>
      <point x="1257" y="336" type="qcurve" smooth="yes"/>
      <point x="1291" y="530" type="line"/>
      <point x="738" y="640" type="line"/>
      <point x="631" y="26" type="line"/>
      <point x="631" y="26"/>
      <point x="631" y="26"/>
      <point x="631" y="26" type="qcurve"/>
      <point x="531" y="26" type="line"/>
      <point x="531" y="26"/>
      <point x="531" y="26"/>
      <point x="531" y="26" type="qcurve"/>
      <point x="766" y="1374" type="line"/>
      <point x="766" y="1374"/>
      <point x="766" y="1374"/>
      <point x="766" y="1374" type="qcurve"/>
      <point x="860" y="1374" type="line"/>
      <point x="860" y="1374"/>
      <point x="860" y="1374"/>
      <point x="860" y="1374" type="qcurve"/>
      <point x="757" y="786" type="line"/>
      <point x="1347" y="890" type="line"/>
      <point x="1380" y="1076" type="line" smooth="yes"/>
      <point x="1415.25" y="1277"/>
      <point x="1213" y="1410"/>
      <point x="1024" y="1410" type="qcurve" smooth="yes"/>
      <point x="612" y="1410" type="line" smooth="yes"/>
      <point x="423" y="1410"/>
      <point x="177.25" y="1277"/>
    </contour>
    <contour>
      <point x="729" y="1500" type="line"/>
      <point x="773" y="1500" type="line"/>
      <point x="1435" y="1800" type="line"/>
      <point x="804" y="1800" type="line"/>
    </contour>
  </outline>
</glyph>
<glyph name="Ccaron" format="2">
  <advance width="1337"/>
  <unicode hex="010C"/>
  <anchor x="902" y="1880" name="top"/>
  <anchor x="547" y="-150" name="bottom"/>
  <anchor x="477" y="1700" name="topright"/>
  <outline>
    <contour>
      <point x="142" y="1076" type="qcurve" smooth="yes"/>
      <point x="13" y="336" type="line" smooth="yes"/>
      <point x="-23.2208" y="129.24"/>
      <point x="164.786" y="-10"/>
      <point x="364" y="-10" type="qcurve" smooth="yes"/>
      <point x="782" y="-10" type="line" smooth="yes"/>
      <point x="981.214" y="-10"/>
      <point x="1220.02" y="127.73"/>
      <point x="1257" y="336" type="qcurve" smooth="yes"/>
      <point x="1291" y="530" type="line"/>
      <point x="738" y="640" type="line"/>
      <point x="631" y="26" type="line"/>
      <point x="631" y="26"/>
      <point x="631" y="26"/>
      <point x="631" y="26" type="qcurve"/>
      <point x="531" y="26" type="line"/>
      <point x="531" y="26"/>
      <point x="531" y="26"/>
      <point x="531" y="26" type="qcurve"/>
      <point x="766" y="1374" type="line"/>
      <point x="766" y="1374"/>
      <point x="766" y="1374"/>
      <point x="766" y="1374" type="qcurve"/>
      <point x="860" y="1374" type="line"/>
      <point x="860" y="1374"/>
      <point x="860" y="1374"/>
      <point x="860" y="1374" type="qcurve"/>
      <point x="757" y="786" type="line"/>
      <point x="1347" y="890" type="line"/>
      <point x="1380" y="1076" type="line" smooth="yes"/>
      <point x="1415.25" y="1277"/>
      <point x="1213" y="1410"/>
      <point x="1024" y="1410" type="qcurve" smooth="yes"/>
      <point x="612" y="1410" type="line" smooth="yes"/>
      <point x="423" y="1410"/>
      <point x="177.25" y="1277"/>
    </contour>
    <contour>
      <point x="1175" y="1800" type="line"/>
      <point x="1131" y="1800" type="line"/>
      <point x="988" y="1576" type="line"/>
      <point x="919" y="1800" type="line"/>
      <point x="494" y="1800" type="line"/>
      <point x="685" y="1500" type="line"/>
      <point x="977" y="1500" type="line"/>
    </contour>
  </outline>
</glyph>
<glyph name="Dcaron" format="2">
  <advance width="1372"/>
  <unicode hex="010E"/>
  <anchor x="839" y="1880" name="top"/>
  <anchor x="482" y="-150" name="bottom"/>
  <anchor x="414" y="1700" name="topright"/>
  <outline>
    <contour>
      <point x="549" y="36" type="line"/>
      <point x="781" y="1364" type="line"/>
      <point x="791" y="1364" type="line" smooth="yes"/>
      <point x="816.125" y="1364"/>
      <point x="844.5" y="1295.66"/>
      <point x="846" y="1142.09"/>
      <point x="818.125" y="894.875"/>
      <point x="787" y="716" type="qcurve" smooth="yes"/>
      <point x="755.125" y="534.125"/>
      <point x="695.875" y="276.156"/>
      <point x="639.625" y="112.094"/>
      <point x="585.625" y="36"/>
      <point x="559" y="36" type="qcurve" smooth="yes"/>
    </contour>
    <contour>
      <point x="-29" y="0" type="line"/>
      <point x="558" y="0" type="line" smooth="yes"/>
      <point x="708" y="0"/>
      <point x="966.031" y="61.9375"/>
      <point x="1168.72" y="211.562"/>
      <point x="1309.38" y="461.75"/>
      <point x="1342" y="650" type="qcurve" smooth="yes"/>
      <point x="1373.12" y="827"/>
      <point x="1336.75" y="1105.62"/>
      <point x="1201.75" y="1298.38"/>
      <point x="968.125" y="1400"/>
      <point x="802" y="1400" type="qcurve" smooth="yes"/>
      <point x="215" y="1400" type="line"/>
    </contour>
    <contour>
      <point x="1112" y="1800" type="line"/>
      <point x="1068" y="1800" type="line"/>
      <point x="925" y="1576" type="line"/>
      <point x="856" y="1800" type="line"/>
      <point x="431" y="1800" type="line"/>
      <point x="622" y="1500" type="line"/>
      <point x="914" y="1500" type="line"/>
    </contour>
  </outline>
</glyph>
<glyph name="Emacron" format="2">
  <advance width="1108"/>
  <unicode hex="0112"/>
  <anchor x="771" y="1704" name="top"/>
  <anchor x="447" y="-150" name="bottom"/>
  <anchor x="599" y="0" name="ogonek"/>
  <outline>
    <contour>
      <point x="-29" y="0" type="line"/>
      <point x="981" y="0" type="line"/>
      <point x="987" y="36" type="line"/>
      <point x="549" y="36" type="line"/>
      <point x="665" y="700" type="line"/>
      <point x="1049" y="700" type="line"/>
      <point x="1055" y="736" type="line"/>
      <point x="671" y="736" type="line"/>
      <point x="781" y="1364" type="line"/>
      <point x="1205" y="1364" type="line"/>
      <point x="1211" y="1400" type="line"/>
      <point x="215" y="1400" type="line"/>
    </contour>
    <contour>
      <point x="457" y="1568" type="line"/>
      <point x="1037" y="1568" type="line"/>
      <point x="1043" y="1604" type="line"/>
      <point x="463" y="1604" type="line"/>
    </contour>
  </outline>
  <guideline angle="90" x="-127" y="0"/>
</glyph>
<glyph name="Eogonek" format="2">
  <advance width="1107"/>
  <unicode hex="0118"/>
  <anchor x="744" y="1550" name="top"/>
  <anchor x="447" y="-150" name="bottom"/>
  <anchor x="599" y="0" name="ogonek"/>
  <outline>
    <contour>
      <point x="-29" y="0" type="line"/>
      <point x="981" y="0" type="line"/>
      <point x="987" y="36" type="line"/>
      <point x="549" y="36" type="line"/>
      <point x="665" y="700" type="line"/>
      <point x="1049" y="700" type="line"/>
      <point x="1055" y="736" type="line"/>
      <point x="671" y="736" type="line"/>
      <point x="781" y="1364" type="line"/>
      <point x="1205" y="1364" type="line"/>
      <point x="1211" y="1400" type="line"/>
      <point x="215" y="1400" type="line"/>
    </contour>
    <contour>
      <point x="659.37" y="-438" type="qcurve" smooth="yes"/>
      <point x="713.236" y="-438"/>
      <point x="808.215" y="-415.638"/>
      <point x="855" y="-393" type="qcurve"/>
      <point x="950" y="-160" type="line"/>
      <point x="917.552" y="-173.583"/>
      <point x="815.178" y="-190"/>
      <point x="766.526" y="-190" type="qcurve" smooth="yes"/>
      <point x="684.632" y="-190"/>
      <point x="557.003" y="-133.782"/>
      <point x="569.313" y="-65.4614" type="qcurve" smooth="yes"/>
      <point x="572.095" y="-50.0212"/>
      <point x="586.926" y="-15.8466"/>
      <point x="599" y="0" type="qcurve"/>
      <point x="558" y="0" type="line"/>
      <point x="522.534" y="-56.595"/>
      <point x="435.466" y="-192.405"/>
      <point x="400" y="-249" type="qcurve"/>
      <point x="385.663" y="-328.988"/>
      <point x="540.433" y="-438"/>
    </contour>
  </outline>
  <guideline angle="90" x="-127" y="0"/>
</glyph>
<glyph name="eogonek" format="2">
  <advance width="1275"/>
  <unicode hex="0119"/>
  <anchor x="722" y="1174" name="top"/>
  <anchor x="491" y="-150" name="bottom"/>
  <anchor x="673" y="0" name="ogonek"/>
  <outline>
    <contour>
      <point x="-1" y="304" type="line" smooth="yes"/>
      <point x="-29.6748" y="141.006"/>
      <point x="125.675" y="-6"/>
      <point x="343" y="-6" type="qcurve" smooth="yes"/>
      <point x="675" y="-6" type="line" smooth="yes"/>
      <point x="892.325" y="-6"/>
      <point x="1112.59" y="105.571"/>
      <point x="1139" y="258" type="qcurve" smooth="yes"/>
      <point x="1141" y="270" type="line"/>
      <point x="634" y="368" type="line"/>
      <point x="575" y="26" type="line"/>
      <point x="575" y="26"/>
      <point x="575" y="26"/>
      <point x="575" y="26" type="qcurve"/>
      <point x="475" y="26" type="line"/>
      <point x="475" y="26"/>
      <point x="475" y="26"/>
      <point x="475" y="26" type="qcurve"/>
      <point x="560" y="516" type="line"/>
      <point x="1184" y="516" type="line"/>
      <point x="1221" y="730" type="line" smooth="yes"/>
      <point x="1248.92" y="888.466"/>
      <point x="1073.32" y="1030"/>
      <point x="856" y="1030" type="qcurve" smooth="yes"/>
      <point x="524" y="1030" type="line" smooth="yes"/>
      <point x="308.184" y="1030"/>
      <point x="100.92" y="886.957"/>
      <point x="73" y="730" type="qcurve" smooth="yes"/>
    </contour>
    <contour>
      <point x="566" y="548" type="line"/>
      <point x="644" y="998" type="line"/>
      <point x="644" y="998"/>
      <point x="644" y="998"/>
      <point x="644" y="998" type="qcurve"/>
      <point x="744" y="998" type="line"/>
      <point x="744" y="998"/>
      <point x="744" y="998"/>
      <point x="744" y="998" type="qcurve"/>
      <point x="666" y="548" type="line"/>
    </contour>
    <contour>
      <point x="726.837" y="-425" type="qcurve" smooth="yes"/>
      <point x="774.406" y="-425"/>
      <point x="861.742" y="-404.129"/>
      <point x="904" y="-383" type="qcurve"/>
      <point x="998" y="-160" type="line"/>
      <point x="965.552" y="-173.583"/>
      <point x="860.949" y="-190"/>
      <point x="814.667" y="-190" type="qcurve" smooth="yes"/>
      <point x="722.102" y="-190"/>
      <point x="629.002" y="-124.551"/>
      <point x="638.233" y="-70.8974" type="qcurve" smooth="yes"/>
      <point x="641.076" y="-54.3736"/>
      <point x="657.908" y="-19.6196"/>
      <point x="673" y="0" type="qcurve"/>
      <point x="636" y="0" type="line"/>
      <point x="600.534" y="-56.595"/>
      <point x="513.466" y="-192.405"/>
      <point x="478" y="-249" type="qcurve"/>
      <point x="465.926" y="-317.669"/>
      <point x="618.959" y="-425"/>
    </contour>
  </outline>
  <guideline angle="0" color="1,0,0,1" x="0" y="-1030"/>
</glyph>
<glyph name="gbreve" format="2">
  <advance width="1283"/>
  <unicode hex="011F"/>
  <anchor x="641.5" y="1553" name="top"/>
  <anchor x="641.5" y="-554" name="bottom"/>
  <outline>
    <contour>
      <point x="476" y="32" type="qcurve"/>
      <point x="643" y="992" type="line"/>
      <point x="643" y="992"/>
      <point x="643" y="992"/>
      <point x="643" y="992" type="qcurve"/>
      <point x="743" y="992" type="line"/>
      <point x="576" y="32" type="line"/>
      <point x="476" y="32" type="line"/>
      <point x="476" y="32"/>
      <point x="476" y="32"/>
    </contour>
    <contour>
      <point x="-45" y="-404" type="line"/>
      <point x="763" y="-404" type="line" smooth="yes"/>
      <point x="821.5" y="-404"/>
      <point x="925.625" y="-357.25"/>
      <point x="1008.88" y="-271.75"/>
      <point x="1067.25" y="-151.5"/>
      <point x="1080" y="-78" type="qcurve" smooth="yes"/>
      <point x="1273" y="1024" type="line"/>
      <point x="749" y="1024" type="line"/>
      <point x="745" y="1000" type="line"/>
      <point x="740.472" y="1012.07"/>
      <point x="704.693" y="1024"/>
      <point x="673" y="1024" type="qcurve" smooth="yes"/>
      <point x="431" y="1024" type="line" smooth="yes"/>
      <point x="271.025" y="1024"/>
      <point x="103.393" y="901.3"/>
      <point x="80" y="770" type="qcurve" smooth="yes"/>
      <point x="-8" y="264" type="line" smooth="yes"/>
      <point x="-32.1472" y="125.154"/>
      <point x="90.5156" y="0"/>
      <point x="252" y="0" type="qcurve" smooth="yes"/>
      <point x="494" y="0" type="line" smooth="yes"/>
      <point x="521.166" y="0"/>
      <point x="562.172" y="14.4172"/>
      <point x="575" y="28" type="qcurve"/>
      <point x="505" y="-372" type="line"/>
      <point x="505" y="-372"/>
      <point x="505" y="-372"/>
      <point x="505" y="-372" type="qcurve"/>
      <point x="-49" y="-372" type="line"/>
    </contour>
    <contour>
      <point x="632" y="1103" type="qcurve" smooth="yes"/>
      <point x="747.125" y="1103"/>
      <point x="891.594" y="1129.69"/>
      <point x="980.656" y="1205.81"/>
      <point x="1029.5" y="1342.75"/>
      <point x="1049" y="1453" type="qcurve"/>
      <point x="794" y="1453" type="line"/>
      <point x="774.125" y="1341.62"/>
      <point x="743.094" y="1214.41"/>
      <point x="709.156" y="1150.84"/>
      <point x="666.5" y="1135"/>
      <point x="635" y="1135" type="qcurve" smooth="yes"/>
      <point x="602.375" y="1135"/>
      <point x="564" y="1150.84"/>
      <point x="552" y="1214.41"/>
      <point x="566.125" y="1341.62"/>
      <point x="586" y="1453" type="qcurve"/>
      <point x="331" y="1453" type="line"/>
      <point x="311.5" y="1342.75"/>
      <point x="314.344" y="1205.81"/>
      <point x="379.406" y="1129.69"/>
      <point x="516.875" y="1103"/>
    </contour>
  </outline>
</glyph>
<glyph name="Hcircumflex" format="2">
  <advance width="1420"/>
  <unicode hex="0124"/>
  <anchor x="915" y="1856" name="top"/>
  <anchor x="564" y="-150" name="bottom"/>
  <anchor x="1304" y="1576" name="topright"/>
  <outline>
    <contour>
      <point x="-32" y="0" type="line"/>
      <point x="540" y="0" type="line"/>
      <point x="664" y="710" type="line"/>
      <point x="764" y="710" type="line"/>
      <point x="640" y="0" type="line"/>
      <point x="1212" y="0" type="line"/>
      <point x="1456" y="1400" type="line"/>
      <point x="884" y="1400" type="line"/>
      <point x="770" y="746" type="line"/>
      <point x="670" y="746" type="line"/>
      <point x="784" y="1400" type="line"/>
      <point x="212" y="1400" type="line"/>
    </contour>
    <contour>
      <point x="606" y="1476" type="line"/>
      <point x="650" y="1476" type="line"/>
      <point x="793" y="1700" type="line"/>
      <point x="862" y="1476" type="line"/>
      <point x="1287" y="1476" type="line"/>
      <point x="1096" y="1776" type="line"/>
      <point x="804" y="1776" type="line"/>
    </contour>
  </outline>
  <guideline angle="260.1" color="1,0,0,1" x="590" y="-0"/>
</glyph>
<glyph name="Hbar" format="2">
  <advance width="1522"/>
  <unicode hex="0126"/>
  <outline>
    <contour>
      <point x="21" y="0" type="line"/>
      <point x="593" y="0" type="line"/>
      <point x="717" y="710" type="line"/>
      <point x="817" y="710" type="line"/>
      <point x="693" y="0" type="line"/>
      <point x="1265" y="0" type="line"/>
      <point x="1509" y="1400" type="line"/>
      <point x="937" y="1400" type="line"/>
      <point x="823" y="746" type="line"/>
      <point x="723" y="746" type="line"/>
      <point x="837" y="1400" type="line"/>
      <point x="265" y="1400" type="line"/>
    </contour>
    <contour>
      <point x="1545" y="1034" type="line"/>
      <point x="1551" y="1066" type="line"/>
      <point x="107" y="1066" type="line"/>
      <point x="101" y="1034" type="line"/>
    </contour>
  </outline>
  <guideline angle="0" color="1,0,0,1" x="0" y="1050"/>
</glyph>
<glyph name="hbar" format="2">
  <advance width="1353"/>
  <unicode hex="0127"/>
  <anchor x="558" y="1622" name="top"/>
  <anchor x="561" y="-150" name="bottom"/>
  <outline>
    <contour>
      <point x="13" y="0" type="line"/>
      <point x="537" y="0" type="line"/>
      <point x="710" y="992" type="line"/>
      <point x="810" y="992" type="line"/>
      <point x="810" y="992"/>
      <point x="810" y="992"/>
      <point x="810" y="992" type="qcurve"/>
      <point x="637" y="0" type="line"/>
      <point x="1161" y="0" type="line"/>
      <point x="1287" y="724" type="line" smooth="yes"/>
      <point x="1313.25" y="878.5"/>
      <point x="1169" y="1024"/>
      <point x="974" y="1024" type="qcurve" smooth="yes"/>
      <point x="792" y="1024" type="line" smooth="yes"/>
      <point x="764.834" y="1024"/>
      <point x="723.828" y="1009.58"/>
      <point x="711" y="996" type="qcurve"/>
      <point x="753" y="1235" type="line"/>
      <point x="1011" y="1235" type="line"/>
      <point x="1016" y="1267" type="line"/>
      <point x="758" y="1267" type="line"/>
      <point x="794" y="1472" type="line"/>
      <point x="270" y="1472" type="line"/>
      <point x="234" y="1267" type="line"/>
      <point x="134" y="1267" type="line"/>
      <point x="129" y="1235" type="line"/>
      <point x="229" y="1235" type="line"/>
    </contour>
  </outline>
  <guideline angle="0" color="1,0,0,1" x="0" y="1251"/>
  <guideline angle="260.1" color="1,0,0,1" x="760" y="992"/>
</glyph>
<glyph name="Iogonek" format="2">
  <advance width="748"/>
  <unicode hex="012E"/>
  <anchor x="525" y="1550" name="top"/>
  <anchor x="228" y="-150" name="bottom"/>
  <anchor x="9" y="0" name="ogonek"/>
  <outline>
    <contour>
      <point x="-29" y="0" type="line"/>
      <point x="543" y="0" type="line"/>
      <point x="787" y="1400" type="line"/>
      <point x="215" y="1400" type="line"/>
    </contour>
    <contour>
      <point x="69.3697" y="-438" type="qcurve" smooth="yes"/>
      <point x="123.236" y="-438"/>
      <point x="218.215" y="-415.638"/>
      <point x="265" y="-393" type="qcurve"/>
      <point x="360" y="-160" type="line"/>
      <point x="327.552" y="-173.583"/>
      <point x="225.178" y="-190"/>
      <point x="176.526" y="-190" type="qcurve" smooth="yes"/>
      <point x="94.6323" y="-190"/>
      <point x="-32.9967" y="-133.782"/>
      <point x="-20.6867" y="-65.4614" type="qcurve" smooth="yes"/>
      <point x="-17.9047" y="-50.0212"/>
      <point x="-3.0736" y="-15.8466"/>
      <point x="9" y="0" type="qcurve"/>
      <point x="-32" y="0" type="line"/>
      <point x="-67.4662" y="-56.595"/>
      <point x="-154.534" y="-192.405"/>
      <point x="-190" y="-249" type="qcurve"/>
      <point x="-204.337" y="-328.988"/>
      <point x="-49.567" y="-438"/>
    </contour>
  </outline>
</glyph>
<glyph name="Jcircumflex" format="2">
  <advance width="1344"/>
  <unicode hex="0134"/>
  <anchor x="1183" y="1856" name="top"/>
  <anchor x="506" y="-150" name="bottom"/>
  <anchor x="1572" y="1576" name="topright"/>
  <outline>
    <contour>
      <point x="1388" y="1400" type="line"/>
      <point x="816" y="1400" type="line"/>
      <point x="577" y="26" type="line"/>
      <point x="577" y="26"/>
      <point x="577" y="26"/>
      <point x="577" y="26" type="qcurve"/>
      <point x="501" y="26" type="line"/>
      <point x="501" y="26"/>
      <point x="501" y="26"/>
      <point x="501" y="26" type="qcurve"/>
      <point x="625" y="740" type="line"/>
      <point x="35" y="636" type="line"/>
      <point x="-19" y="324" type="line" smooth="yes"/>
      <point x="-54.25" y="123"/>
      <point x="147" y="-10"/>
      <point x="336" y="-10" type="qcurve" smooth="yes"/>
      <point x="730" y="-10" type="line" smooth="yes"/>
      <point x="919" y="-10"/>
      <point x="1165.75" y="123"/>
      <point x="1201" y="324" type="qcurve" smooth="yes"/>
    </contour>
    <contour>
      <point x="874" y="1476" type="line"/>
      <point x="918" y="1476" type="line"/>
      <point x="1061" y="1700" type="line"/>
      <point x="1130" y="1476" type="line"/>
      <point x="1555" y="1476" type="line"/>
      <point x="1364" y="1776" type="line"/>
      <point x="1072" y="1776" type="line"/>
    </contour>
  </outline>
</glyph>
<glyph name="lcaron" format="2">
  <advance width="684"/>
  <unicode hex="013E"/>
  <anchor x="501" y="1598" name="top"/>
  <anchor x="196" y="-150" name="bottom"/>
  <anchor x="741" y="1472" name="right"/>
  <anchor x="686" y="700" name="eldot"/>
  <outline>
    <contour>
      <point x="-37" y="0" type="line"/>
      <point x="487" y="0" type="line"/>
      <point x="744" y="1472" type="line"/>
      <point x="220" y="1472" type="line"/>
    </contour>
    <contour>
      <point x="882" y="1170" type="line"/>
      <point x="918" y="1177" type="line"/>
      <point x="1231" y="1472" type="line"/>
      <point x="824" y="1472" type="line"/>
    </contour>
  </outline>
</glyph>
<glyph name="ldot" format="2">
  <advance width="684"/>
  <unicode hex="0140"/>
  <anchor x="501" y="1598" name="top"/>
  <anchor x="196" y="-150" name="bottom"/>
  <anchor x="741" y="1472" name="right"/>
  <anchor x="686" y="700" name="eldot"/>
  <outline>
    <contour>
      <point x="-37" y="0" type="line"/>
      <point x="487" y="0" type="line"/>
      <point x="744" y="1472" type="line"/>
      <point x="220" y="1472" type="line"/>
    </contour>
    <contour>
      <point x="627" y="685" type="line" smooth="yes"/>
      <point x="612.663" y="603.503"/>
      <point x="621.779" y="575"/>
      <point x="658" y="575" type="qcurve" smooth="yes"/>
      <point x="670" y="575" type="line" smooth="yes"/>
      <point x="706.221" y="575"/>
      <point x="724.663" y="603.503"/>
      <point x="739" y="685" type="qcurve"/>
      <point x="744" y="717" type="line" smooth="yes"/>
      <point x="758.337" y="796.988"/>
      <point x="749.221" y="825"/>
      <point x="713" y="825" type="qcurve" smooth="yes"/>
      <point x="701" y="825" type="line" smooth="yes"/>
      <point x="664.779" y="825"/>
      <point x="646.337" y="796.988"/>
      <point x="632" y="717" type="qcurve"/>
    </contour>
  </outline>
</glyph>
<glyph name="lslash" format="2">
  <advance width="716"/>
  <unicode hex="0142"/>
  <outline>
    <contour>
      <point x="-23" y="0" type="line"/>
      <point x="501" y="0" type="line"/>
      <point x="637" y="781" type="line"/>
      <point x="712" y="806" type="line"/>
      <point x="718" y="844" type="line"/>
      <point x="644" y="819" type="line"/>
      <point x="758" y="1472" type="line"/>
      <point x="234" y="1472" type="line"/>
      <point x="87" y="628" type="line"/>
      <point x="12" y="603" type="line"/>
      <point x="6" y="565" type="line"/>
      <point x="80" y="590" type="line"/>
    </contour>
  </outline>
  <guideline angle="0" x="0" y="724"/>
</glyph>
<glyph name="Nacute" format="2">
  <advance width="1160"/>
  <unicode hex="0143"/>
  <anchor x="731" y="1550" name="top"/>
  <anchor x="434" y="-150" name="bottom"/>
  <anchor x="660" y="1500" name="topright"/>
  <outline>
    <contour>
      <point x="-29" y="0" type="line"/>
      <point x="7" y="0" type="line"/>
      <point x="137" y="742" type="line"/>
      <point x="773" y="0" type="line"/>
      <point x="955" y="0" type="line"/>
      <point x="1199" y="1400" type="line"/>
      <point x="1163" y="1400" type="line"/>
      <point x="1032" y="649" type="line"/>
      <point x="393" y="1400" type="line"/>
      <point x="215" y="1400" type="line"/>
    </contour>
    <contour>
      <point x="616" y="1500" type="line"/>
      <point x="660" y="1500" type="line"/>
      <point x="1322" y="1800" type="line"/>
      <point x="691" y="1800" type="line"/>
    </contour>
  </outline>
</glyph>
<glyph name="uni0145" format="2">
  <advance width="1160"/>
  <unicode hex="0145"/>
  <anchor x="731" y="1550" name="top"/>
  <anchor x="434" y="-150" name="bottom"/>
  <outline>
    <contour>
      <point x="-29" y="0" type="line"/>
      <point x="7" y="0" type="line"/>
      <point x="137" y="742" type="line"/>
      <point x="773" y="0" type="line"/>
      <point x="955" y="0" type="line"/>
      <point x="1199" y="1400" type="line"/>
      <point x="1163" y="1400" type="line"/>
      <point x="1032" y="649" type="line"/>
      <point x="393" y="1400" type="line"/>
      <point x="215" y="1400" type="line"/>
    </contour>
    <contour>
      <point x="307" y="-704" type="line"/>
      <point x="558" y="-454" type="line"/>
      <point x="569.319" y="-441.926"/>
      <point x="584.718" y="-406.939"/>
      <point x="590" y="-376" type="qcurve" smooth="yes"/>
      <point x="619" y="-214" type="line" smooth="yes"/>
      <point x="629.564" y="-154.387"/>
      <point x="597.405" y="-121"/>
      <point x="531" y="-121" type="qcurve" smooth="yes"/>
      <point x="347" y="-121" type="line" smooth="yes"/>
      <point x="280.595" y="-121"/>
      <point x="237.564" y="-154.387"/>
      <point x="227" y="-214" type="qcurve" smooth="yes"/>
      <point x="198" y="-376" type="line" smooth="yes"/>
      <point x="187.436" y="-437.123"/>
      <point x="219.595" y="-471"/>
      <point x="286" y="-471" type="qcurve" smooth="yes"/>
      <point x="422" y="-471" type="line"/>
      <point x="287" y="-699" type="line"/>
    </contour>
  </outline>
</glyph>
<glyph name="omacron" format="2">
  <advance width="1275"/>
  <unicode hex="014D"/>
  <anchor x="752" y="1344" name="top"/>
  <anchor x="491" y="-150" name="bottom"/>
  <anchor x="1226" y="776" name="horn"/>
  <anchor x="536" y="0" name="ogonek"/>
  <outline>
    <contour>
      <point x="-9" y="258" type="line" smooth="yes"/>
      <point x="-33.1472" y="119.154"/>
      <point x="89.5156" y="-6"/>
      <point x="251" y="-6" type="qcurve" smooth="yes"/>
      <point x="787" y="-6" type="line" smooth="yes"/>
      <point x="949.994" y="-6"/>
      <point x="1114.85" y="119.154"/>
      <point x="1139" y="258" type="qcurve" smooth="yes"/>
      <point x="1229" y="776" type="line" smooth="yes"/>
      <point x="1252.39" y="907.3"/>
      <point x="1127.98" y="1030"/>
      <point x="968" y="1030" type="qcurve" smooth="yes"/>
      <point x="432" y="1030" type="line" smooth="yes"/>
      <point x="272.025" y="1030"/>
      <point x="104.393" y="907.3"/>
      <point x="81" y="776" type="qcurve" smooth="yes"/>
    </contour>
    <contour>
      <point x="475" y="26" type="qcurve"/>
      <point x="644" y="998" type="line"/>
      <point x="644" y="998"/>
      <point x="644" y="998"/>
      <point x="644" y="998" type="qcurve"/>
      <point x="744" y="998" type="line"/>
      <point x="744" y="998"/>
      <point x="744" y="998"/>
      <point x="744" y="998" type="qcurve"/>
      <point x="575" y="26" type="line"/>
      <point x="575" y="26"/>
      <point x="575" y="26"/>
      <point x="575" y="26" type="qcurve"/>
      <point x="475" y="26" type="line"/>
      <point x="475" y="26"/>
      <point x="475" y="26"/>
    </contour>
    <contour>
      <point x="439" y="1212" type="line"/>
      <point x="1019" y="1212" type="line"/>
      <point x="1025" y="1244" type="line"/>
      <point x="445" y="1244" type="line"/>
    </contour>
  </outline>
</glyph>
<glyph name="OE" format="2">
  <advance width="1767"/>
  <unicode hex="0152"/>
  <outline>
    <contour>
      <point x="366" y="0" type="qcurve" smooth="yes"/>
      <point x="1636" y="0" type="line"/>
      <point x="1641" y="26" type="line"/>
      <point x="1203" y="26" type="line"/>
      <point x="1320" y="700" type="line"/>
      <point x="1704" y="700" type="line"/>
      <point x="1710" y="736" type="line"/>
      <point x="1326" y="736" type="line"/>
      <point x="1438" y="1374" type="line"/>
      <point x="1862" y="1374" type="line"/>
      <point x="1866" y="1400" type="line"/>
      <point x="610" y="1400" type="line" smooth="yes"/>
      <point x="515.5" y="1400"/>
      <point x="358.844" y="1374.12"/>
      <point x="239.406" y="1302.88"/>
      <point x="159.625" y="1176.5"/>
      <point x="142" y="1076" type="qcurve" smooth="yes"/>
      <point x="13" y="336" type="line" smooth="yes"/>
      <point x="-5" y="233.25"/>
      <point x="26.5625" y="102.562"/>
      <point x="118.438" y="27.9375"/>
      <point x="267" y="0"/>
    </contour>
    <contour>
      <point x="631" y="26" type="line"/>
      <point x="531" y="26" type="line"/>
      <point x="531" y="26"/>
      <point x="531" y="26"/>
      <point x="531" y="26" type="qcurve"/>
      <point x="766" y="1374" type="line"/>
      <point x="766" y="1374"/>
      <point x="766" y="1374"/>
      <point x="766" y="1374" type="qcurve"/>
      <point x="866" y="1374" type="line"/>
    </contour>
  </outline>
  <guideline angle="260.1" color="1,0,0,1" x="865.87" y="1374"/>
</glyph>
<glyph name="uni0157" format="2">
  <advance width="1240"/>
  <unicode hex="0157"/>
  <anchor x="733" y="1174" name="top"/>
  <anchor x="195" y="-150" name="bottom"/>
  <anchor x="-52" y="512" name="left"/>
  <outline>
    <contour>
      <point x="-38" y="0" type="line"/>
      <point x="486" y="0" type="line"/>
      <point x="659" y="992" type="line"/>
      <point x="749" y="992" type="line"/>
      <point x="749" y="992"/>
      <point x="749" y="992"/>
      <point x="749" y="992" type="qcurve"/>
      <point x="671" y="546" type="line"/>
      <point x="1212" y="644" type="line"/>
      <point x="1226" y="724" type="line" smooth="yes"/>
      <point x="1239.5" y="801.25"/>
      <point x="1218.19" y="914.312"/>
      <point x="1142.81" y="988.188"/>
      <point x="1010.5" y="1024"/>
      <point x="913" y="1024" type="qcurve" smooth="yes"/>
      <point x="741" y="1024" type="line" smooth="yes"/>
      <point x="713.834" y="1024"/>
      <point x="672.828" y="1009.58"/>
      <point x="660" y="996" type="qcurve"/>
      <point x="665" y="1024" type="line"/>
      <point x="141" y="1024" type="line"/>
    </contour>
    <contour>
      <point x="68" y="-704" type="line"/>
      <point x="319" y="-454" type="line"/>
      <point x="330.319" y="-441.926"/>
      <point x="345.718" y="-406.939"/>
      <point x="351" y="-376" type="qcurve" smooth="yes"/>
      <point x="380" y="-214" type="line" smooth="yes"/>
      <point x="390.564" y="-154.387"/>
      <point x="358.405" y="-121"/>
      <point x="292" y="-121" type="qcurve" smooth="yes"/>
      <point x="108" y="-121" type="line" smooth="yes"/>
      <point x="41.5952" y="-121"/>
      <point x="-1.4356" y="-154.387"/>
      <point x="-12" y="-214" type="qcurve" smooth="yes"/>
      <point x="-41" y="-376" type="line" smooth="yes"/>
      <point x="-51.5644" y="-437.123"/>
      <point x="-19.4048" y="-471"/>
      <point x="47" y="-471" type="qcurve" smooth="yes"/>
      <point x="183" y="-471" type="line"/>
      <point x="48" y="-699" type="line"/>
    </contour>
  </outline>
  <guideline angle="0" x="0" y="988"/>
  <guideline angle="0" x="0" y="870"/>
</glyph>
<glyph name="Scedilla" format="2">
  <advance width="1287"/>
  <unicode hex="015E"/>
  <anchor x="794" y="1560" name="top"/>
  <anchor x="493" y="-160" name="bottom"/>
  <outline>
    <contour>
      <point x="-5" y="410" type="line"/>
      <point x="-18" y="332" type="line" smooth="yes"/>
      <point x="-36.75" y="226.25"/>
      <point x="-3.5" y="92.9375"/>
      <point x="89.5" y="17.5625"/>
      <point x="236.75" y="-10"/>
      <point x="332" y="-10" type="qcurve" smooth="yes"/>
      <point x="708" y="-10" type="line" smooth="yes"/>
      <point x="900" y="-10"/>
      <point x="1142.5" y="121"/>
      <point x="1180" y="334" type="qcurve" smooth="yes"/>
      <point x="1191" y="398" type="line" smooth="yes"/>
      <point x="1209" y="501.5"/>
      <point x="1171.19" y="629.875"/>
      <point x="1074.81" y="701.125"/>
      <point x="927.5" y="726"/>
      <point x="836" y="726" type="qcurve" smooth="yes"/>
      <point x="596" y="726" type="line"/>
      <point x="596" y="726"/>
      <point x="596" y="726"/>
      <point x="596" y="726" type="qcurve"/>
      <point x="709" y="1374" type="line"/>
      <point x="709" y="1374"/>
      <point x="709" y="1374"/>
      <point x="709" y="1374" type="qcurve"/>
      <point x="815" y="1374" type="line"/>
      <point x="815" y="1374"/>
      <point x="815" y="1374"/>
      <point x="815" y="1374" type="qcurve"/>
      <point x="743" y="958" type="line"/>
      <point x="1277" y="1006" type="line"/>
      <point x="1290" y="1082" type="line" smooth="yes"/>
      <point x="1308" y="1184.75"/>
      <point x="1271.12" y="1312.94"/>
      <point x="1175.88" y="1384.56"/>
      <point x="1029.5" y="1410"/>
      <point x="938" y="1410" type="qcurve" smooth="yes"/>
      <point x="606" y="1410" type="line" smooth="yes"/>
      <point x="514.5" y="1410"/>
      <point x="357" y="1383.88"/>
      <point x="234" y="1311.12"/>
      <point x="150" y="1181.5"/>
      <point x="132" y="1078" type="qcurve" smooth="yes"/>
      <point x="124" y="1034" type="line" smooth="yes"/>
      <point x="105.625" y="928.25"/>
      <point x="138.344" y="794.312"/>
      <point x="230.406" y="718.188"/>
      <point x="376.75" y="690"/>
      <point x="472" y="690" type="qcurve" smooth="yes"/>
      <point x="696" y="690" type="line"/>
      <point x="696" y="690"/>
      <point x="696" y="690"/>
      <point x="696" y="690" type="qcurve"/>
      <point x="580" y="26" type="line"/>
      <point x="580" y="26"/>
      <point x="580" y="26"/>
      <point x="580" y="26" type="qcurve"/>
      <point x="474" y="26" type="line"/>
      <point x="474" y="26"/>
      <point x="474" y="26"/>
      <point x="474" y="26" type="qcurve"/>
      <point x="550" y="462" type="line"/>
    </contour>
    <contour>
      <point x="432" y="-448" type="qcurve" smooth="yes"/>
      <point x="472.125" y="-448"/>
      <point x="563.188" y="-430.219"/>
      <point x="643.812" y="-389.531"/>
      <point x="703.375" y="-323.375"/>
      <point x="712" y="-275" type="qcurve" smooth="yes"/>
      <point x="719.875" y="-230.75"/>
      <point x="702.844" y="-161.938"/>
      <point x="655.406" y="-113.562"/>
      <point x="578.75" y="-86"/>
      <point x="527" y="-83" type="qcurve"/>
      <point x="556" y="-10" type="line"/>
      <point x="437" y="-10" type="line"/>
      <point x="396" y="-113" type="line"/>
      <point x="403.546" y="-110.736"/>
      <point x="415.288" y="-109"/>
      <point x="419.25" y="-109" type="qcurve" smooth="yes"/>
      <point x="446.982" y="-109"/>
      <point x="467.828" y="-181.804"/>
      <point x="455" y="-255" type="qcurve" smooth="yes"/>
      <point x="442.172" y="-328.951"/>
      <point x="397.166" y="-413"/>
      <point x="370" y="-413" type="qcurve" smooth="yes"/>
      <point x="355.663" y="-413"/>
      <point x="320.564" y="-390.337"/>
      <point x="310" y="-376" type="qcurve"/>
      <point x="282" y="-397" type="line"/>
      <point x="306.147" y="-423.411"/>
      <point x="368.614" y="-448"/>
    </contour>
  </outline>
</glyph>
<glyph name="uni0163" format="2">
  <advance width="835"/>
  <unicode hex="0163"/>
  <anchor x="490" y="1394" name="top"/>
  <anchor x="220" y="-156" name="bottom"/>
  <anchor x="765" y="1400" name="right"/>
  <outline>
    <contour>
      <point x="298" y="-6" type="qcurve" smooth="yes"/>
      <point x="655" y="-6" type="line"/>
      <point x="671" y="26" type="line"/>
      <point x="522" y="26" type="line"/>
      <point x="522" y="26"/>
      <point x="522" y="26"/>
      <point x="522" y="26" type="qcurve"/>
      <point x="690" y="992" type="line"/>
      <point x="859" y="992" type="line"/>
      <point x="865" y="1024" type="line"/>
      <point x="696" y="1024" type="line"/>
      <point x="734" y="1244" type="line"/>
      <point x="210" y="1244" type="line"/>
      <point x="172" y="1024" type="line"/>
      <point x="89" y="1024" type="line"/>
      <point x="83" y="992" type="line"/>
      <point x="166" y="992" type="line"/>
      <point x="37" y="250" type="line" smooth="yes"/>
      <point x="12.8528" y="111.154"/>
      <point x="131.988" y="-6"/>
    </contour>
    <contour>
      <point x="146" y="-444" type="qcurve" smooth="yes"/>
      <point x="188.375" y="-444"/>
      <point x="271.812" y="-423.406"/>
      <point x="341.188" y="-380.844"/>
      <point x="390.125" y="-315.625"/>
      <point x="398" y="-271" type="qcurve" smooth="yes"/>
      <point x="405.125" y="-230.5"/>
      <point x="393.344" y="-164.188"/>
      <point x="354.906" y="-115.812"/>
      <point x="289.5" y="-87"/>
      <point x="243" y="-84" type="qcurve"/>
      <point x="285" y="-6" type="line"/>
      <point x="183" y="-6" type="line"/>
      <point x="127" y="-110" type="line"/>
      <point x="136.055" y="-106.982"/>
      <point x="147.699" y="-105"/>
      <point x="156" y="-105" type="qcurve" smooth="yes"/>
      <point x="184.675" y="-105"/>
      <point x="203.828" y="-177.804"/>
      <point x="191" y="-251" type="qcurve" smooth="yes"/>
      <point x="178.172" y="-324.951"/>
      <point x="131.184" y="-409"/>
      <point x="101" y="-409" type="qcurve" smooth="yes"/>
      <point x="85.908" y="-409"/>
      <point x="58.8098" y="-388.601"/>
      <point x="49" y="-372" type="qcurve"/>
      <point x="19" y="-393" type="line"/>
      <point x="43.9018" y="-422.429"/>
      <point x="95.4418" y="-444"/>
    </contour>
  </outline>
</glyph>
<glyph name="Tcaron" format="2">
  <advance width="1144"/>
  <unicode hex="0164"/>
  <anchor x="784" y="1880" name="top"/>
  <anchor x="429" y="-150" name="bottom"/>
  <anchor x="359" y="1700" name="topright"/>
  <outline>
    <contour>
      <point x="169" y="0" type="line"/>
      <point x="741" y="0" type="line"/>
      <point x="979" y="1364" type="line"/>
      <point x="1255" y="1364" type="line"/>
      <point x="1261" y="1400" type="line"/>
      <point x="137" y="1400" type="line"/>
      <point x="131" y="1364" type="line"/>
      <point x="407" y="1364" type="line"/>
    </contour>
    <contour>
      <point x="1057" y="1800" type="line"/>
      <point x="1013" y="1800" type="line"/>
      <point x="870" y="1576" type="line"/>
      <point x="801" y="1800" type="line"/>
      <point x="376" y="1800" type="line"/>
      <point x="567" y="1500" type="line"/>
      <point x="859" y="1500" type="line"/>
    </contour>
  </outline>
</glyph>
<glyph name="tcaron" format="2">
  <advance width="835"/>
  <unicode hex="0165"/>
  <anchor x="490" y="1394" name="top"/>
  <anchor x="220" y="-156" name="bottom"/>
  <anchor x="765" y="1400" name="right"/>
  <outline>
    <contour>
      <point x="298" y="-6" type="qcurve" smooth="yes"/>
      <point x="655" y="-6" type="line"/>
      <point x="671" y="26" type="line"/>
      <point x="522" y="26" type="line"/>
      <point x="522" y="26"/>
      <point x="522" y="26"/>
      <point x="522" y="26" type="qcurve"/>
      <point x="690" y="992" type="line"/>
      <point x="859" y="992" type="line"/>
      <point x="865" y="1024" type="line"/>
      <point x="696" y="1024" type="line"/>
      <point x="734" y="1244" type="line"/>
      <point x="210" y="1244" type="line"/>
      <point x="172" y="1024" type="line"/>
      <point x="89" y="1024" type="line"/>
      <point x="83" y="992" type="line"/>
      <point x="166" y="992" type="line"/>
      <point x="37" y="250" type="line" smooth="yes"/>
      <point x="12.8528" y="111.154"/>
      <point x="131.988" y="-6"/>
    </contour>
    <contour>
      <point x="906" y="1098" type="line"/>
      <point x="942" y="1105" type="line"/>
      <point x="1255" y="1400" type="line"/>
      <point x="848" y="1400" type="line"/>
    </contour>
  </outline>
</glyph>
<glyph name="Utilde" format="2">
  <advance width="1389"/>
  <unicode hex="0168"/>
  <anchor x="921" y="1982" name="top"/>
  <anchor x="547" y="-150" name="bottom"/>
  <anchor x="594" y="0" name="ogonek"/>
  <anchor x="1432" y="1400" name="horn"/>
  <outline>
    <contour>
      <point x="207" y="1400" type="line"/>
      <point x="21" y="333" type="line" smooth="yes"/>
      <point x="2.625" y="226.875"/>
      <point x="35.9688" y="93.1562"/>
      <point x="128.781" y="17.5938"/>
      <point x="275.75" y="-10"/>
      <point x="371" y="-10" type="qcurve" smooth="yes"/>
      <point x="778" y="-10" type="line" smooth="yes"/>
      <point x="970.75" y="-10"/>
      <point x="1213.25" y="120.75"/>
      <point x="1250" y="333" type="qcurve" smooth="yes"/>
      <point x="1436" y="1400" type="line"/>
      <point x="864" y="1400" type="line"/>
      <point x="625" y="26" type="line"/>
      <point x="625" y="26"/>
      <point x="625" y="26"/>
      <point x="625" y="26" type="qcurve"/>
      <point x="540" y="26" type="line"/>
      <point x="540" y="26"/>
      <point x="540" y="26"/>
      <point x="540" y="26" type="qcurve"/>
      <point x="779" y="1400" type="line"/>
    </contour>
    <contour>
      <point x="497" y="1505" type="qcurve"/>
      <point x="526" y="1500" type="line"/>
      <point x="535.055" y="1519.62"/>
      <point x="575.687" y="1571"/>
      <point x="627" y="1571" type="qcurve" smooth="yes"/>
      <point x="660.375" y="1571"/>
      <point x="738.969" y="1544.75"/>
      <point x="828.781" y="1513.25"/>
      <point x="929.5" y="1487"/>
      <point x="985" y="1487" type="qcurve" smooth="yes"/>
      <point x="1029.25" y="1487"/>
      <point x="1102.5" y="1547.41"/>
      <point x="1164" y="1648.84"/>
      <point x="1215.5" y="1781.62"/>
      <point x="1238" y="1854" type="qcurve"/>
      <point x="1209" y="1859" type="line"/>
      <point x="1200.7" y="1839.38"/>
      <point x="1160.31" y="1788"/>
      <point x="1109" y="1788" type="qcurve" smooth="yes"/>
      <point x="1075.62" y="1788"/>
      <point x="997.031" y="1814.25"/>
      <point x="907.219" y="1845.75"/>
      <point x="806.5" y="1872"/>
      <point x="751" y="1872" type="qcurve" smooth="yes"/>
      <point x="706.75" y="1872"/>
      <point x="634.031" y="1816.09"/>
      <point x="572.719" y="1717.66"/>
      <point x="520.625" y="1583.38"/>
    </contour>
  </outline>
  <guideline angle="90" x="313" y="0"/>
  <guideline angle="90" x="993" y="0"/>
  <guideline angle="90" x="343" y="0"/>
  <guideline angle="90" x="963" y="0"/>
</glyph>
<glyph name="Umacron" format="2">
  <advance width="1389"/>
  <unicode hex="016A"/>
  <anchor x="872" y="1704" name="top"/>
  <anchor x="547" y="-150" name="bottom"/>
  <anchor x="594" y="0" name="ogonek"/>
  <anchor x="1432" y="1400" name="horn"/>
  <outline>
    <contour>
      <point x="207" y="1400" type="line"/>
      <point x="21" y="333" type="line" smooth="yes"/>
      <point x="2.625" y="226.875"/>
      <point x="35.9688" y="93.1562"/>
      <point x="128.781" y="17.5938"/>
      <point x="275.75" y="-10"/>
      <point x="371" y="-10" type="qcurve" smooth="yes"/>
      <point x="778" y="-10" type="line" smooth="yes"/>
      <point x="970.75" y="-10"/>
      <point x="1213.25" y="120.75"/>
      <point x="1250" y="333" type="qcurve" smooth="yes"/>
      <point x="1436" y="1400" type="line"/>
      <point x="864" y="1400" type="line"/>
      <point x="625" y="26" type="line"/>
      <point x="625" y="26"/>
      <point x="625" y="26"/>
      <point x="625" y="26" type="qcurve"/>
      <point x="540" y="26" type="line"/>
      <point x="540" y="26"/>
      <point x="540" y="26"/>
      <point x="540" y="26" type="qcurve"/>
      <point x="779" y="1400" type="line"/>
    </contour>
    <contour>
      <point x="558" y="1568" type="line"/>
      <point x="1138" y="1568" type="line"/>
      <point x="1144" y="1604" type="line"/>
      <point x="564" y="1604" type="line"/>
    </contour>
  </outline>
</glyph>
<glyph name="uhungarumlaut" format="2">
  <advance width="1284"/>
  <unicode hex="0171"/>
  <anchor x="726" y="1174" name="top"/>
  <anchor x="495" y="-150" name="bottom"/>
  <anchor x="540" y="0" name="ogonek"/>
  <anchor x="1270" y="1024" name="horn"/>
  <outline>
    <contour>
      <point x="-13" y="204" type="line" smooth="yes"/>
      <point x="-35.638" y="77.2272"/>
      <point x="80.3008" y="0"/>
      <point x="195" y="0" type="qcurve" smooth="yes"/>
      <point x="845" y="0" type="line" smooth="yes"/>
      <point x="959.699" y="0"/>
      <point x="1104.36" y="77.2272"/>
      <point x="1127" y="204" type="qcurve" smooth="yes"/>
      <point x="1270" y="1024" type="line"/>
      <point x="746" y="1024" type="line"/>
      <point x="573" y="32" type="line"/>
      <point x="573" y="32"/>
      <point x="573" y="32"/>
      <point x="573" y="32" type="qcurve"/>
      <point x="481" y="32" type="line"/>
      <point x="481" y="32"/>
      <point x="481" y="32"/>
      <point x="481" y="32" type="qcurve"/>
      <point x="654" y="1024" type="line"/>
      <point x="130" y="1024" type="line"/>
    </contour>
    <contour>
      <point x="391.99" y="1124" type="line"/>
      <point x="419.99" y="1124" type="line"/>
      <point x="935.399" y="1472" type="line"/>
      <point x="518.899" y="1472" type="line"/>
    </contour>
    <contour>
      <point x="847.99" y="1124" type="line"/>
      <point x="875.99" y="1124" type="line"/>
      <point x="1391.4" y="1472" type="line"/>
      <point x="974.899" y="1472" type="line"/>
    </contour>
  </outline>
</glyph>
<glyph name="Ydieresis" format="2">
  <advance width="1317"/>
  <unicode hex="0178"/>
  <anchor x="1039" y="1938" name="top"/>
  <anchor x="514" y="-150" name="bottom"/>
  <outline>
    <contour>
      <point x="254" y="0" type="line"/>
      <point x="826" y="0" type="line"/>
      <point x="921" y="543" type="line"/>
      <point x="1453" y="1400" type="line"/>
      <point x="1411" y="1400" type="line"/>
      <point x="905" y="585" type="line"/>
      <point x="695" y="1400" type="line"/>
      <point x="117" y="1400" type="line"/>
      <point x="352" y="560" type="line"/>
    </contour>
    <contour>
      <point x="605" y="1498" type="qcurve" smooth="yes"/>
      <point x="757" y="1498" type="line" smooth="yes"/>
      <point x="838.497" y="1498"/>
      <point x="871.663" y="1526.5"/>
      <point x="886" y="1608" type="qcurve" smooth="yes"/>
      <point x="911" y="1750" type="line" smooth="yes"/>
      <point x="925.337" y="1829.99"/>
      <point x="901.497" y="1858"/>
      <point x="820" y="1858" type="qcurve" smooth="yes"/>
      <point x="668" y="1858" type="line" smooth="yes"/>
      <point x="586.503" y="1858"/>
      <point x="553.337" y="1829.99"/>
      <point x="539" y="1750" type="qcurve" smooth="yes"/>
      <point x="514" y="1608" type="line" smooth="yes"/>
      <point x="499.663" y="1526.5"/>
      <point x="523.503" y="1498"/>
    </contour>
    <contour>
      <point x="1165" y="1498" type="qcurve" smooth="yes"/>
      <point x="1317" y="1498" type="line" smooth="yes"/>
      <point x="1398.5" y="1498"/>
      <point x="1431.66" y="1526.5"/>
      <point x="1446" y="1608" type="qcurve" smooth="yes"/>
      <point x="1471" y="1750" type="line" smooth="yes"/>
      <point x="1485.34" y="1829.99"/>
      <point x="1461.5" y="1858"/>
      <point x="1380" y="1858" type="qcurve" smooth="yes"/>
      <point x="1228" y="1858" type="line" smooth="yes"/>
      <point x="1146.5" y="1858"/>
      <point x="1113.34" y="1829.99"/>
      <point x="1099" y="1750" type="qcurve" smooth="yes"/>
      <point x="1074" y="1608" type="line" smooth="yes"/>
      <point x="1059.66" y="1526.5"/>
      <point x="1083.5" y="1498"/>
    </contour>
  </outline>
  <guideline angle="260.099" color="1,0,0,1" x="598" y="-0"/>
</glyph>
<glyph name="zacute" format="2">
  <advance width="1100"/>
  <unicode hex="017A"/>
  <anchor x="634" y="1174" name="top"/>
  <anchor x="403" y="-150" name="bottom"/>
  <outline>
    <contour>
      <point x="-87" y="0" type="line"/>
      <point x="949" y="0" type="line"/>
      <point x="955" y="32" type="line"/>
      <point x="490" y="32" type="line"/>
      <point x="496" y="22" type="line"/>
      <point x="1115" y="1006" type="line"/>
      <point x="1118" y="1024" type="line"/>
      <point x="143" y="1024" type="line"/>
      <point x="137" y="992" type="line"/>
      <point x="545" y="992" type="line"/>
      <point x="539" y="1002" type="line"/>
      <point x="-84" y="18" type="line"/>
    </contour>
    <contour>
      <point x="499" y="1100" type="line"/>
      <point x="539" y="1100" type="line"/>
      <point x="1249" y="1448" type="line"/>
      <point x="654" y="1448" type="line"/>
    </contour>
  </outline>
</glyph>
<glyph name="uni018F" format="2">
  <advance width="1382"/>
  <unicode hex="018F"/>
  <anchor x="837" y="1550" name="top"/>
  <anchor x="540" y="-150" name="bottom"/>
  <outline>
    <contour>
      <point x="356" y="-10" type="qcurve" smooth="yes"/>
      <point x="776" y="-10" type="line" smooth="yes"/>
      <point x="975.214" y="-10"/>
      <point x="1213.53" y="129.24"/>
      <point x="1249" y="336" type="qcurve" smooth="yes"/>
      <point x="1378" y="1076" type="line" smooth="yes"/>
      <point x="1413.25" y="1277"/>
      <point x="1213" y="1410"/>
      <point x="1024" y="1410" type="qcurve" smooth="yes"/>
      <point x="610" y="1410" type="line" smooth="yes"/>
      <point x="421" y="1410"/>
      <point x="174.75" y="1277"/>
      <point x="138" y="1076" type="qcurve" smooth="yes"/>
      <point x="126" y="1010" type="line"/>
      <point x="680" y="906" type="line"/>
      <point x="762" y="1374" type="line"/>
      <point x="762" y="1374"/>
      <point x="762" y="1374"/>
      <point x="762" y="1374" type="qcurve"/>
      <point x="858" y="1374" type="line"/>
      <point x="858" y="1374"/>
      <point x="858" y="1374"/>
      <point x="858" y="1374" type="qcurve"/>
      <point x="741" y="700" type="line"/>
      <point x="66" y="700" type="line"/>
      <point x="3" y="336" type="line" smooth="yes"/>
      <point x="-33.75" y="129"/>
      <point x="158" y="-10"/>
    </contour>
    <contour>
      <point x="592" y="664" type="line"/>
      <point x="734" y="664" type="line"/>
      <point x="623" y="26" type="line"/>
      <point x="623" y="26"/>
      <point x="623" y="26"/>
      <point x="623" y="26" type="qcurve"/>
      <point x="481" y="26" type="line"/>
      <point x="481" y="26"/>
      <point x="481" y="26"/>
      <point x="481" y="26" type="qcurve"/>
    </contour>
  </outline>
</glyph>
<glyph name="Ohorn" format="2">
  <advance width="1827"/>
  <unicode hex="01A0"/>
  <anchor x="849" y="1560" name="top"/>
  <anchor x="550" y="-160" name="bottom"/>
  <anchor x="1385" y="1076" name="horn"/>
  <anchor x="595" y="0" name="ogonek"/>
  <outline>
    <contour>
      <point x="142" y="1076" type="qcurve" smooth="yes"/>
      <point x="13" y="336" type="line" smooth="yes"/>
      <point x="-23.2208" y="129.24"/>
      <point x="164.786" y="-10"/>
      <point x="364" y="-10" type="qcurve" smooth="yes"/>
      <point x="782" y="-10" type="line" smooth="yes"/>
      <point x="981.214" y="-10"/>
      <point x="1220.02" y="127.73"/>
      <point x="1257" y="336" type="qcurve" smooth="yes"/>
      <point x="1386" y="1076" type="line" smooth="yes"/>
      <point x="1421.25" y="1277"/>
      <point x="1219" y="1410"/>
      <point x="1030" y="1410" type="qcurve" smooth="yes"/>
      <point x="612" y="1410" type="line" smooth="yes"/>
      <point x="423" y="1410"/>
      <point x="177.25" y="1277"/>
    </contour>
    <contour>
      <point x="766" y="1374" type="line"/>
      <point x="766" y="1374"/>
      <point x="766" y="1374"/>
      <point x="766" y="1374" type="qcurve"/>
      <point x="866" y="1374" type="line"/>
      <point x="866" y="1374"/>
      <point x="866" y="1374"/>
      <point x="866" y="1374" type="qcurve"/>
      <point x="631" y="26" type="line"/>
      <point x="631" y="26"/>
      <point x="631" y="26"/>
      <point x="631" y="26" type="qcurve"/>
      <point x="531" y="26" type="line"/>
      <point x="531" y="26"/>
      <point x="531" y="26"/>
      <point x="531" y="26" type="qcurve"/>
    </contour>
    <contour>
      <point x="1379" y="1042" type="line"/>
      <point x="1555.25" y="1042"/>
      <point x="1767.97" y="1072.88"/>
      <point x="1886.28" y="1133.62"/>
      <point x="1932.88" y="1223.75"/>
      <point x="1943" y="1283" type="qcurve" smooth="yes"/>
      <point x="1949.79" y="1319.98"/>
      <point x="1953.55" y="1408.99"/>
      <point x="1946" y="1452" type="qcurve"/>
      <point x="1503" y="1372" type="line"/>
      <point x="1503" y="1330.5"/>
      <point x="1496.28" y="1259.43"/>
      <point x="1491" y="1230" type="qcurve" smooth="yes"/>
      <point x="1477.42" y="1153.03"/>
      <point x="1428.01" y="1076"/>
      <point x="1385" y="1076" type="qcurve"/>
    </contour>
  </outline>
</glyph>
<glyph name="uhorn" format="2">
  <advance width="1639"/>
  <unicode hex="01B0"/>
  <anchor x="729" y="1174" name="top"/>
  <anchor x="498" y="-150" name="bottom"/>
  <anchor x="543" y="0" name="ogonek"/>
  <anchor x="1273" y="1024" name="horn"/>
  <outline>
    <contour>
      <point x="-10" y="204" type="line" smooth="yes"/>
      <point x="-32.638" y="77.2272"/>
      <point x="83.3008" y="0"/>
      <point x="198" y="0" type="qcurve" smooth="yes"/>
      <point x="848" y="0" type="line" smooth="yes"/>
      <point x="962.699" y="0"/>
      <point x="1107.36" y="77.2272"/>
      <point x="1130" y="204" type="qcurve" smooth="yes"/>
      <point x="1273" y="1024" type="line"/>
      <point x="749" y="1024" type="line"/>
      <point x="576" y="32" type="line"/>
      <point x="576" y="32"/>
      <point x="576" y="32"/>
      <point x="576" y="32" type="qcurve"/>
      <point x="484" y="32" type="line"/>
      <point x="484" y="32"/>
      <point x="484" y="32"/>
      <point x="484" y="32" type="qcurve"/>
      <point x="657" y="1024" type="line"/>
      <point x="133" y="1024" type="line"/>
    </contour>
    <contour>
      <point x="1270" y="994" type="line"/>
      <point x="1406.88" y="994"/>
      <point x="1579.03" y="1023.66"/>
      <point x="1679.72" y="1080.09"/>
      <point x="1724" y="1161.88"/>
      <point x="1733" y="1214" type="qcurve" smooth="yes"/>
      <point x="1741.3" y="1262.29"/>
      <point x="1747.04" y="1352.76"/>
      <point x="1741" y="1392" type="qcurve"/>
      <point x="1380" y="1324" type="line"/>
      <point x="1380.75" y="1280.23"/>
      <point x="1369.3" y="1184.03"/>
      <point x="1361" y="1138" type="qcurve" smooth="yes"/>
      <point x="1352.7" y="1091.21"/>
      <point x="1311.22" y="1024"/>
      <point x="1275" y="1024" type="qcurve"/>
    </contour>
  </outline>
</glyph>
<glyph name="uni01B3" format="2">
  <advance width="1419"/>
  <unicode hex="01B3"/>
  <anchor x="970" y="1550" name="top"/>
  <anchor x="514" y="-150" name="bottom"/>
  <outline>
    <contour>
      <point x="254" y="0" type="line"/>
      <point x="826" y="0" type="line"/>
      <point x="921" y="543" type="line"/>
      <point x="1338" y="1276" type="line" smooth="yes"/>
      <point x="1359.88" y="1314.48"/>
      <point x="1406.99" y="1368"/>
      <point x="1450" y="1368" type="qcurve" smooth="yes"/>
      <point x="1540" y="1368" type="line"/>
      <point x="1555" y="1400" type="line"/>
      <point x="1455" y="1400" type="line" smooth="yes"/>
      <point x="1400.67" y="1400"/>
      <point x="1334.17" y="1341.29"/>
      <point x="1307" y="1293" type="qcurve" smooth="yes"/>
      <point x="905" y="587" type="line"/>
      <point x="695" y="1400" type="line"/>
      <point x="117" y="1400" type="line"/>
      <point x="352" y="560" type="line"/>
    </contour>
  </outline>
  <guideline angle="260.099" color="1,0,0,1" x="598" y="0"/>
  <guideline angle="260.099" color="1,0,0,1" x="598" y="0"/>
</glyph>
<glyph name="uni01C4" format="2">
  <advance width="2672"/>
  <unicode hex="01C4"/>
  <anchor x="2255" y="1880" name="top"/>
  <anchor x="1896" y="-150" name="bottom"/>
  <anchor x="1830" y="1700" name="topright"/>
  <outline>
    <contour>
      <point x="549" y="36" type="line"/>
      <point x="781" y="1364" type="line"/>
      <point x="791" y="1364" type="line" smooth="yes"/>
      <point x="816.125" y="1364"/>
      <point x="844.5" y="1295.66"/>
      <point x="846" y="1142.09"/>
      <point x="818.125" y="894.875"/>
      <point x="787" y="716" type="qcurve" smooth="yes"/>
      <point x="755.125" y="534.125"/>
      <point x="695.875" y="276.156"/>
      <point x="639.625" y="112.094"/>
      <point x="585.625" y="36"/>
      <point x="559" y="36" type="qcurve" smooth="yes"/>
    </contour>
    <contour>
      <point x="-29" y="0" type="line"/>
      <point x="558" y="0" type="line" smooth="yes"/>
      <point x="708" y="0"/>
      <point x="966.031" y="61.9375"/>
      <point x="1168.72" y="211.562"/>
      <point x="1309.38" y="461.75"/>
      <point x="1342" y="650" type="qcurve" smooth="yes"/>
      <point x="1373.12" y="827"/>
      <point x="1336.75" y="1105.62"/>
      <point x="1201.75" y="1298.38"/>
      <point x="968.125" y="1400"/>
      <point x="802" y="1400" type="qcurve" smooth="yes"/>
      <point x="215" y="1400" type="line"/>
    </contour>
    <contour>
      <point x="1314" y="0" type="line"/>
      <point x="2478" y="0" type="line"/>
      <point x="2484" y="36" type="line"/>
      <point x="1919" y="36" type="line"/>
      <point x="1925" y="26" type="line"/>
      <point x="2709" y="1382" type="line"/>
      <point x="2712" y="1400" type="line"/>
      <point x="1628" y="1400" type="line"/>
      <point x="1622" y="1364" type="line"/>
      <point x="2107" y="1364" type="line"/>
      <point x="2101" y="1374" type="line"/>
      <point x="1317" y="18" type="line"/>
    </contour>
    <contour>
      <point x="2528" y="1800" type="line"/>
      <point x="2484" y="1800" type="line"/>
      <point x="2341" y="1576" type="line"/>
      <point x="2272" y="1800" type="line"/>
      <point x="1847" y="1800" type="line"/>
      <point x="2038" y="1500" type="line"/>
      <point x="2330" y="1500" type="line"/>
    </contour>
  </outline>
</glyph>
<glyph name="uni01C5" format="2">
  <advance width="2473"/>
  <unicode hex="01C5"/>
  <anchor x="2077" y="1572" name="top"/>
  <anchor x="1776" y="-150" name="bottom"/>
  <anchor x="1664" y="1298" name="topright"/>
  <outline>
    <contour>
      <point x="549" y="36" type="line"/>
      <point x="781" y="1364" type="line"/>
      <point x="791" y="1364" type="line" smooth="yes"/>
      <point x="816.125" y="1364"/>
      <point x="844.5" y="1295.66"/>
      <point x="846" y="1142.09"/>
      <point x="818.125" y="894.875"/>
      <point x="787" y="716" type="qcurve" smooth="yes"/>
      <point x="755.125" y="534.125"/>
      <point x="695.875" y="276.156"/>
      <point x="639.625" y="112.094"/>
      <point x="585.625" y="36"/>
      <point x="559" y="36" type="qcurve" smooth="yes"/>
    </contour>
    <contour>
      <point x="-29" y="0" type="line"/>
      <point x="558" y="0" type="line" smooth="yes"/>
      <point x="708" y="0"/>
      <point x="966.031" y="61.9375"/>
      <point x="1168.72" y="211.562"/>
      <point x="1309.38" y="461.75"/>
      <point x="1342" y="650" type="qcurve" smooth="yes"/>
      <point x="1373.12" y="827"/>
      <point x="1336.75" y="1105.62"/>
      <point x="1201.75" y="1298.38"/>
      <point x="968.125" y="1400"/>
      <point x="802" y="1400" type="qcurve" smooth="yes"/>
      <point x="215" y="1400" type="line"/>
    </contour>
    <contour>
      <point x="1286" y="0" type="line"/>
      <point x="2322" y="0" type="line"/>
      <point x="2328" y="32" type="line"/>
      <point x="1863" y="32" type="line"/>
      <point x="1869" y="22" type="line"/>
      <point x="2488" y="1006" type="line"/>
      <point x="2491" y="1024" type="line"/>
      <point x="1516" y="1024" type="line"/>
      <point x="1510" y="992" type="line"/>
      <point x="1918" y="992" type="line"/>
      <point x="1912" y="1002" type="line"/>
      <point x="1289" y="18" type="line"/>
    </contour>
    <contour>
      <point x="2371" y="1472" type="line"/>
      <point x="2333" y="1472" type="line"/>
      <point x="2140" y="1161" type="line"/>
      <point x="2046" y="1472" type="line"/>
      <point x="1695" y="1472" type="line"/>
      <point x="1840" y="1124" type="line"/>
      <point x="2154" y="1124" type="line"/>
    </contour>
  </outline>
</glyph>
<glyph name="uni01C6" format="2">
  <advance width="2391"/>
  <unicode hex="01C6"/>
  <anchor x="1995" y="1572" name="top"/>
  <anchor x="1694" y="-150" name="bottom"/>
  <anchor x="1348" y="1472" name="right"/>
  <anchor x="1582" y="1298" name="topright"/>
  <outline>
    <contour>
      <point x="-11" y="264" type="line" smooth="yes"/>
      <point x="-35.1472" y="125.154"/>
      <point x="87.5156" y="0"/>
      <point x="249" y="0" type="qcurve" smooth="yes"/>
      <point x="491" y="0" type="line" smooth="yes"/>
      <point x="518.166" y="0"/>
      <point x="559.172" y="14.4172"/>
      <point x="572" y="28" type="qcurve"/>
      <point x="567" y="0" type="line"/>
      <point x="1091" y="0" type="line"/>
      <point x="1348" y="1472" type="line"/>
      <point x="824" y="1472" type="line"/>
      <point x="743" y="1006" type="line"/>
      <point x="738.472" y="1018.07"/>
      <point x="702.693" y="1030"/>
      <point x="671" y="1030" type="qcurve" smooth="yes"/>
      <point x="429" y="1030" type="line" smooth="yes"/>
      <point x="269.025" y="1030"/>
      <point x="101.393" y="907.3"/>
      <point x="78" y="776" type="qcurve" smooth="yes"/>
    </contour>
    <contour>
      <point x="741" y="998" type="line"/>
      <point x="573" y="32" type="line"/>
      <point x="473" y="32" type="line"/>
      <point x="473" y="32"/>
      <point x="473" y="32"/>
      <point x="473" y="32" type="qcurve"/>
      <point x="641" y="998" type="line"/>
      <point x="641" y="998"/>
      <point x="641" y="998"/>
      <point x="641" y="998" type="qcurve"/>
    </contour>
    <contour>
      <point x="1204" y="0" type="line"/>
      <point x="2240" y="0" type="line"/>
      <point x="2246" y="32" type="line"/>
      <point x="1781" y="32" type="line"/>
      <point x="1787" y="22" type="line"/>
      <point x="2406" y="1006" type="line"/>
      <point x="2409" y="1024" type="line"/>
      <point x="1434" y="1024" type="line"/>
      <point x="1428" y="992" type="line"/>
      <point x="1836" y="992" type="line"/>
      <point x="1830" y="1002" type="line"/>
      <point x="1207" y="18" type="line"/>
    </contour>
    <contour>
      <point x="2289" y="1472" type="line"/>
      <point x="2251" y="1472" type="line"/>
      <point x="2058" y="1161" type="line"/>
      <point x="1964" y="1472" type="line"/>
      <point x="1613" y="1472" type="line"/>
      <point x="1758" y="1124" type="line"/>
      <point x="2072" y="1124" type="line"/>
    </contour>
  </outline>
</glyph>
<glyph name="uni01CB" format="2">
  <advance width="1844"/>
  <unicode hex="01CB"/>
  <anchor x="1599" y="1174" name="top"/>
  <anchor x="434" y="-150" name="bottom"/>
  <outline>
    <contour>
      <point x="-29" y="0" type="line"/>
      <point x="7" y="0" type="line"/>
      <point x="137" y="742" type="line"/>
      <point x="773" y="0" type="line"/>
      <point x="955" y="0" type="line"/>
      <point x="1199" y="1400" type="line"/>
      <point x="1163" y="1400" type="line"/>
      <point x="1032" y="649" type="line"/>
      <point x="393" y="1400" type="line"/>
      <point x="215" y="1400" type="line"/>
    </contour>
    <contour>
      <point x="711" y="-396" type="line"/>
      <point x="715" y="-428" type="line"/>
      <point x="1321" y="-428" type="line" smooth="yes"/>
      <point x="1379.5" y="-428"/>
      <point x="1483.62" y="-381.25"/>
      <point x="1566.88" y="-295.75"/>
      <point x="1625.25" y="-175.5"/>
      <point x="1638" y="-102" type="qcurve" smooth="yes"/>
      <point x="1835" y="1024" type="line"/>
      <point x="1311" y="1024" type="line"/>
      <point x="1063" y="-396" type="line"/>
      <point x="1063" y="-396"/>
      <point x="1063" y="-396"/>
      <point x="1063" y="-396" type="qcurve"/>
    </contour>
    <contour>
      <point x="1334" y="1232" type="line" smooth="yes"/>
      <point x="1319.66" y="1150.5"/>
      <point x="1343.5" y="1122"/>
      <point x="1425" y="1122" type="qcurve" smooth="yes"/>
      <point x="1757" y="1122" type="line" smooth="yes"/>
      <point x="1838.5" y="1122"/>
      <point x="1871.66" y="1150.5"/>
      <point x="1886" y="1232" type="qcurve" smooth="yes"/>
      <point x="1909" y="1364" type="line" smooth="yes"/>
      <point x="1923.34" y="1443.99"/>
      <point x="1899.5" y="1472"/>
      <point x="1818" y="1472" type="qcurve" smooth="yes"/>
      <point x="1486" y="1472" type="line" smooth="yes"/>
      <point x="1404.5" y="1472"/>
      <point x="1371.34" y="1443.99"/>
      <point x="1357" y="1364" type="qcurve" smooth="yes"/>
    </contour>
  </outline>
</glyph>
<glyph name="uni01CC" format="2">
  <advance width="1986"/>
  <unicode hex="01CC"/>
  <anchor x="1741" y="1174" name="top"/>
  <anchor x="510" y="-150" name="bottom"/>
  <outline>
    <contour>
      <point x="-38" y="0" type="line"/>
      <point x="486" y="0" type="line"/>
      <point x="659" y="992" type="line"/>
      <point x="759" y="992" type="line"/>
      <point x="759" y="992"/>
      <point x="759" y="992"/>
      <point x="759" y="992" type="qcurve"/>
      <point x="586" y="0" type="line"/>
      <point x="1110" y="0" type="line"/>
      <point x="1236" y="724" type="line" smooth="yes"/>
      <point x="1263" y="878.5"/>
      <point x="1118" y="1024"/>
      <point x="923" y="1024" type="qcurve" smooth="yes"/>
      <point x="741" y="1024" type="line" smooth="yes"/>
      <point x="713.834" y="1024"/>
      <point x="672.828" y="1009.58"/>
      <point x="660" y="996" type="qcurve"/>
      <point x="665" y="1024" type="line"/>
      <point x="141" y="1024" type="line"/>
    </contour>
    <contour>
      <point x="853" y="-396" type="line"/>
      <point x="857" y="-428" type="line"/>
      <point x="1463" y="-428" type="line" smooth="yes"/>
      <point x="1521.5" y="-428"/>
      <point x="1625.62" y="-381.25"/>
      <point x="1708.88" y="-295.75"/>
      <point x="1767.25" y="-175.5"/>
      <point x="1780" y="-102" type="qcurve" smooth="yes"/>
      <point x="1977" y="1024" type="line"/>
      <point x="1453" y="1024" type="line"/>
      <point x="1205" y="-396" type="line"/>
      <point x="1205" y="-396"/>
      <point x="1205" y="-396"/>
      <point x="1205" y="-396" type="qcurve"/>
    </contour>
    <contour>
      <point x="1476" y="1232" type="line" smooth="yes"/>
      <point x="1461.66" y="1150.5"/>
      <point x="1485.5" y="1122"/>
      <point x="1567" y="1122" type="qcurve" smooth="yes"/>
      <point x="1899" y="1122" type="line" smooth="yes"/>
      <point x="1980.5" y="1122"/>
      <point x="2013.66" y="1150.5"/>
      <point x="2028" y="1232" type="qcurve" smooth="yes"/>
      <point x="2051" y="1364" type="line" smooth="yes"/>
      <point x="2065.34" y="1443.99"/>
      <point x="2041.5" y="1472"/>
      <point x="1960" y="1472" type="qcurve" smooth="yes"/>
      <point x="1628" y="1472" type="line" smooth="yes"/>
      <point x="1546.5" y="1472"/>
      <point x="1513.34" y="1443.99"/>
      <point x="1499" y="1364" type="qcurve" smooth="yes"/>
    </contour>
  </outline>
  <guideline angle="0" x="0" y="988"/>
  <guideline angle="0" x="0" y="870"/>
</glyph>
<glyph name="uni01F8" format="2">
  <advance width="1200"/>
  <unicode hex="01F8"/>
  <anchor x="768" y="1550" name="top"/>
  <anchor x="471" y="-150" name="bottom"/>
  <anchor x="822" y="1500" name="topright"/>
  <outline>
    <contour>
      <point x="8" y="0" type="line"/>
      <point x="44" y="0" type="line"/>
      <point x="174" y="742" type="line"/>
      <point x="810" y="0" type="line"/>
      <point x="992" y="0" type="line"/>
      <point x="1236" y="1400" type="line"/>
      <point x="1200" y="1400" type="line"/>
      <point x="1069" y="649" type="line"/>
      <point x="430" y="1400" type="line"/>
      <point x="252" y="1400" type="line"/>
    </contour>
    <contour>
      <point x="822" y="1500" type="line"/>
      <point x="858" y="1500" type="line"/>
      <point x="817" y="1800" type="line"/>
      <point x="286" y="1800" type="line"/>
    </contour>
  </outline>
</glyph>
<glyph name="Aringacute" format="2">
  <advance width="1234"/>
  <unicode hex="01FA"/>
  <anchor x="759" y="1550" name="top"/>
  <anchor x="432" y="-150" name="bottom"/>
  <anchor x="550" y="0" name="ogonek_in"/>
  <outline>
    <contour>
      <point x="-130" y="0" type="line"/>
      <point x="-89" y="0" type="line"/>
      <point x="56" y="298" type="line"/>
      <point x="514" y="298" type="line"/>
      <point x="550" y="0" type="line"/>
      <point x="1124" y="0" type="line"/>
      <point x="927" y="1400" type="line"/>
      <point x="554" y="1400" type="line"/>
    </contour>
    <contour>
      <point x="74" y="334" type="line"/>
      <point x="422" y="1047" type="line"/>
      <point x="509" y="334" type="line"/>
    </contour>
    <contour>
      <point x="520" y="1639" type="qcurve" smooth="yes"/>
      <point x="510.625" y="1585.75"/>
      <point x="519" y="1519.94"/>
      <point x="570" y="1483.56"/>
      <point x="671.375" y="1471"/>
      <point x="755" y="1471" type="qcurve" smooth="yes"/>
      <point x="838.625" y="1471"/>
      <point x="944.062" y="1483.56"/>
      <point x="1007.44" y="1519.94"/>
      <point x="1038.62" y="1585.75"/>
      <point x="1048" y="1639" type="qcurve" smooth="yes"/>
      <point x="1057.38" y="1692.25"/>
      <point x="1049" y="1758.06"/>
      <point x="998" y="1794.44"/>
      <point x="896.625" y="1807"/>
      <point x="813" y="1807" type="qcurve" smooth="yes"/>
      <point x="729.375" y="1807"/>
      <point x="623.938" y="1794.44"/>
      <point x="560.562" y="1758.06"/>
      <point x="529.375" y="1692.25"/>
    </contour>
    <contour>
      <point x="734" y="1639" type="qcurve" smooth="yes"/>
      <point x="752.11" y="1743.89"/>
      <point x="770.27" y="1779"/>
      <point x="808" y="1779" type="qcurve" smooth="yes"/>
      <point x="845.73" y="1779"/>
      <point x="852.11" y="1743.89"/>
      <point x="834" y="1639" type="qcurve" smooth="yes"/>
      <point x="815.89" y="1534.11"/>
      <point x="796.73" y="1499"/>
      <point x="759" y="1499" type="qcurve" smooth="yes"/>
      <point x="721.27" y="1499"/>
      <point x="715.89" y="1534.11"/>
    </contour>
    <contour>
      <point x="842" y="1867" type="line"/>
      <point x="1215" y="2083" type="line"/>
      <point x="871" y="2083" type="line"/>
      <point x="806" y="1867" type="line"/>
    </contour>
  </outline>
</glyph>
<glyph name="uni0200" format="2">
  <advance width="1234"/>
  <unicode hex="0200"/>
  <anchor x="759" y="1550" name="top"/>
  <anchor x="432" y="-150" name="bottom"/>
  <anchor x="550" y="0" name="ogonek_in"/>
  <anchor x="554.37" y="1500" name="topright"/>
  <outline>
    <contour>
      <point x="-130" y="0" type="line"/>
      <point x="-89" y="0" type="line"/>
      <point x="56" y="298" type="line"/>
      <point x="514" y="298" type="line"/>
      <point x="550" y="0" type="line"/>
      <point x="1124" y="0" type="line"/>
      <point x="927" y="1400" type="line"/>
      <point x="554" y="1400" type="line"/>
    </contour>
    <contour>
      <point x="74" y="334" type="line"/>
      <point x="422" y="1047" type="line"/>
      <point x="509" y="334" type="line"/>
    </contour>
    <contour>
      <point x="1072.17" y="1500" type="line"/>
      <point x="1125.48" y="1800" type="line"/>
      <point x="683.78" y="1800" type="line"/>
      <point x="1041.37" y="1500" type="line"/>
    </contour>
    <contour>
      <point x="585.17" y="1500" type="line"/>
      <point x="638.48" y="1800" type="line"/>
      <point x="196.78" y="1800" type="line"/>
      <point x="554.37" y="1500" type="line"/>
    </contour>
  </outline>
</glyph>
<glyph name="uni0204" format="2">
  <advance width="1107"/>
  <unicode hex="0204"/>
  <anchor x="744" y="1550" name="top"/>
  <anchor x="447" y="-150" name="bottom"/>
  <anchor x="599" y="0" name="ogonek"/>
  <anchor x="539.37" y="1500" name="topright"/>
  <outline>
    <contour>
      <point x="-29" y="0" type="line"/>
      <point x="981" y="0" type="line"/>
      <point x="987" y="36" type="line"/>
      <point x="549" y="36" type="line"/>
      <point x="665" y="700" type="line"/>
      <point x="1049" y="700" type="line"/>
      <point x="1055" y="736" type="line"/>
      <point x="671" y="736" type="line"/>
      <point x="781" y="1364" type="line"/>
      <point x="1205" y="1364" type="line"/>
      <point x="1211" y="1400" type="line"/>
      <point x="215" y="1400" type="line"/>
    </contour>
    <contour>
      <point x="1057.17" y="1500" type="line"/>
      <point x="1110.48" y="1800" type="line"/>
      <point x="668.78" y="1800" type="line"/>
      <point x="1026.37" y="1500" type="line"/>
    </contour>
    <contour>
      <point x="570.17" y="1500" type="line"/>
      <point x="623.48" y="1800" type="line"/>
      <point x="181.78" y="1800" type="line"/>
      <point x="539.37" y="1500" type="line"/>
    </contour>
  </outline>
  <guideline angle="90" x="-127" y="0"/>
</glyph>
<glyph name="uni0209" format="2">
  <advance width="683"/>
  <unicode hex="0209"/>
  <anchor x="195" y="-150" name="bottom"/>
  <anchor x="426" y="1174" name="top"/>
  <anchor x="-4" y="0" name="ogonek"/>
  <outline>
    <contour>
      <point x="-38" y="0" type="line"/>
      <point x="486" y="0" type="line"/>
      <point x="665" y="1024" type="line"/>
      <point x="141" y="1024" type="line"/>
    </contour>
    <contour>
      <point x="742.98" y="1124" type="line"/>
      <point x="738.81" y="1472" type="line"/>
      <point x="322.31" y="1472" type="line"/>
      <point x="714.98" y="1124" type="line"/>
    </contour>
    <contour>
      <point x="286.98" y="1124" type="line"/>
      <point x="282.81" y="1472" type="line"/>
      <point x="-133.69" y="1472" type="line"/>
      <point x="258.98" y="1124" type="line"/>
    </contour>
  </outline>
</glyph>
<glyph name="uni0212" format="2">
  <advance width="1537"/>
  <unicode hex="0212"/>
  <anchor x="768.5" y="-150" name="bottom"/>
  <anchor x="768.5" y="1550" name="top"/>
  <outline>
    <contour>
      <point x="-32" y="0" type="line"/>
      <point x="540" y="0" type="line"/>
      <point x="633" y="530" type="line"/>
      <point x="643" y="530" type="line"/>
      <point x="748" y="0" type="line"/>
      <point x="1370" y="0" type="line"/>
      <point x="1167" y="603" type="line"/>
      <point x="1167" y="603" type="line"/>
      <point x="1248.75" y="636"/>
      <point x="1357.5" y="779"/>
      <point x="1380" y="908" type="qcurve" smooth="yes"/>
      <point x="1403" y="1036" type="line" smooth="yes"/>
      <point x="1438.25" y="1237"/>
      <point x="1221" y="1400"/>
      <point x="1032" y="1400" type="qcurve" smooth="yes"/>
      <point x="212" y="1400" type="line"/>
    </contour>
    <contour>
      <point x="639" y="570" type="line"/>
      <point x="778" y="1364" type="line"/>
      <point x="812" y="1364" type="line" smooth="yes"/>
      <point x="851.239" y="1364"/>
      <point x="882.528" y="1331.17"/>
      <point x="878" y="1304" type="qcurve" smooth="yes"/>
      <point x="760" y="630" type="line" smooth="yes"/>
      <point x="755.472" y="602.834"/>
      <point x="712.239" y="570"/>
      <point x="673" y="570" type="qcurve" smooth="yes"/>
    </contour>
    <contour>
      <point x="804.383" y="1776" type="qcurve" smooth="yes"/>
      <point x="664.883" y="1776"/>
      <point x="489.94" y="1751.53"/>
      <point x="383.679" y="1676.72"/>
      <point x="328.411" y="1538.62"/>
      <point x="308.585" y="1425" type="qcurve"/>
      <point x="634.585" y="1425" type="line"/>
      <point x="652.164" y="1525.88"/>
      <point x="682.777" y="1649.53"/>
      <point x="718.651" y="1717.22"/>
      <point x="764.686" y="1740"/>
      <point x="797.686" y="1740" type="qcurve" smooth="yes"/>
      <point x="830.311" y="1740"/>
      <point x="867.869" y="1717.22"/>
      <point x="879.808" y="1649.53"/>
      <point x="867.164" y="1525.88"/>
      <point x="849.585" y="1425" type="qcurve"/>
      <point x="1175.59" y="1425" type="line"/>
      <point x="1195.41" y="1538.62"/>
      <point x="1188.71" y="1676.72"/>
      <point x="1109.16" y="1751.53"/>
      <point x="943.508" y="1776"/>
    </contour>
  </outline>
</glyph>
<glyph name="uni0216" format="2">
  <advance width="1389"/>
  <unicode hex="0216"/>
  <anchor x="845" y="1550" name="top"/>
  <anchor x="547" y="-150" name="bottom"/>
  <anchor x="594" y="0" name="ogonek"/>
  <anchor x="1432" y="1400" name="horn"/>
  <outline>
    <contour>
      <point x="207" y="1400" type="line"/>
      <point x="21" y="333" type="line" smooth="yes"/>
      <point x="2.625" y="226.875"/>
      <point x="35.9688" y="93.1562"/>
      <point x="128.781" y="17.5938"/>
      <point x="275.75" y="-10"/>
      <point x="371" y="-10" type="qcurve" smooth="yes"/>
      <point x="778" y="-10" type="line" smooth="yes"/>
      <point x="970.75" y="-10"/>
      <point x="1213.25" y="120.75"/>
      <point x="1250" y="333" type="qcurve" smooth="yes"/>
      <point x="1436" y="1400" type="line"/>
      <point x="864" y="1400" type="line"/>
      <point x="625" y="26" type="line"/>
      <point x="625" y="26"/>
      <point x="625" y="26"/>
      <point x="625" y="26" type="qcurve"/>
      <point x="540" y="26" type="line"/>
      <point x="540" y="26"/>
      <point x="540" y="26"/>
      <point x="540" y="26" type="qcurve"/>
      <point x="779" y="1400" type="line"/>
    </contour>
    <contour>
      <point x="881.383" y="1776" type="qcurve" smooth="yes"/>
      <point x="741.883" y="1776"/>
      <point x="566.94" y="1751.53"/>
      <point x="460.679" y="1676.72"/>
      <point x="405.411" y="1538.62"/>
      <point x="385.585" y="1425" type="qcurve"/>
      <point x="711.585" y="1425" type="line"/>
      <point x="729.164" y="1525.88"/>
      <point x="759.777" y="1649.53"/>
      <point x="795.651" y="1717.22"/>
      <point x="841.686" y="1740"/>
      <point x="874.686" y="1740" type="qcurve" smooth="yes"/>
      <point x="907.311" y="1740"/>
      <point x="944.869" y="1717.22"/>
      <point x="956.808" y="1649.53"/>
      <point x="944.164" y="1525.88"/>
      <point x="926.585" y="1425" type="qcurve"/>
      <point x="1252.59" y="1425" type="line"/>
      <point x="1272.41" y="1538.62"/>
      <point x="1265.71" y="1676.72"/>
      <point x="1186.16" y="1751.53"/>
      <point x="1020.51" y="1776"/>
    </contour>
  </outline>
</glyph>
<glyph name="uni021A" format="2">
  <advance width="1144"/>
  <unicode hex="021A"/>
  <anchor x="726" y="1550" name="top"/>
  <anchor x="429" y="-150" name="bottom"/>
  <outline>
    <contour>
      <point x="169" y="0" type="line"/>
      <point x="741" y="0" type="line"/>
      <point x="979" y="1364" type="line"/>
      <point x="1255" y="1364" type="line"/>
      <point x="1261" y="1400" type="line"/>
      <point x="137" y="1400" type="line"/>
      <point x="131" y="1364" type="line"/>
      <point x="407" y="1364" type="line"/>
    </contour>
    <contour>
      <point x="302" y="-704" type="line"/>
      <point x="553" y="-454" type="line"/>
      <point x="564.319" y="-441.926"/>
      <point x="579.718" y="-406.939"/>
      <point x="585" y="-376" type="qcurve" smooth="yes"/>
      <point x="614" y="-214" type="line" smooth="yes"/>
      <point x="624.564" y="-154.387"/>
      <point x="592.405" y="-121"/>
      <point x="526" y="-121" type="qcurve" smooth="yes"/>
      <point x="342" y="-121" type="line" smooth="yes"/>
      <point x="275.595" y="-121"/>
      <point x="232.564" y="-154.387"/>
      <point x="222" y="-214" type="qcurve" smooth="yes"/>
      <point x="193" y="-376" type="line" smooth="yes"/>
      <point x="182.436" y="-437.123"/>
      <point x="214.595" y="-471"/>
      <point x="281" y="-471" type="qcurve" smooth="yes"/>
      <point x="417" y="-471" type="line"/>
      <point x="282" y="-699" type="line"/>
    </contour>
  </outline>
</glyph>
<glyph name="uni022C" format="2">
  <advance width="1387"/>
  <unicode hex="022C"/>
  <anchor x="949" y="2146" name="top"/>
  <anchor x="547" y="-160" name="bottom"/>
  <anchor x="1382" y="1076" name="horn"/>
  <anchor x="592" y="0" name="ogonek"/>
  <outline>
    <contour>
      <point x="142" y="1076" type="qcurve" smooth="yes"/>
      <point x="13" y="336" type="line" smooth="yes"/>
      <point x="-23.2208" y="129.24"/>
      <point x="164.786" y="-10"/>
      <point x="364" y="-10" type="qcurve" smooth="yes"/>
      <point x="782" y="-10" type="line" smooth="yes"/>
      <point x="981.214" y="-10"/>
      <point x="1220.02" y="127.73"/>
      <point x="1257" y="336" type="qcurve" smooth="yes"/>
      <point x="1386" y="1076" type="line" smooth="yes"/>
      <point x="1421.25" y="1277"/>
      <point x="1219" y="1410"/>
      <point x="1030" y="1410" type="qcurve" smooth="yes"/>
      <point x="612" y="1410" type="line" smooth="yes"/>
      <point x="423" y="1410"/>
      <point x="177.25" y="1277"/>
    </contour>
    <contour>
      <point x="766" y="1374" type="line"/>
      <point x="766" y="1374"/>
      <point x="766" y="1374"/>
      <point x="766" y="1374" type="qcurve"/>
      <point x="866" y="1374" type="line"/>
      <point x="866" y="1374"/>
      <point x="866" y="1374"/>
      <point x="866" y="1374" type="qcurve"/>
      <point x="631" y="26" type="line"/>
      <point x="631" y="26"/>
      <point x="631" y="26"/>
      <point x="631" y="26" type="qcurve"/>
      <point x="531" y="26" type="line"/>
      <point x="531" y="26"/>
      <point x="531" y="26"/>
      <point x="531" y="26" type="qcurve"/>
    </contour>
    <contour>
      <point x="498" y="1515" type="qcurve"/>
      <point x="527" y="1510" type="line"/>
      <point x="536.055" y="1529.62"/>
      <point x="576.687" y="1581"/>
      <point x="628" y="1581" type="qcurve" smooth="yes"/>
      <point x="661.375" y="1581"/>
      <point x="739.969" y="1554.75"/>
      <point x="829.781" y="1523.25"/>
      <point x="930.5" y="1497"/>
      <point x="986" y="1497" type="qcurve" smooth="yes"/>
      <point x="1030.25" y="1497"/>
      <point x="1103.5" y="1557.41"/>
      <point x="1165" y="1658.84"/>
      <point x="1216.5" y="1791.62"/>
      <point x="1239" y="1864" type="qcurve"/>
      <point x="1210" y="1869" type="line"/>
      <point x="1201.7" y="1849.38"/>
      <point x="1161.31" y="1798"/>
      <point x="1110" y="1798" type="qcurve" smooth="yes"/>
      <point x="1076.62" y="1798"/>
      <point x="998.031" y="1824.25"/>
      <point x="908.219" y="1855.75"/>
      <point x="807.5" y="1882"/>
      <point x="752" y="1882" type="qcurve" smooth="yes"/>
      <point x="707.75" y="1882"/>
      <point x="635.031" y="1826.09"/>
      <point x="573.719" y="1727.66"/>
      <point x="521.625" y="1593.38"/>
    </contour>
    <contour>
      <point x="635" y="2010" type="line"/>
      <point x="1215" y="2010" type="line"/>
      <point x="1221" y="2046" type="line"/>
      <point x="641" y="2046" type="line"/>
    </contour>
  </outline>
  <guideline angle="90" x="314" y="0"/>
  <guideline angle="90" x="994" y="0"/>
  <guideline angle="90" x="344" y="0"/>
  <guideline angle="90" x="964" y="0"/>
</glyph>
<glyph name="uni022D" format="2">
  <advance width="1275"/>
  <unicode hex="022D"/>
  <anchor x="814" y="1701" name="top"/>
  <anchor x="491" y="-150" name="bottom"/>
  <anchor x="1226" y="776" name="horn"/>
  <anchor x="536" y="0" name="ogonek"/>
  <outline>
    <contour>
      <point x="-9" y="258" type="line" smooth="yes"/>
      <point x="-33.1472" y="119.154"/>
      <point x="89.5156" y="-6"/>
      <point x="251" y="-6" type="qcurve" smooth="yes"/>
      <point x="787" y="-6" type="line" smooth="yes"/>
      <point x="949.994" y="-6"/>
      <point x="1114.85" y="119.154"/>
      <point x="1139" y="258" type="qcurve" smooth="yes"/>
      <point x="1229" y="776" type="line" smooth="yes"/>
      <point x="1252.39" y="907.3"/>
      <point x="1127.98" y="1030"/>
      <point x="968" y="1030" type="qcurve" smooth="yes"/>
      <point x="432" y="1030" type="line" smooth="yes"/>
      <point x="272.025" y="1030"/>
      <point x="104.393" y="907.3"/>
      <point x="81" y="776" type="qcurve" smooth="yes"/>
    </contour>
    <contour>
      <point x="475" y="26" type="qcurve"/>
      <point x="644" y="998" type="line"/>
      <point x="644" y="998"/>
      <point x="644" y="998"/>
      <point x="644" y="998" type="qcurve"/>
      <point x="744" y="998" type="line"/>
      <point x="744" y="998"/>
      <point x="744" y="998"/>
      <point x="744" y="998" type="qcurve"/>
      <point x="575" y="26" type="line"/>
      <point x="575" y="26"/>
      <point x="575" y="26"/>
      <point x="575" y="26" type="qcurve"/>
      <point x="475" y="26" type="line"/>
      <point x="475" y="26"/>
      <point x="475" y="26"/>
    </contour>
    <contour>
      <point x="374" y="1129" type="qcurve"/>
      <point x="403" y="1124" type="line"/>
      <point x="411.301" y="1143.62"/>
      <point x="451.687" y="1195"/>
      <point x="503" y="1195" type="qcurve" smooth="yes"/>
      <point x="536.375" y="1195"/>
      <point x="620.562" y="1168.75"/>
      <point x="712.438" y="1137.25"/>
      <point x="807.125" y="1111"/>
      <point x="851" y="1111" type="qcurve" smooth="yes"/>
      <point x="962" y="1111"/>
      <point x="1063" y="1293.25"/>
      <point x="1108" y="1438" type="qcurve"/>
      <point x="1079" y="1443" type="line"/>
      <point x="1069.94" y="1423.38"/>
      <point x="1029.31" y="1372"/>
      <point x="978" y="1372" type="qcurve" smooth="yes"/>
      <point x="944.625" y="1372"/>
      <point x="860.719" y="1398.25"/>
      <point x="769.031" y="1429.75"/>
      <point x="674.25" y="1456"/>
      <point x="630" y="1456" type="qcurve" smooth="yes"/>
      <point x="519" y="1456"/>
      <point x="420.5" y="1285.75"/>
    </contour>
    <contour>
      <point x="501" y="1569" type="line"/>
      <point x="1081" y="1569" type="line"/>
      <point x="1087" y="1601" type="line"/>
      <point x="507" y="1601" type="line"/>
    </contour>
  </outline>
  <guideline angle="90" x="185" y="0"/>
  <guideline angle="90" x="865" y="0"/>
  <guideline angle="90" x="215" y="0"/>
  <guideline angle="90" x="835" y="0"/>
</glyph>
<glyph name="uni0237" format="2">
  <advance width="713"/>
  <unicode hex="0237"/>
  <anchor x="456" y="1174" name="top"/>
  <outline>
    <contour>
      <point x="-432" y="-396" type="line"/>
      <point x="-428" y="-428" type="line"/>
      <point x="178" y="-428" type="line" smooth="yes"/>
      <point x="236.5" y="-428"/>
      <point x="340.625" y="-381.25"/>
      <point x="423.875" y="-295.75"/>
      <point x="482.25" y="-175.5"/>
      <point x="495" y="-102" type="qcurve" smooth="yes"/>
      <point x="692" y="1024" type="line"/>
      <point x="168" y="1024" type="line"/>
      <point x="-80" y="-396" type="line"/>
      <point x="-80" y="-396"/>
      <point x="-80" y="-396"/>
      <point x="-80" y="-396" type="qcurve"/>
    </contour>
  </outline>
</glyph>
<glyph name="hungarumlaut" format="2">
  <advance width="1199"/>
  <unicode hex="02DD"/>
  <outline>
    <contour>
      <point x="100" y="1100" type="line"/>
      <point x="128" y="1100" type="line"/>
      <point x="643" y="1448" type="line"/>
      <point x="227" y="1448" type="line"/>
    </contour>
    <contour>
      <point x="556" y="1100" type="line"/>
      <point x="584" y="1100" type="line"/>
      <point x="1099" y="1448" type="line"/>
      <point x="683" y="1448" type="line"/>
    </contour>
  </outline>
</glyph>
<glyph name="uni0308" format="2">
  <unicode hex="0308"/>
  <anchor x="79" y="1172" name="_top"/>
  <anchor x="158" y="1622" name="_bottom"/>
  <anchor x="143" y="1535" name="top"/>
  <outline>
    <contour>
      <point x="-258" y="1110" type="qcurve" smooth="yes"/>
      <point x="-126" y="1110" type="line" smooth="yes"/>
      <point x="-44.5032" y="1110"/>
      <point x="-11.3374" y="1138.5"/>
      <point x="3" y="1220" type="qcurve" smooth="yes"/>
      <point x="25" y="1342" type="line" smooth="yes"/>
      <point x="38.5828" y="1421.99"/>
      <point x="15.4968" y="1450"/>
      <point x="-66" y="1450" type="qcurve" smooth="yes"/>
      <point x="-198" y="1450" type="line" smooth="yes"/>
      <point x="-279.497" y="1450"/>
      <point x="-313.417" y="1421.99"/>
      <point x="-327" y="1342" type="qcurve" smooth="yes"/>
      <point x="-349" y="1220" type="line" smooth="yes"/>
      <point x="-363.337" y="1138.5"/>
      <point x="-339.497" y="1110"/>
    </contour>
    <contour>
      <point x="262" y="1110" type="qcurve" smooth="yes"/>
      <point x="394" y="1110" type="line" smooth="yes"/>
      <point x="475.497" y="1110"/>
      <point x="508.663" y="1138.5"/>
      <point x="523" y="1220" type="qcurve" smooth="yes"/>
      <point x="545" y="1342" type="line" smooth="yes"/>
      <point x="558.583" y="1421.99"/>
      <point x="535.497" y="1450"/>
      <point x="454" y="1450" type="qcurve" smooth="yes"/>
      <point x="322" y="1450" type="line" smooth="yes"/>
      <point x="240.503" y="1450"/>
      <point x="206.583" y="1421.99"/>
      <point x="193" y="1342" type="qcurve" smooth="yes"/>
      <point x="171" y="1220" type="line" smooth="yes"/>
      <point x="156.663" y="1138.5"/>
      <point x="180.503" y="1110"/>
    </contour>
  </outline>
</glyph>
<glyph name="uni030B" format="2">
  <unicode hex="030B"/>
  <anchor x="75" y="1150" name="_top"/>
  <anchor x="-228.21" y="1100" name="_topright"/>
  <outline>
    <contour>
      <point x="-259.01" y="1100" type="line"/>
      <point x="-231.01" y="1100" type="line"/>
      <point x="284.399" y="1448" type="line"/>
      <point x="-132.101" y="1448" type="line"/>
    </contour>
    <contour>
      <point x="196.99" y="1100" type="line"/>
      <point x="224.99" y="1100" type="line"/>
      <point x="740.399" y="1448" type="line"/>
      <point x="323.899" y="1448" type="line"/>
    </contour>
  </outline>
</glyph>
<glyph name="uni030F" format="2">
  <unicode hex="030F"/>
  <anchor x="83" y="1150" name="_top"/>
  <anchor x="369.18" y="1100" name="_topright"/>
  <outline>
    <contour>
      <point x="399.98" y="1100" type="line"/>
      <point x="371.98" y="1100" type="line"/>
      <point x="-20.6896" y="1448" type="line"/>
      <point x="395.81" y="1448" type="line"/>
    </contour>
    <contour>
      <point x="-56.02" y="1100" type="line"/>
      <point x="-84.02" y="1100" type="line"/>
      <point x="-476.69" y="1448" type="line"/>
      <point x="-60.1896" y="1448" type="line"/>
    </contour>
  </outline>
</glyph>
<glyph name="uni0326" format="2">
  <unicode hex="0326"/>
  <anchor x="-16" y="-150" name="_bottom"/>
  <outline>
    <contour>
      <point x="-143" y="-704" type="line"/>
      <point x="108" y="-454" type="line"/>
      <point x="119.319" y="-441.926"/>
      <point x="134.718" y="-406.939"/>
      <point x="140" y="-376" type="qcurve" smooth="yes"/>
      <point x="169" y="-214" type="line" smooth="yes"/>
      <point x="179.564" y="-154.387"/>
      <point x="147.405" y="-121"/>
      <point x="81" y="-121" type="qcurve" smooth="yes"/>
      <point x="-103" y="-121" type="line" smooth="yes"/>
      <point x="-169.405" y="-121"/>
      <point x="-212.436" y="-154.387"/>
      <point x="-223" y="-214" type="qcurve" smooth="yes"/>
      <point x="-252" y="-376" type="line" smooth="yes"/>
      <point x="-262.564" y="-437.123"/>
      <point x="-230.405" y="-471"/>
      <point x="-164" y="-471" type="qcurve" smooth="yes"/>
      <point x="-28" y="-471" type="line"/>
      <point x="-163" y="-699" type="line"/>
    </contour>
  </outline>
</glyph>
<glyph name="uni040B" format="2">
  <advance width="1579"/>
  <unicode hex="040B"/>
  <outline>
    <contour>
      <point x="169" y="0" type="line"/>
      <point x="741" y="0" type="line"/>
      <point x="891" y="858" type="line"/>
      <point x="933" y="858" type="line" smooth="yes"/>
      <point x="972.239" y="858"/>
      <point x="1003.28" y="825.166"/>
      <point x="998" y="798" type="qcurve"/>
      <point x="859" y="0" type="line"/>
      <point x="1431" y="0" type="line"/>
      <point x="1529" y="560" type="line" smooth="yes"/>
      <point x="1546.62" y="660.5"/>
      <point x="1510.66" y="790"/>
      <point x="1415.59" y="865"/>
      <point x="1267.5" y="894"/>
      <point x="1173" y="894" type="qcurve" smooth="yes"/>
      <point x="897" y="894" type="line"/>
      <point x="979" y="1364" type="line"/>
      <point x="1255" y="1364" type="line"/>
      <point x="1261" y="1400" type="line"/>
      <point x="137" y="1400" type="line"/>
      <point x="131" y="1364" type="line"/>
      <point x="407" y="1364" type="line"/>
    </contour>
  </outline>
</glyph>
<glyph name="uni0415" format="2">
  <advance width="1111"/>
  <unicode hex="0415"/>
  <anchor x="744" y="1550" name="top"/>
  <anchor x="447" y="-150" name="bottom"/>
  <anchor x="599" y="0" name="ogonek"/>
  <outline>
    <contour>
      <point x="-29" y="0" type="line"/>
      <point x="981" y="0" type="line"/>
      <point x="987" y="36" type="line"/>
      <point x="549" y="36" type="line"/>
      <point x="665" y="700" type="line"/>
      <point x="1049" y="700" type="line"/>
      <point x="1055" y="736" type="line"/>
      <point x="671" y="736" type="line"/>
      <point x="781" y="1364" type="line"/>
      <point x="1205" y="1364" type="line"/>
      <point x="1211" y="1400" type="line"/>
      <point x="215" y="1400" type="line"/>
    </contour>
  </outline>
  <guideline angle="90" x="-127" y="0"/>
</glyph>
<glyph name="uni0419" format="2">
  <advance width="1473"/>
  <unicode hex="0419"/>
  <anchor x="592" y="-150" name="bottom"/>
  <anchor x="955" y="1925" name="top"/>
  <outline>
    <contour>
      <point x="-29" y="0" type="line"/>
      <point x="523" y="0" type="line"/>
      <point x="900" y="1126" type="line"/>
      <point x="703" y="0" type="line"/>
      <point x="1265" y="0" type="line"/>
      <point x="1509" y="1400" type="line"/>
      <point x="957" y="1400" type="line"/>
      <point x="584" y="290" type="line"/>
      <point x="777" y="1400" type="line"/>
      <point x="215" y="1400" type="line"/>
    </contour>
    <contour>
      <point x="879" y="1475" type="qcurve" smooth="yes"/>
      <point x="994.125" y="1475"/>
      <point x="1138.59" y="1501.69"/>
      <point x="1227.66" y="1577.81"/>
      <point x="1276.5" y="1714.75"/>
      <point x="1296" y="1825" type="qcurve"/>
      <point x="1041" y="1825" type="line"/>
      <point x="1021.12" y="1713.62"/>
      <point x="990.094" y="1586.41"/>
      <point x="956.156" y="1522.84"/>
      <point x="913.5" y="1507"/>
      <point x="882" y="1507" type="qcurve" smooth="yes"/>
      <point x="849.375" y="1507"/>
      <point x="811" y="1522.84"/>
      <point x="799" y="1586.41"/>
      <point x="813.125" y="1713.62"/>
      <point x="833" y="1825" type="qcurve"/>
      <point x="578" y="1825" type="line"/>
      <point x="558.5" y="1714.75"/>
      <point x="561.344" y="1577.81"/>
      <point x="626.406" y="1501.69"/>
      <point x="763.875" y="1475"/>
    </contour>
  </outline>
</glyph>
<glyph name="uni041F" format="2">
  <advance width="1418"/>
  <unicode hex="041F"/>
  <outline>
    <contour>
      <point x="-29" y="0" type="line"/>
      <point x="543" y="0" type="line"/>
      <point x="781" y="1364" type="line"/>
      <point x="876" y="1364" type="line"/>
      <point x="638" y="0" type="line"/>
      <point x="1210" y="0" type="line"/>
      <point x="1454" y="1400" type="line"/>
      <point x="215" y="1400" type="line"/>
    </contour>
  </outline>
</glyph>
<glyph name="uni0423" format="2">
  <advance width="1267"/>
  <unicode hex="0423"/>
  <anchor x="786" y="1550" name="top"/>
  <outline>
    <contour>
      <point x="122" y="0" type="line"/>
      <point x="350" y="0" type="line" smooth="yes"/>
      <point x="414.896" y="0"/>
      <point x="532.515" y="73.1412"/>
      <point x="571" y="132" type="qcurve" smooth="yes"/>
      <point x="1403" y="1400" type="line"/>
      <point x="1364" y="1400" type="line"/>
      <point x="911" y="711" type="line"/>
      <point x="680" y="1400" type="line"/>
      <point x="117" y="1400" type="line"/>
      <point x="555" y="170" type="line"/>
      <point x="539" y="145" type="line" smooth="yes"/>
      <point x="503.534" y="91.4234"/>
      <point x="415.613" y="36"/>
      <point x="356" y="36" type="qcurve" smooth="yes"/>
      <point x="120" y="36" type="line"/>
    </contour>
  </outline>
  <guideline angle="90" x="400" y="0"/>
</glyph>
<glyph name="uni0427" format="2">
  <advance width="1392"/>
  <unicode hex="0427"/>
  <anchor x="839" y="1550" name="top"/>
  <outline>
    <contour>
      <point x="614" y="0" type="line"/>
      <point x="1184" y="0" type="line"/>
      <point x="1428" y="1400" type="line"/>
      <point x="858" y="1400" type="line"/>
      <point x="695" y="466" type="line"/>
      <point x="605" y="466" type="line"/>
      <point x="605" y="466"/>
      <point x="605" y="466"/>
      <point x="605" y="466" type="qcurve"/>
      <point x="768" y="1400" type="line"/>
      <point x="195" y="1400" type="line"/>
      <point x="93" y="814" type="line" smooth="yes"/>
      <point x="75" y="711.25"/>
      <point x="105.625" y="565.562"/>
      <point x="194.875" y="472.938"/>
      <point x="338.75" y="430"/>
      <point x="434" y="430" type="qcurve" smooth="yes"/>
      <point x="689" y="430" type="line"/>
    </contour>
  </outline>
</glyph>
<glyph name="uni0429" format="2">
  <advance width="2104"/>
  <unicode hex="0429"/>
  <outline>
    <contour>
      <point x="-29" y="0" type="line"/>
      <point x="1637" y="0" type="line"/>
      <point x="1603" y="-364" type="line"/>
      <point x="1953" y="-364" type="line"/>
      <point x="2023" y="36" type="line"/>
      <point x="1841" y="36" type="line"/>
      <point x="2079" y="1400" type="line"/>
      <point x="1507" y="1400" type="line"/>
      <point x="1269" y="36" type="line"/>
      <point x="1169" y="36" type="line"/>
      <point x="1407" y="1400" type="line"/>
      <point x="861" y="1400" type="line"/>
      <point x="623" y="36" type="line"/>
      <point x="523" y="36" type="line"/>
      <point x="761" y="1400" type="line"/>
      <point x="215" y="1400" type="line"/>
    </contour>
  </outline>
</glyph>
<glyph name="uni042D" format="2">
  <advance width="1307"/>
  <unicode hex="042D"/>
  <anchor x="765" y="1550" name="top"/>
  <outline>
    <contour>
      <point x="316" y="-10" type="qcurve" smooth="yes"/>
      <point x="702" y="-10" type="line" smooth="yes"/>
      <point x="901.214" y="-10"/>
      <point x="1137.78" y="129.24"/>
      <point x="1174" y="336" type="qcurve" smooth="yes"/>
      <point x="1303" y="1076" type="line" smooth="yes"/>
      <point x="1337.5" y="1277"/>
      <point x="1139" y="1410"/>
      <point x="950" y="1410" type="qcurve" smooth="yes"/>
      <point x="570" y="1410" type="line" smooth="yes"/>
      <point x="381" y="1410"/>
      <point x="131.5" y="1277"/>
      <point x="97" y="1076" type="qcurve" smooth="yes"/>
      <point x="81" y="981" type="line"/>
      <point x="639" y="901" type="line"/>
      <point x="721" y="1374" type="line"/>
      <point x="721" y="1374"/>
      <point x="721" y="1374"/>
      <point x="721" y="1374" type="qcurve"/>
      <point x="783" y="1374" type="line"/>
      <point x="783" y="1374"/>
      <point x="783" y="1374"/>
      <point x="783" y="1374" type="qcurve"/>
      <point x="672" y="736" type="line"/>
      <point x="405" y="736" type="line"/>
      <point x="398" y="696" type="line"/>
      <point x="665" y="696" type="line"/>
      <point x="547" y="26" type="line"/>
      <point x="547" y="26"/>
      <point x="547" y="26"/>
      <point x="547" y="26" type="qcurve"/>
      <point x="479" y="26" type="line"/>
      <point x="479" y="26"/>
      <point x="479" y="26"/>
      <point x="479" y="26" type="qcurve"/>
      <point x="567" y="526" type="line"/>
      <point x="-19" y="446" type="line"/>
      <point x="-38" y="336" type="line" smooth="yes"/>
      <point x="-74" y="129"/>
      <point x="118" y="-10"/>
    </contour>
  </outline>
</glyph>
<glyph name="uni0431" format="2">
  <advance width="1278"/>
  <unicode hex="0431"/>
  <outline>
    <contour>
      <point x="1279" y="1400" type="line"/>
      <point x="1277" y="1388" type="line" smooth="yes"/>
      <point x="1273.98" y="1369.89"/>
      <point x="1244.17" y="1351.51"/>
      <point x="1217" y="1350" type="qcurve" smooth="yes"/>
      <point x="560" y="1321" type="line" smooth="yes"/>
      <point x="365.313" y="1312.7"/>
      <point x="141.712" y="1121.72"/>
      <point x="107" y="921" type="qcurve" smooth="yes"/>
      <point x="-8" y="265" type="line" smooth="yes"/>
      <point x="-33.6564" y="117.098"/>
      <point x="91.9328" y="-6"/>
      <point x="267" y="-6" type="qcurve" smooth="yes"/>
      <point x="770" y="-6" type="line" smooth="yes"/>
      <point x="947.331" y="-6"/>
      <point x="1114.34" y="117.608"/>
      <point x="1140" y="264" type="qcurve" smooth="yes"/>
      <point x="1198" y="595" type="line" smooth="yes"/>
      <point x="1222.15" y="735.356"/>
      <point x="1100.84" y="859"/>
      <point x="922" y="859" type="qcurve" smooth="yes"/>
      <point x="445" y="859" type="line" smooth="yes"/>
      <point x="298.608" y="859"/>
      <point x="136.466" y="775.816"/>
      <point x="101" y="683" type="qcurve"/>
      <point x="112" y="743" type="line" smooth="yes"/>
      <point x="129.356" y="844.871"/>
      <point x="281.43" y="950.227"/>
      <point x="375" y="954" type="qcurve" smooth="yes"/>
      <point x="933" y="977" type="line" smooth="yes"/>
      <point x="1017.38" y="980.375"/>
      <point x="1140.88" y="1015.06"/>
      <point x="1228.62" y="1094.94"/>
      <point x="1285.38" y="1228.62"/>
      <point x="1303" y="1331" type="qcurve" smooth="yes"/>
      <point x="1315" y="1400" type="line"/>
    </contour>
    <contour>
      <point x="475" y="26" type="line"/>
      <point x="475" y="26"/>
      <point x="475" y="26"/>
      <point x="475" y="26" type="qcurve"/>
      <point x="614" y="827" type="line"/>
      <point x="614" y="827"/>
      <point x="614" y="827"/>
      <point x="614" y="827" type="qcurve"/>
      <point x="714" y="827" type="line"/>
      <point x="714" y="827"/>
      <point x="714" y="827"/>
      <point x="714" y="827" type="qcurve"/>
      <point x="575" y="26" type="line"/>
      <point x="575" y="26"/>
      <point x="575" y="26"/>
      <point x="575" y="26" type="qcurve"/>
    </contour>
  </outline>
</glyph>
<glyph name="uni0438" format="2">
  <advance width="1349"/>
  <unicode hex="0438"/>
  <anchor x="750" y="1150" name="top"/>
  <outline>
    <contour>
      <point x="-46" y="0" type="line"/>
      <point x="479" y="0" type="line"/>
      <point x="794" y="873" type="line"/>
      <point x="642" y="0" type="line"/>
      <point x="1157" y="0" type="line"/>
      <point x="1336" y="1024" type="line"/>
      <point x="811" y="1024" type="line"/>
      <point x="494" y="141" type="line"/>
      <point x="648" y="1024" type="line"/>
      <point x="133" y="1024" type="line"/>
    </contour>
  </outline>
</glyph>
<glyph name="uni0439" format="2">
  <advance width="1349"/>
  <unicode hex="0439"/>
  <anchor x="816" y="1525" name="top"/>
  <outline>
    <contour>
      <point x="-46" y="0" type="line"/>
      <point x="479" y="0" type="line"/>
      <point x="794" y="873" type="line"/>
      <point x="642" y="0" type="line"/>
      <point x="1157" y="0" type="line"/>
      <point x="1336" y="1024" type="line"/>
      <point x="811" y="1024" type="line"/>
      <point x="494" y="141" type="line"/>
      <point x="648" y="1024" type="line"/>
      <point x="133" y="1024" type="line"/>
    </contour>
    <contour>
      <point x="740" y="1075" type="qcurve" smooth="yes"/>
      <point x="855.125" y="1075"/>
      <point x="999.594" y="1101.69"/>
      <point x="1088.66" y="1177.81"/>
      <point x="1137.5" y="1314.75"/>
      <point x="1157" y="1425" type="qcurve"/>
      <point x="902" y="1425" type="line"/>
      <point x="882.125" y="1313.62"/>
      <point x="851.094" y="1186.41"/>
      <point x="817.156" y="1122.84"/>
      <point x="774.5" y="1107"/>
      <point x="743" y="1107" type="qcurve" smooth="yes"/>
      <point x="710.375" y="1107"/>
      <point x="672" y="1122.84"/>
      <point x="660" y="1186.41"/>
      <point x="674.125" y="1313.62"/>
      <point x="694" y="1425" type="qcurve"/>
      <point x="439" y="1425" type="line"/>
      <point x="419.5" y="1314.75"/>
      <point x="422.344" y="1177.81"/>
      <point x="487.406" y="1101.69"/>
      <point x="624.875" y="1075"/>
    </contour>
  </outline>
</glyph>
<glyph name="uni0445" format="2">
  <advance width="1208"/>
  <unicode hex="0445"/>
  <anchor x="690" y="1174" name="top"/>
  <anchor x="459" y="-150" name="bottom"/>
  <outline>
    <contour>
      <point x="-88" y="0" type="line"/>
      <point x="-40" y="0" type="line"/>
      <point x="359" y="368" type="line"/>
      <point x="526" y="0" type="line"/>
      <point x="1088" y="0" type="line"/>
      <point x="774" y="691" type="line"/>
      <point x="1129" y="1024" type="line"/>
      <point x="1081" y="1024" type="line"/>
      <point x="760" y="722" type="line"/>
      <point x="623" y="1024" type="line"/>
      <point x="61" y="1024" type="line"/>
      <point x="344" y="400" type="line"/>
    </contour>
  </outline>
</glyph>
<glyph name="uni0447" format="2">
  <advance width="1279"/>
  <unicode hex="0447"/>
  <anchor x="689" y="1150" name="top"/>
  <outline>
    <contour>
      <point x="563" y="0" type="line"/>
      <point x="1087" y="0" type="line"/>
      <point x="1265" y="1024" type="line"/>
      <point x="741" y="1024" type="line"/>
      <point x="609" y="266" type="line"/>
      <point x="513" y="266" type="line"/>
      <point x="513" y="266"/>
      <point x="513" y="266"/>
      <point x="513" y="266" type="qcurve"/>
      <point x="645" y="1024" type="line"/>
      <point x="121" y="1024" type="line"/>
      <point x="53" y="633" type="line" smooth="yes"/>
      <point x="22.0614" y="453.405"/>
      <point x="182.178" y="240"/>
      <point x="358" y="240" type="qcurve" smooth="yes"/>
      <point x="605" y="240" type="line"/>
    </contour>
  </outline>
</glyph>
<glyph name="uni0449" format="2">
  <advance width="2026"/>
  <unicode hex="0449"/>
  <outline>
    <contour>
      <point x="-46" y="0" type="line"/>
      <point x="1564" y="0" type="line"/>
      <point x="1531" y="-364" type="line"/>
      <point x="1865" y="-364" type="line"/>
      <point x="1934" y="32" type="line"/>
      <point x="1732" y="32" type="line"/>
      <point x="1905" y="1024" type="line"/>
      <point x="1381" y="1024" type="line"/>
      <point x="1208" y="32" type="line"/>
      <point x="1108" y="32" type="line"/>
      <point x="1281" y="1024" type="line"/>
      <point x="757" y="1024" type="line"/>
      <point x="584" y="32" type="line"/>
      <point x="484" y="32" type="line"/>
      <point x="657" y="1024" type="line"/>
      <point x="133" y="1024" type="line"/>
    </contour>
  </outline>
  <guideline angle="260.1" color="1,0,0,1" name="align" x="1815.7" y="32"/>
</glyph>
<glyph name="uni044D" format="2">
  <advance width="1257"/>
  <unicode hex="044D"/>
  <outline>
    <contour>
      <point x="268" y="-6" type="qcurve" smooth="yes"/>
      <point x="748" y="-6" type="line" smooth="yes"/>
      <point x="926.086" y="-6"/>
      <point x="1093.34" y="117.608"/>
      <point x="1119" y="264" type="qcurve" smooth="yes"/>
      <point x="1208" y="770" type="line" smooth="yes"/>
      <point x="1232.15" y="910.356"/>
      <point x="1102.07" y="1030"/>
      <point x="927" y="1030" type="qcurve" smooth="yes"/>
      <point x="451" y="1030" type="line" smooth="yes"/>
      <point x="275.933" y="1030"/>
      <point x="108.147" y="912.846"/>
      <point x="84" y="774" type="qcurve" smooth="yes"/>
      <point x="72" y="705" type="line"/>
      <point x="584" y="636" type="line"/>
      <point x="647" y="998" type="line"/>
      <point x="647" y="998"/>
      <point x="647" y="998"/>
      <point x="647" y="998" type="qcurve"/>
      <point x="723" y="998" type="line"/>
      <point x="723" y="998"/>
      <point x="723" y="998"/>
      <point x="723" y="998" type="qcurve"/>
      <point x="643" y="538" type="line"/>
      <point x="392" y="538" type="line"/>
      <point x="387" y="509" type="line"/>
      <point x="638" y="509" type="line"/>
      <point x="553" y="26" type="line"/>
      <point x="553" y="26"/>
      <point x="553" y="26"/>
      <point x="553" y="26" type="qcurve"/>
      <point x="473" y="26" type="line"/>
      <point x="473" y="26"/>
      <point x="473" y="26"/>
      <point x="473" y="26" type="qcurve"/>
      <point x="538" y="395" type="line"/>
      <point x="2" y="326" type="line"/>
      <point x="-9" y="264" type="line" smooth="yes"/>
      <point x="-34.6564" y="117.608"/>
      <point x="89.9144" y="-6"/>
    </contour>
  </outline>
</glyph>
<glyph name="uni044F" format="2">
  <advance width="1289"/>
  <unicode hex="044F"/>
  <outline>
    <contour>
      <point x="-153" y="0" type="line"/>
      <point x="399" y="0" type="line"/>
      <point x="639" y="376" type="line"/>
      <point x="639" y="376" type="line"/>
      <point x="573" y="0" type="line"/>
      <point x="1097" y="0" type="line"/>
      <point x="1276" y="1024" type="line"/>
      <point x="469" y="1024" type="line" smooth="yes"/>
      <point x="306.006" y="1024"/>
      <point x="101.656" y="904.638"/>
      <point x="76" y="759" type="qcurve" smooth="yes"/>
      <point x="56" y="641" type="line" smooth="yes"/>
      <point x="37.8896" y="536.865"/>
      <point x="111.994" y="419.147"/>
      <point x="195" y="395" type="qcurve"/>
      <point x="195" y="395" type="line"/>
    </contour>
    <contour>
      <point x="621" y="408" type="line" smooth="yes"/>
      <point x="584.025" y="408"/>
      <point x="540.963" y="435.025"/>
      <point x="547" y="472" type="qcurve" smooth="yes"/>
      <point x="627" y="928" type="line" smooth="yes"/>
      <point x="633.791" y="964.975"/>
      <point x="686.025" y="992"/>
      <point x="723" y="992" type="qcurve" smooth="yes"/>
      <point x="746" y="992" type="line"/>
      <point x="644" y="408" type="line"/>
    </contour>
  </outline>
  <guideline angle="0" color="1,0,0,1" x="0" y="376"/>
</glyph>
<glyph name="uni0451" format="2">
  <advance width="1278"/>
  <unicode hex="0451"/>
  <anchor x="786" y="1537" name="top"/>
  <anchor x="491" y="-150" name="bottom"/>
  <anchor x="673" y="0" name="ogonek"/>
  <outline>
    <contour>
      <point x="-1" y="304" type="line" smooth="yes"/>
      <point x="-29.6748" y="141.006"/>
      <point x="125.675" y="-6"/>
      <point x="343" y="-6" type="qcurve" smooth="yes"/>
      <point x="675" y="-6" type="line" smooth="yes"/>
      <point x="892.325" y="-6"/>
      <point x="1112.59" y="105.571"/>
      <point x="1139" y="258" type="qcurve" smooth="yes"/>
      <point x="1141" y="270" type="line"/>
      <point x="634" y="368" type="line"/>
      <point x="575" y="26" type="line"/>
      <point x="575" y="26"/>
      <point x="575" y="26"/>
      <point x="575" y="26" type="qcurve"/>
      <point x="475" y="26" type="line"/>
      <point x="475" y="26"/>
      <point x="475" y="26"/>
      <point x="475" y="26" type="qcurve"/>
      <point x="560" y="516" type="line"/>
      <point x="1184" y="516" type="line"/>
      <point x="1221" y="730" type="line" smooth="yes"/>
      <point x="1248.92" y="888.466"/>
      <point x="1073.32" y="1030"/>
      <point x="856" y="1030" type="qcurve" smooth="yes"/>
      <point x="524" y="1030" type="line" smooth="yes"/>
      <point x="308.184" y="1030"/>
      <point x="100.92" y="886.957"/>
      <point x="73" y="730" type="qcurve" smooth="yes"/>
    </contour>
    <contour>
      <point x="566" y="548" type="line"/>
      <point x="644" y="998" type="line"/>
      <point x="644" y="998"/>
      <point x="644" y="998"/>
      <point x="644" y="998" type="qcurve"/>
      <point x="744" y="998" type="line"/>
      <point x="744" y="998"/>
      <point x="744" y="998"/>
      <point x="744" y="998" type="qcurve"/>
      <point x="666" y="548" type="line"/>
    </contour>
    <contour>
      <point x="385" y="1112" type="qcurve" smooth="yes"/>
      <point x="517" y="1112" type="line" smooth="yes"/>
      <point x="598.497" y="1112"/>
      <point x="631.663" y="1140.5"/>
      <point x="646" y="1222" type="qcurve" smooth="yes"/>
      <point x="668" y="1344" type="line" smooth="yes"/>
      <point x="681.583" y="1423.99"/>
      <point x="658.497" y="1452"/>
      <point x="577" y="1452" type="qcurve" smooth="yes"/>
      <point x="445" y="1452" type="line" smooth="yes"/>
      <point x="363.503" y="1452"/>
      <point x="329.583" y="1423.99"/>
      <point x="316" y="1344" type="qcurve" smooth="yes"/>
      <point x="294" y="1222" type="line" smooth="yes"/>
      <point x="279.663" y="1140.5"/>
      <point x="303.503" y="1112"/>
    </contour>
    <contour>
      <point x="905" y="1112" type="qcurve" smooth="yes"/>
      <point x="1037" y="1112" type="line" smooth="yes"/>
      <point x="1118.5" y="1112"/>
      <point x="1151.66" y="1140.5"/>
      <point x="1166" y="1222" type="qcurve" smooth="yes"/>
      <point x="1188" y="1344" type="line" smooth="yes"/>
      <point x="1201.58" y="1423.99"/>
      <point x="1178.5" y="1452"/>
      <point x="1097" y="1452" type="qcurve" smooth="yes"/>
      <point x="965" y="1452" type="line" smooth="yes"/>
      <point x="883.503" y="1452"/>
      <point x="849.583" y="1423.99"/>
      <point x="836" y="1344" type="qcurve" smooth="yes"/>
      <point x="814" y="1222" type="line" smooth="yes"/>
      <point x="799.663" y="1140.5"/>
      <point x="823.503" y="1112"/>
    </contour>
  </outline>
  <guideline angle="0" color="1,0,0,1" x="0" y="-1030"/>
</glyph>
<glyph name="uni0453" format="2">
  <advance width="1075"/>
  <unicode hex="0453"/>
  <anchor x="652" y="1150" name="top"/>
  <outline>
    <contour>
      <point x="-46" y="0" type="line"/>
      <point x="478" y="0" type="line"/>
      <point x="651" y="992" type="line"/>
      <point x="1107" y="992" type="line"/>
      <point x="1113" y="1024" type="line"/>
      <point x="133" y="1024" type="line"/>
    </contour>
    <contour>
      <point x="517" y="1076" type="line"/>
      <point x="557" y="1076" type="line"/>
      <point x="1267" y="1424" type="line"/>
      <point x="672" y="1424" type="line"/>
    </contour>
  </outline>
</glyph>
<glyph name="uni0454" format="2">
  <advance width="1242"/>
  <unicode hex="0454"/>
  <outline>
    <contour>
      <point x="269" y="-6" type="qcurve" smooth="yes"/>
      <point x="749" y="-6" type="line" smooth="yes"/>
      <point x="927.086" y="-6"/>
      <point x="1094.34" y="117.608"/>
      <point x="1120" y="264" type="qcurve" smooth="yes"/>
      <point x="1131" y="326" type="line"/>
      <point x="619" y="395" type="line"/>
      <point x="555" y="26" type="line"/>
      <point x="555" y="26"/>
      <point x="555" y="26"/>
      <point x="555" y="26" type="qcurve"/>
      <point x="475" y="26" type="line"/>
      <point x="475" y="26"/>
      <point x="475" y="26"/>
      <point x="475" y="26" type="qcurve"/>
      <point x="559" y="509" type="line"/>
      <point x="810" y="509" type="line"/>
      <point x="815" y="538" type="line"/>
      <point x="564" y="538" type="line"/>
      <point x="644" y="998" type="line"/>
      <point x="644" y="998"/>
      <point x="644" y="998"/>
      <point x="644" y="998" type="qcurve"/>
      <point x="720" y="998" type="line"/>
      <point x="720" y="998"/>
      <point x="720" y="998"/>
      <point x="720" y="998" type="qcurve"/>
      <point x="657" y="636" type="line"/>
      <point x="1193" y="705" type="line"/>
      <point x="1205" y="774" type="line" smooth="yes"/>
      <point x="1229.15" y="912.846"/>
      <point x="1103.07" y="1030"/>
      <point x="928" y="1030" type="qcurve" smooth="yes"/>
      <point x="452" y="1030" type="line" smooth="yes"/>
      <point x="276.933" y="1030"/>
      <point x="104.902" y="910.356"/>
      <point x="80" y="770" type="qcurve" smooth="yes"/>
      <point x="-8" y="264" type="line" smooth="yes"/>
      <point x="-33.6564" y="117.608"/>
      <point x="90.9144" y="-6"/>
    </contour>
  </outline>
  <guideline angle="260.1" color="1,0,0,1" x="760" y="0"/>
</glyph>
<glyph name="uni045D" format="2">
  <advance width="1349"/>
  <unicode hex="045D"/>
  <anchor x="750" y="1150" name="top"/>
  <outline>
    <contour>
      <point x="-46" y="0" type="line"/>
      <point x="479" y="0" type="line"/>
      <point x="794" y="873" type="line"/>
      <point x="642" y="0" type="line"/>
      <point x="1157" y="0" type="line"/>
      <point x="1336" y="1024" type="line"/>
      <point x="811" y="1024" type="line"/>
      <point x="494" y="141" type="line"/>
      <point x="648" y="1024" type="line"/>
      <point x="133" y="1024" type="line"/>
    </contour>
    <contour>
      <point x="820" y="1076" type="line"/>
      <point x="853" y="1076" type="line"/>
      <point x="827" y="1424" type="line"/>
      <point x="312" y="1424" type="line"/>
    </contour>
  </outline>
</glyph>
<glyph name="uni0474" format="2">
  <advance width="1316"/>
  <unicode hex="0474"/>
  <outline>
    <contour>
      <point x="383" y="0" type="line"/>
      <point x="657" y="0" type="line"/>
      <point x="1268" y="1266" type="line" smooth="yes"/>
      <point x="1290.64" y="1312.79"/>
      <point x="1340.21" y="1368"/>
      <point x="1387" y="1368" type="qcurve" smooth="yes"/>
      <point x="1437" y="1368" type="line"/>
      <point x="1452" y="1400" type="line"/>
      <point x="1392" y="1400" type="line" smooth="yes"/>
      <point x="1330.88" y="1400"/>
      <point x="1262.43" y="1333.37"/>
      <point x="1233" y="1273" type="qcurve" smooth="yes"/>
      <point x="856" y="495" type="line"/>
      <point x="696" y="1400" type="line"/>
      <point x="117" y="1400" type="line"/>
    </contour>
  </outline>
</glyph>
<glyph name="uni0475" format="2">
  <advance width="1137"/>
  <unicode hex="0475"/>
  <outline>
    <contour>
      <point x="288" y="0" type="line"/>
      <point x="551" y="0" type="line"/>
      <point x="1066" y="924" type="line" smooth="yes"/>
      <point x="1083.36" y="955.693"/>
      <point x="1122.55" y="992"/>
      <point x="1155" y="992" type="qcurve" smooth="yes"/>
      <point x="1183" y="992" type="line"/>
      <point x="1197" y="1024" type="line"/>
      <point x="1162" y="1024" type="line" smooth="yes"/>
      <point x="1115.97" y="1024"/>
      <point x="1060.9" y="975.521"/>
      <point x="1036" y="931" type="qcurve" smooth="yes"/>
      <point x="721" y="365" type="line"/>
      <point x="594" y="1024" type="line"/>
      <point x="61" y="1024" type="line"/>
    </contour>
  </outline>
</glyph>
<glyph name="uni0491" format="2">
  <advance width="1076"/>
  <unicode hex="0491"/>
  <outline>
    <contour>
      <point x="-46" y="0" type="line"/>
      <point x="478" y="0" type="line"/>
      <point x="651" y="992" type="line"/>
      <point x="1108" y="992" type="line"/>
      <point x="1152" y="1242" type="line"/>
      <point x="862" y="1242" type="line"/>
      <point x="749" y="1024" type="line"/>
      <point x="133" y="1024" type="line"/>
    </contour>
  </outline>
</glyph>
<glyph name="uni0498" format="2">
  <advance width="1296"/>
  <unicode hex="0498"/>
  <anchor x="799" y="1550" name="top"/>
  <anchor x="546" y="0" name="ogonek"/>
  <note>Check position</note>
  <outline>
    <contour>
      <point x="-19" y="434" type="line"/>
      <point x="-42" y="306" type="line" smooth="yes"/>
      <point x="-71.4294" y="143.761"/>
      <point x="94.0494" y="-14"/>
      <point x="291" y="-14" type="qcurve" smooth="yes"/>
      <point x="732" y="-14" type="line" smooth="yes"/>
      <point x="848.25" y="-14"/>
      <point x="1012.44" y="19.7812"/>
      <point x="1123.06" y="97.9688"/>
      <point x="1187.5" y="225.875"/>
      <point x="1204" y="320" type="qcurve" smooth="yes"/>
      <point x="1217" y="394" type="line" smooth="yes"/>
      <point x="1241.9" y="535.11"/>
      <point x="1164.66" y="686.344"/>
      <point x="1056" y="712" type="qcurve"/>
      <point x="1165.42" y="739.92"/>
      <point x="1286.85" y="890.927"/>
      <point x="1311" y="1026" type="qcurve" smooth="yes"/>
      <point x="1321" y="1081" type="line" smooth="yes"/>
      <point x="1336.38" y="1165.75"/>
      <point x="1307.44" y="1291.31"/>
      <point x="1218.56" y="1374.19"/>
      <point x="1069.62" y="1415"/>
      <point x="965" y="1415" type="qcurve" smooth="yes"/>
      <point x="540" y="1415" type="line" smooth="yes"/>
      <point x="430.5" y="1415"/>
      <point x="276.25" y="1384"/>
      <point x="172.75" y="1312"/>
      <point x="113" y="1194"/>
      <point x="98" y="1107" type="qcurve" smooth="yes"/>
      <point x="76" y="979" type="line"/>
      <point x="631" y="885" type="line"/>
      <point x="718" y="1379" type="line"/>
      <point x="718" y="1379"/>
      <point x="718" y="1379"/>
      <point x="718" y="1379" type="qcurve"/>
      <point x="741" y="1379" type="line" smooth="yes"/>
      <point x="779.485" y="1379"/>
      <point x="811.282" y="1349.94"/>
      <point x="806" y="1319" type="qcurve" smooth="yes"/>
      <point x="714" y="788" type="line" smooth="yes"/>
      <point x="708.718" y="758.571"/>
      <point x="663.975" y="728"/>
      <point x="627" y="728" type="qcurve" smooth="yes"/>
      <point x="349" y="728" type="line"/>
      <point x="343" y="692" type="line"/>
      <point x="637" y="692" type="line" smooth="yes"/>
      <point x="673.975" y="692"/>
      <point x="707.282" y="660.675"/>
      <point x="702" y="632" type="qcurve" smooth="yes"/>
      <point x="606" y="82" type="line" smooth="yes"/>
      <point x="599.963" y="48.043"/>
      <point x="563.012" y="22"/>
      <point x="520" y="22" type="qcurve" smooth="yes"/>
      <point x="481" y="22" type="line"/>
      <point x="481" y="22"/>
      <point x="481" y="22"/>
      <point x="481" y="22" type="qcurve"/>
      <point x="569" y="528" type="line"/>
    </contour>
    <contour>
      <point x="489.163" y="-425" type="qcurve" smooth="yes"/>
      <point x="597.041" y="-425"/>
      <point x="750.074" y="-317.669"/>
      <point x="738" y="-249" type="qcurve"/>
      <point x="702.534" y="-192.405"/>
      <point x="615.466" y="-56.595"/>
      <point x="580" y="0" type="qcurve"/>
      <point x="543" y="0" type="line"/>
      <point x="558.092" y="-19.6196"/>
      <point x="574.924" y="-54.3736"/>
      <point x="577.767" y="-70.8974" type="qcurve" smooth="yes"/>
      <point x="586.998" y="-124.551"/>
      <point x="493.898" y="-190"/>
      <point x="401.333" y="-190" type="qcurve" smooth="yes"/>
      <point x="355.051" y="-190"/>
      <point x="250.448" y="-173.583"/>
      <point x="218" y="-160" type="qcurve"/>
      <point x="312" y="-383" type="line"/>
      <point x="354.258" y="-404.129"/>
      <point x="441.594" y="-425"/>
    </contour>
  </outline>
</glyph>
<glyph name="uni04A4" format="2">
  <advance width="1619"/>
  <unicode hex="04A4"/>
  <outline>
    <contour>
      <point x="-29" y="0" type="line"/>
      <point x="543" y="0" type="line"/>
      <point x="667" y="710" type="line"/>
      <point x="767" y="710" type="line"/>
      <point x="643" y="0" type="line"/>
      <point x="1215" y="0" type="line"/>
      <point x="1453" y="1364" type="line"/>
      <point x="1729" y="1364" type="line"/>
      <point x="1735" y="1400" type="line"/>
      <point x="887" y="1400" type="line"/>
      <point x="773" y="746" type="line"/>
      <point x="673" y="746" type="line"/>
      <point x="787" y="1400" type="line"/>
      <point x="215" y="1400" type="line"/>
    </contour>
  </outline>
  <guideline angle="260.1" color="1,0,0,1" x="593" y="0"/>
</glyph>
<glyph name="uni04AE" format="2">
  <advance width="1317"/>
  <unicode hex="04AE"/>
  <anchor x="970" y="1550" name="top"/>
  <anchor x="514" y="-150" name="bottom"/>
  <outline>
    <contour>
      <point x="254" y="0" type="line"/>
      <point x="826" y="0" type="line"/>
      <point x="921" y="543" type="line"/>
      <point x="1453" y="1400" type="line"/>
      <point x="1411" y="1400" type="line"/>
      <point x="905" y="585" type="line"/>
      <point x="695" y="1400" type="line"/>
      <point x="117" y="1400" type="line"/>
      <point x="352" y="560" type="line"/>
    </contour>
  </outline>
  <guideline angle="260.099" color="1,0,0,1" x="598" y="-0"/>
</glyph>
<glyph name="uni04B3" format="2">
  <advance width="1317"/>
  <unicode hex="04B3"/>
  <outline>
    <contour>
      <point x="-88" y="0" type="line"/>
      <point x="-44" y="0" type="line"/>
      <point x="368" y="372" type="line"/>
      <point x="536" y="0" type="line" name="ATT"/>
      <point x="770" y="0" type="line"/>
      <point x="820" y="-260" type="line"/>
      <point x="1151" y="-260" type="line"/>
      <point x="1202" y="32" type="line"/>
      <point x="1073" y="32" type="line"/>
      <point x="757" y="686" type="line"/>
      <point x="1125" y="1024" type="line"/>
      <point x="1081" y="1024" type="line"/>
      <point x="744" y="714" type="line"/>
      <point x="597" y="1024" type="line"/>
      <point x="61" y="1024" type="line"/>
      <point x="355" y="401" type="line"/>
    </contour>
  </outline>
</glyph>
<glyph name="uni04B6" format="2">
  <advance width="1433"/>
  <unicode hex="04B6"/>
  <outline>
    <contour>
      <point x="614" y="0" type="line" name="ATT"/>
      <point x="890" y="0" type="line"/>
      <point x="932" y="-300" type="line"/>
      <point x="1294" y="-300" type="line"/>
      <point x="1352" y="36" type="line"/>
      <point x="1190" y="36" type="line"/>
      <point x="1428" y="1400" type="line"/>
      <point x="858" y="1400" type="line"/>
      <point x="695" y="466" type="line"/>
      <point x="605" y="466" type="line"/>
      <point x="605" y="466"/>
      <point x="605" y="466"/>
      <point x="605" y="466" type="qcurve"/>
      <point x="768" y="1400" type="line"/>
      <point x="195" y="1400" type="line"/>
      <point x="93" y="814" type="line" smooth="yes"/>
      <point x="75" y="711.25"/>
      <point x="105.625" y="565.562"/>
      <point x="194.875" y="472.938"/>
      <point x="338.75" y="430"/>
      <point x="434" y="430" type="qcurve" smooth="yes"/>
      <point x="689" y="430" type="line"/>
    </contour>
  </outline>
</glyph>
<glyph name="uni04B8" format="2">
  <advance width="1430"/>
  <unicode hex="04B8"/>
  <outline>
    <contour>
      <point x="652" y="0" type="line"/>
      <point x="1222" y="0" type="line"/>
      <point x="1466" y="1400" type="line"/>
      <point x="896" y="1400" type="line"/>
      <point x="733" y="466" type="line"/>
      <point x="687" y="466" type="line"/>
      <point x="801" y="1120" type="line"/>
      <point x="765" y="1120" type="line"/>
      <point x="651" y="466" type="line"/>
      <point x="605" y="466" type="line"/>
      <point x="605" y="466"/>
      <point x="605" y="466"/>
      <point x="605" y="466" type="qcurve"/>
      <point x="768" y="1400" type="line"/>
      <point x="195" y="1400" type="line"/>
      <point x="93" y="814" type="line" smooth="yes"/>
      <point x="75" y="711.25"/>
      <point x="105.625" y="565.562"/>
      <point x="194.875" y="472.938"/>
      <point x="338.75" y="430"/>
      <point x="434" y="430" type="qcurve" smooth="yes"/>
      <point x="645" y="430" type="line"/>
      <point x="619" y="280" type="line"/>
      <point x="655" y="280" type="line"/>
      <point x="681" y="430" type="line"/>
      <point x="727" y="430" type="line"/>
    </contour>
  </outline>
</glyph>
<glyph name="uni04CB" format="2">
  <advance width="1392"/>
  <unicode hex="04CB"/>
  <outline>
    <contour>
      <point x="400" y="-300" type="line"/>
      <point x="762" y="-300" type="line"/>
      <point x="908" y="0" type="line"/>
      <point x="1184" y="0" type="line" name="ATT"/>
      <point x="1428" y="1400" type="line"/>
      <point x="858" y="1400" type="line"/>
      <point x="695" y="466" type="line"/>
      <point x="605" y="466" type="line"/>
      <point x="605" y="466"/>
      <point x="605" y="466"/>
      <point x="605" y="466" type="qcurve"/>
      <point x="768" y="1400" type="line"/>
      <point x="195" y="1400" type="line"/>
      <point x="93" y="814" type="line" smooth="yes"/>
      <point x="75" y="711.25"/>
      <point x="105.625" y="565.562"/>
      <point x="194.875" y="472.938"/>
      <point x="338.75" y="430"/>
      <point x="434" y="430" type="qcurve" smooth="yes"/>
      <point x="689" y="430" type="line"/>
      <point x="620" y="36" type="line"/>
      <point x="458" y="36" type="line"/>
    </contour>
  </outline>
</glyph>
<glyph name="uni04D8" format="2">
  <advance width="1392"/>
  <unicode hex="04D8"/>
  <anchor x="847" y="1550" name="top"/>
  <anchor x="550" y="-150" name="bottom"/>
  <outline>
    <contour>
      <point x="366" y="-10" type="qcurve" smooth="yes"/>
      <point x="786" y="-10" type="line" smooth="yes"/>
      <point x="985.214" y="-10"/>
      <point x="1223.53" y="129.24"/>
      <point x="1259" y="336" type="qcurve" smooth="yes"/>
      <point x="1388" y="1076" type="line" smooth="yes"/>
      <point x="1423.25" y="1277"/>
      <point x="1223" y="1410"/>
      <point x="1034" y="1410" type="qcurve" smooth="yes"/>
      <point x="620" y="1410" type="line" smooth="yes"/>
      <point x="431" y="1410"/>
      <point x="184.75" y="1277"/>
      <point x="148" y="1076" type="qcurve" smooth="yes"/>
      <point x="136" y="1010" type="line"/>
      <point x="690" y="906" type="line"/>
      <point x="772" y="1374" type="line"/>
      <point x="772" y="1374"/>
      <point x="772" y="1374"/>
      <point x="772" y="1374" type="qcurve"/>
      <point x="868" y="1374" type="line"/>
      <point x="868" y="1374"/>
      <point x="868" y="1374"/>
      <point x="868" y="1374" type="qcurve"/>
      <point x="751" y="700" type="line"/>
      <point x="76" y="700" type="line"/>
      <point x="13" y="336" type="line" smooth="yes"/>
      <point x="-23.75" y="129"/>
      <point x="168" y="-10"/>
    </contour>
    <contour>
      <point x="602" y="664" type="line"/>
      <point x="744" y="664" type="line"/>
      <point x="633" y="26" type="line"/>
      <point x="633" y="26"/>
      <point x="633" y="26"/>
      <point x="633" y="26" type="qcurve"/>
      <point x="491" y="26" type="line"/>
      <point x="491" y="26"/>
      <point x="491" y="26"/>
      <point x="491" y="26" type="qcurve"/>
    </contour>
  </outline>
</glyph>
<glyph name="uni04E7" format="2">
  <advance width="1275"/>
  <unicode hex="04E7"/>
  <anchor x="786" y="1537" name="top"/>
  <anchor x="491" y="-150" name="bottom"/>
  <anchor x="1226" y="776" name="horn"/>
  <anchor x="536" y="0" name="ogonek"/>
  <outline>
    <contour>
      <point x="-9" y="258" type="line" smooth="yes"/>
      <point x="-33.1472" y="119.154"/>
      <point x="89.5156" y="-6"/>
      <point x="251" y="-6" type="qcurve" smooth="yes"/>
      <point x="787" y="-6" type="line" smooth="yes"/>
      <point x="949.994" y="-6"/>
      <point x="1114.85" y="119.154"/>
      <point x="1139" y="258" type="qcurve" smooth="yes"/>
      <point x="1229" y="776" type="line" smooth="yes"/>
      <point x="1252.39" y="907.3"/>
      <point x="1127.98" y="1030"/>
      <point x="968" y="1030" type="qcurve" smooth="yes"/>
      <point x="432" y="1030" type="line" smooth="yes"/>
      <point x="272.025" y="1030"/>
      <point x="104.393" y="907.3"/>
      <point x="81" y="776" type="qcurve" smooth="yes"/>
    </contour>
    <contour>
      <point x="475" y="26" type="qcurve"/>
      <point x="644" y="998" type="line"/>
      <point x="644" y="998"/>
      <point x="644" y="998"/>
      <point x="644" y="998" type="qcurve"/>
      <point x="744" y="998" type="line"/>
      <point x="744" y="998"/>
      <point x="744" y="998"/>
      <point x="744" y="998" type="qcurve"/>
      <point x="575" y="26" type="line"/>
      <point x="575" y="26"/>
      <point x="575" y="26"/>
      <point x="575" y="26" type="qcurve"/>
      <point x="475" y="26" type="line"/>
      <point x="475" y="26"/>
      <point x="475" y="26"/>
    </contour>
    <contour>
      <point x="385" y="1112" type="qcurve" smooth="yes"/>
      <point x="517" y="1112" type="line" smooth="yes"/>
      <point x="598.497" y="1112"/>
      <point x="631.663" y="1140.5"/>
      <point x="646" y="1222" type="qcurve" smooth="yes"/>
      <point x="668" y="1344" type="line" smooth="yes"/>
      <point x="681.583" y="1423.99"/>
      <point x="658.497" y="1452"/>
      <point x="577" y="1452" type="qcurve" smooth="yes"/>
      <point x="445" y="1452" type="line" smooth="yes"/>
      <point x="363.503" y="1452"/>
      <point x="329.583" y="1423.99"/>
      <point x="316" y="1344" type="qcurve" smooth="yes"/>
      <point x="294" y="1222" type="line" smooth="yes"/>
      <point x="279.663" y="1140.5"/>
      <point x="303.503" y="1112"/>
    </contour>
    <contour>
      <point x="905" y="1112" type="qcurve" smooth="yes"/>
      <point x="1037" y="1112" type="line" smooth="yes"/>
      <point x="1118.5" y="1112"/>
      <point x="1151.66" y="1140.5"/>
      <point x="1166" y="1222" type="qcurve" smooth="yes"/>
      <point x="1188" y="1344" type="line" smooth="yes"/>
      <point x="1201.58" y="1423.99"/>
      <point x="1178.5" y="1452"/>
      <point x="1097" y="1452" type="qcurve" smooth="yes"/>
      <point x="965" y="1452" type="line" smooth="yes"/>
      <point x="883.503" y="1452"/>
      <point x="849.583" y="1423.99"/>
      <point x="836" y="1344" type="qcurve" smooth="yes"/>
      <point x="814" y="1222" type="line" smooth="yes"/>
      <point x="799.663" y="1140.5"/>
      <point x="823.503" y="1112"/>
    </contour>
  </outline>
</glyph>
<glyph name="uni04F8" format="2">
  <advance width="2118"/>
  <unicode hex="04F8"/>
  <anchor x="1288" y="1913" name="top"/>
  <outline>
    <contour>
      <point x="-29" y="0" type="line"/>
      <point x="794" y="0" type="line" smooth="yes"/>
      <point x="888.5" y="0"/>
      <point x="1046.69" y="29"/>
      <point x="1167.81" y="104"/>
      <point x="1248.75" y="233.5"/>
      <point x="1266" y="334" type="qcurve" smooth="yes"/>
      <point x="1311" y="590" type="line" smooth="yes"/>
      <point x="1328.62" y="690.5"/>
      <point x="1292.66" y="820"/>
      <point x="1197.59" y="895"/>
      <point x="1049.5" y="924"/>
      <point x="955" y="924" type="qcurve" smooth="yes"/>
      <point x="704" y="924" type="line"/>
      <point x="787" y="1400" type="line"/>
      <point x="215" y="1400" type="line"/>
    </contour>
    <contour>
      <point x="549" y="36" type="line"/>
      <point x="698" y="888" type="line"/>
      <point x="715" y="888" type="line" smooth="yes"/>
      <point x="754.239" y="888"/>
      <point x="785.528" y="855.166"/>
      <point x="781" y="828" type="qcurve" smooth="yes"/>
      <point x="653" y="96" type="line" smooth="yes"/>
      <point x="647.718" y="68.8344"/>
      <point x="605.239" y="36"/>
      <point x="566" y="36" type="qcurve" smooth="yes"/>
    </contour>
    <contour>
      <point x="1338" y="0" type="line"/>
      <point x="1910" y="0" type="line"/>
      <point x="2154" y="1400" type="line"/>
      <point x="1582" y="1400" type="line"/>
    </contour>
    <contour>
      <point x="887" y="1488" type="qcurve" smooth="yes"/>
      <point x="1019" y="1488" type="line" smooth="yes"/>
      <point x="1100.5" y="1488"/>
      <point x="1133.66" y="1516.5"/>
      <point x="1148" y="1598" type="qcurve" smooth="yes"/>
      <point x="1170" y="1720" type="line" smooth="yes"/>
      <point x="1183.58" y="1799.99"/>
      <point x="1160.5" y="1828"/>
      <point x="1079" y="1828" type="qcurve" smooth="yes"/>
      <point x="947" y="1828" type="line" smooth="yes"/>
      <point x="865.503" y="1828"/>
      <point x="831.583" y="1799.99"/>
      <point x="818" y="1720" type="qcurve" smooth="yes"/>
      <point x="796" y="1598" type="line" smooth="yes"/>
      <point x="781.663" y="1516.5"/>
      <point x="805.503" y="1488"/>
    </contour>
    <contour>
      <point x="1407" y="1488" type="qcurve" smooth="yes"/>
      <point x="1539" y="1488" type="line" smooth="yes"/>
      <point x="1620.5" y="1488"/>
      <point x="1653.66" y="1516.5"/>
      <point x="1668" y="1598" type="qcurve" smooth="yes"/>
      <point x="1690" y="1720" type="line" smooth="yes"/>
      <point x="1703.58" y="1799.99"/>
      <point x="1680.5" y="1828"/>
      <point x="1599" y="1828" type="qcurve" smooth="yes"/>
      <point x="1467" y="1828" type="line" smooth="yes"/>
      <point x="1385.5" y="1828"/>
      <point x="1351.58" y="1799.99"/>
      <point x="1338" y="1720" type="qcurve" smooth="yes"/>
      <point x="1316" y="1598" type="line" smooth="yes"/>
      <point x="1301.66" y="1516.5"/>
      <point x="1325.5" y="1488"/>
    </contour>
  </outline>
  <guideline angle="260.1" color="1,0,0,1" x="1150" y="-0"/>
</glyph>
<glyph name="uni051B" format="2">
  <advance width="1292"/>
  <unicode hex="051B"/>
  <anchor x="796" y="1598" name="top"/>
  <anchor x="489" y="-162" name="bottom"/>
  <outline>
    <contour>
      <point x="-9" y="260" type="line" smooth="yes"/>
      <point x="-33.1472" y="121.154"/>
      <point x="89.5156" y="-4"/>
      <point x="251" y="-4" type="qcurve" smooth="yes"/>
      <point x="493" y="-4" type="line" smooth="yes"/>
      <point x="520.166" y="-4"/>
      <point x="561.172" y="10.4172"/>
      <point x="574" y="24" type="qcurve"/>
      <point x="495" y="-428" type="line"/>
      <point x="1019" y="-428" type="line"/>
      <point x="1273" y="1024" type="line"/>
      <point x="749" y="1024" type="line"/>
      <point x="745" y="1000" type="line"/>
      <point x="740.472" y="1012.07"/>
      <point x="704.693" y="1024"/>
      <point x="673" y="1024" type="qcurve" smooth="yes"/>
      <point x="431" y="1024" type="line" smooth="yes"/>
      <point x="271.025" y="1024"/>
      <point x="103.393" y="901.3"/>
      <point x="80" y="770" type="qcurve" smooth="yes"/>
    </contour>
    <contour>
      <point x="475" y="28" type="qcurve"/>
      <point x="643" y="992" type="line"/>
      <point x="643" y="992"/>
      <point x="643" y="992"/>
      <point x="643" y="992" type="qcurve"/>
      <point x="743" y="992" type="line"/>
      <point x="575" y="28" type="line"/>
      <point x="475" y="28" type="line"/>
      <point x="475" y="28"/>
      <point x="475" y="28"/>
    </contour>
  </outline>
</glyph>
<glyph name="Wgrave" format="2">
  <advance width="1811"/>
  <unicode hex="1E80"/>
  <anchor x="828" y="-150" name="bottom"/>
  <anchor x="1058" y="1550" name="top"/>
  <anchor x="1112" y="1500" name="topright"/>
  <outline>
    <contour>
      <point x="287" y="0" type="line"/>
      <point x="561" y="0" type="line"/>
      <point x="972" y="999" type="line"/>
      <point x="1095" y="0" type="line"/>
      <point x="1369" y="0" type="line"/>
      <point x="1947" y="1400" type="line"/>
      <point x="1908" y="1400" type="line"/>
      <point x="1583" y="614" type="line"/>
      <point x="1488" y="1400" type="line"/>
      <point x="1097" y="1400" type="line"/>
      <point x="775" y="616" type="line"/>
      <point x="685" y="1400" type="line"/>
      <point x="117" y="1400" type="line"/>
    </contour>
    <contour>
      <point x="1112" y="1500" type="line"/>
      <point x="1148" y="1500" type="line"/>
      <point x="1107" y="1800" type="line"/>
      <point x="576" y="1800" type="line"/>
    </contour>
  </outline>
</glyph>
<glyph name="uni1EA8" format="2">
  <advance width="1234"/>
  <unicode hex="1EA8"/>
  <anchor x="813" y="1856" name="top"/>
  <anchor x="432" y="-150" name="bottom"/>
  <anchor x="550" y="0" name="ogonek_in"/>
  <anchor x="1202" y="1576" name="topright"/>
  <outline>
    <contour>
      <point x="-130" y="0" type="line"/>
      <point x="-89" y="0" type="line"/>
      <point x="56" y="298" type="line"/>
      <point x="514" y="298" type="line"/>
      <point x="550" y="0" type="line"/>
      <point x="1124" y="0" type="line"/>
      <point x="927" y="1400" type="line"/>
      <point x="554" y="1400" type="line"/>
    </contour>
    <contour>
      <point x="74" y="334" type="line"/>
      <point x="422" y="1047" type="line"/>
      <point x="509" y="334" type="line"/>
    </contour>
    <contour>
      <point x="504" y="1476" type="line"/>
      <point x="548" y="1476" type="line"/>
      <point x="691" y="1700" type="line"/>
      <point x="760" y="1476" type="line"/>
      <point x="1185" y="1476" type="line"/>
      <point x="994" y="1776" type="line"/>
      <point x="702" y="1776" type="line"/>
    </contour>
    <contour>
      <point x="1202" y="1576" type="qcurve"/>
      <point x="1341" y="1576" type="line"/>
      <point x="1422.5" y="1611.47"/>
      <point x="1535.91" y="1702.98"/>
      <point x="1551" y="1789" type="qcurve" smooth="yes"/>
      <point x="1564.58" y="1867.48"/>
      <point x="1467.85" y="1978"/>
      <point x="1369" y="1978" type="qcurve" smooth="yes"/>
      <point x="1310.9" y="1978"/>
      <point x="1200.41" y="1933.62"/>
      <point x="1174" y="1914" type="qcurve"/>
      <point x="1187" y="1887" type="line"/>
      <point x="1198.32" y="1895.3"/>
      <point x="1222.15" y="1909"/>
      <point x="1238" y="1909" type="qcurve" smooth="yes"/>
      <point x="1268.94" y="1909"/>
      <point x="1281.3" y="1828.54"/>
      <point x="1273" y="1781" type="qcurve" smooth="yes"/>
      <point x="1264.7" y="1737.23"/>
      <point x="1230.67" y="1631.84"/>
    </contour>
  </outline>
</glyph>
<glyph name="uni1EAC" format="2">
  <advance width="1234"/>
  <unicode hex="1EAC"/>
  <anchor x="813" y="1856" name="top"/>
  <anchor x="432" y="-150" name="bottom"/>
  <anchor x="550" y="0" name="ogonek_in"/>
  <anchor x="1202" y="1576" name="topright"/>
  <outline>
    <contour>
      <point x="-130" y="0" type="line"/>
      <point x="-89" y="0" type="line"/>
      <point x="56" y="298" type="line"/>
      <point x="514" y="298" type="line"/>
      <point x="550" y="0" type="line"/>
      <point x="1124" y="0" type="line"/>
      <point x="927" y="1400" type="line"/>
      <point x="554" y="1400" type="line"/>
    </contour>
    <contour>
      <point x="74" y="334" type="line"/>
      <point x="422" y="1047" type="line"/>
      <point x="509" y="334" type="line"/>
    </contour>
    <contour>
      <point x="504" y="1476" type="line"/>
      <point x="548" y="1476" type="line"/>
      <point x="691" y="1700" type="line"/>
      <point x="760" y="1476" type="line"/>
      <point x="1185" y="1476" type="line"/>
      <point x="994" y="1776" type="line"/>
      <point x="702" y="1776" type="line"/>
    </contour>
    <contour>
      <point x="284" y="-451" type="qcurve" smooth="yes"/>
      <point x="456" y="-451" type="line" smooth="yes"/>
      <point x="537.497" y="-451"/>
      <point x="570.908" y="-422.497"/>
      <point x="586" y="-341" type="qcurve" smooth="yes"/>
      <point x="609" y="-209" type="line" smooth="yes"/>
      <point x="622.583" y="-129.012"/>
      <point x="599.497" y="-101"/>
      <point x="518" y="-101" type="qcurve" smooth="yes"/>
      <point x="346" y="-101" type="line" smooth="yes"/>
      <point x="264.503" y="-101"/>
      <point x="230.583" y="-129.012"/>
      <point x="217" y="-209" type="qcurve" smooth="yes"/>
      <point x="194" y="-341" type="line" smooth="yes"/>
      <point x="178.908" y="-422.497"/>
      <point x="202.503" y="-451"/>
    </contour>
  </outline>
  <guideline angle="0" x="0" y="-100"/>
</glyph>
<glyph name="uni1EB8" format="2">
  <advance width="1108"/>
  <unicode hex="1EB8"/>
  <anchor x="744" y="1550" name="top"/>
  <anchor x="447" y="-150" name="bottom"/>
  <anchor x="599" y="0" name="ogonek"/>
  <outline>
    <contour>
      <point x="-29" y="0" type="line"/>
      <point x="981" y="0" type="line"/>
      <point x="987" y="36" type="line"/>
      <point x="549" y="36" type="line"/>
      <point x="665" y="700" type="line"/>
      <point x="1049" y="700" type="line"/>
      <point x="1055" y="736" type="line"/>
      <point x="671" y="736" type="line"/>
      <point x="781" y="1364" type="line"/>
      <point x="1205" y="1364" type="line"/>
      <point x="1211" y="1400" type="line"/>
      <point x="215" y="1400" type="line"/>
    </contour>
    <contour>
      <point x="299" y="-451" type="qcurve" smooth="yes"/>
      <point x="471" y="-451" type="line" smooth="yes"/>
      <point x="552.497" y="-451"/>
      <point x="585.908" y="-422.497"/>
      <point x="601" y="-341" type="qcurve" smooth="yes"/>
      <point x="624" y="-209" type="line" smooth="yes"/>
      <point x="637.583" y="-129.012"/>
      <point x="614.497" y="-101"/>
      <point x="533" y="-101" type="qcurve" smooth="yes"/>
      <point x="361" y="-101" type="line" smooth="yes"/>
      <point x="279.503" y="-101"/>
      <point x="245.583" y="-129.012"/>
      <point x="232" y="-209" type="qcurve" smooth="yes"/>
      <point x="209" y="-341" type="line" smooth="yes"/>
      <point x="193.908" y="-422.497"/>
      <point x="217.503" y="-451"/>
    </contour>
  </outline>
  <guideline angle="90" x="-127" y="0"/>
  <guideline angle="0" x="0" y="-100"/>
</glyph>
<glyph name="uni1EBB" format="2">
  <advance width="1275"/>
  <unicode hex="1EBB"/>
  <anchor x="722" y="1174" name="top"/>
  <anchor x="491" y="-150" name="bottom"/>
  <anchor x="673" y="0" name="ogonek"/>
  <outline>
    <contour>
      <point x="-1" y="304" type="line" smooth="yes"/>
      <point x="-29.6748" y="141.006"/>
      <point x="125.675" y="-6"/>
      <point x="343" y="-6" type="qcurve" smooth="yes"/>
      <point x="675" y="-6" type="line" smooth="yes"/>
      <point x="892.325" y="-6"/>
      <point x="1112.59" y="105.571"/>
      <point x="1139" y="258" type="qcurve" smooth="yes"/>
      <point x="1141" y="270" type="line"/>
      <point x="634" y="368" type="line"/>
      <point x="575" y="26" type="line"/>
      <point x="575" y="26"/>
      <point x="575" y="26"/>
      <point x="575" y="26" type="qcurve"/>
      <point x="475" y="26" type="line"/>
      <point x="475" y="26"/>
      <point x="475" y="26"/>
      <point x="475" y="26" type="qcurve"/>
      <point x="560" y="516" type="line"/>
      <point x="1184" y="516" type="line"/>
      <point x="1221" y="730" type="line" smooth="yes"/>
      <point x="1248.92" y="888.466"/>
      <point x="1073.32" y="1030"/>
      <point x="856" y="1030" type="qcurve" smooth="yes"/>
      <point x="524" y="1030" type="line" smooth="yes"/>
      <point x="308.184" y="1030"/>
      <point x="100.92" y="886.957"/>
      <point x="73" y="730" type="qcurve" smooth="yes"/>
    </contour>
    <contour>
      <point x="566" y="548" type="line"/>
      <point x="644" y="998" type="line"/>
      <point x="644" y="998"/>
      <point x="644" y="998"/>
      <point x="644" y="998" type="qcurve"/>
      <point x="744" y="998" type="line"/>
      <point x="744" y="998"/>
      <point x="744" y="998"/>
      <point x="744" y="998" type="qcurve"/>
      <point x="666" y="548" type="line"/>
    </contour>
    <contour>
      <point x="598" y="1100" type="qcurve"/>
      <point x="735" y="1100" type="line"/>
      <point x="814.988" y="1127.17"/>
      <point x="940.417" y="1220.03"/>
      <point x="954" y="1297" type="qcurve" smooth="yes"/>
      <point x="967.583" y="1373.97"/>
      <point x="869.589" y="1480"/>
      <point x="773" y="1480" type="qcurve" smooth="yes"/>
      <point x="712.632" y="1480"/>
      <point x="609.92" y="1445.13"/>
      <point x="582" y="1424" type="qcurve"/>
      <point x="594" y="1399" type="line"/>
      <point x="607.583" y="1408.81"/>
      <point x="636.417" y="1423"/>
      <point x="650" y="1423" type="qcurve" smooth="yes"/>
      <point x="682.448" y="1423"/>
      <point x="698.301" y="1359.03"/>
      <point x="690" y="1313" type="qcurve" smooth="yes"/>
      <point x="680.945" y="1263.2"/>
      <point x="635.73" y="1158.86"/>
    </contour>
  </outline>
  <guideline angle="0" color="1,0,0,1" x="0" y="-1030"/>
</glyph>
